G04 #@! TF.GenerationSoftware,KiCad,Pcbnew,(5.1.10)-1*
G04 #@! TF.CreationDate,2021-09-09T12:48:54+02:00*
G04 #@! TF.ProjectId,bandfilter,62616e64-6669-46c7-9465-722e6b696361,rev?*
G04 #@! TF.SameCoordinates,Original*
G04 #@! TF.FileFunction,Legend,Top*
G04 #@! TF.FilePolarity,Positive*
%FSLAX46Y46*%
G04 Gerber Fmt 4.6, Leading zero omitted, Abs format (unit mm)*
G04 Created by KiCad (PCBNEW (5.1.10)-1) date 2021-09-09 12:48:54*
%MOMM*%
%LPD*%
G01*
G04 APERTURE LIST*
%ADD10C,0.120000*%
%ADD11C,0.150000*%
G04 APERTURE END LIST*
D10*
X146717936Y-107675000D02*
X147922064Y-107675000D01*
X146717936Y-109495000D02*
X147922064Y-109495000D01*
X131666064Y-110638000D02*
X130461936Y-110638000D01*
X131666064Y-108818000D02*
X130461936Y-108818000D01*
X137784000Y-112354000D02*
X139584000Y-112354000D01*
X139584000Y-109134000D02*
X136634000Y-109134000D01*
X195114500Y-24480436D02*
X195114500Y-25684564D01*
X196934500Y-24480436D02*
X196934500Y-25684564D01*
X197261564Y-69257500D02*
X196057436Y-69257500D01*
X197261564Y-71077500D02*
X196057436Y-71077500D01*
X185470500Y-71943000D02*
X185470500Y-72343000D01*
X185470500Y-72343000D02*
X184070500Y-72343000D01*
X185470500Y-71943000D02*
X193370500Y-71943000D01*
X185470500Y-82743000D02*
X193370500Y-82743000D01*
X184835500Y-25651500D02*
X184835500Y-26051500D01*
X184835500Y-26051500D02*
X183435500Y-26051500D01*
X184835500Y-25651500D02*
X192735500Y-25651500D01*
X184835500Y-36451500D02*
X192735500Y-36451500D01*
X90537040Y-51932460D02*
X95777040Y-51932460D01*
X90537040Y-61172460D02*
X95777040Y-61172460D01*
X95777040Y-61172460D02*
X95777040Y-51932460D01*
X90537040Y-61172460D02*
X90537040Y-51932460D01*
X90539500Y-48727728D02*
X90539500Y-49250232D01*
X91959500Y-48727728D02*
X91959500Y-49250232D01*
X186824536Y-91453380D02*
X188028664Y-91453380D01*
X186824536Y-89633380D02*
X188028664Y-89633380D01*
X82130440Y-94588320D02*
G75*
G03*
X82130440Y-94588320I-3300000J0D01*
G01*
X86430440Y-94588320D02*
G75*
G03*
X86430440Y-94588320I-7600000J0D01*
G01*
X114075800Y-94753440D02*
G75*
G03*
X114075800Y-94753440I-7600000J0D01*
G01*
X109775800Y-94753440D02*
G75*
G03*
X109775800Y-94753440I-3300000J0D01*
G01*
X206019400Y-48802600D02*
X204689400Y-48802600D01*
X204689400Y-48802600D02*
X204689400Y-47472600D01*
X204689400Y-46202600D02*
X204689400Y-30902600D01*
X207349400Y-30902600D02*
X204689400Y-30902600D01*
X207349400Y-46202600D02*
X207349400Y-30902600D01*
X207349400Y-46202600D02*
X204689400Y-46202600D01*
X197654500Y-24480436D02*
X197654500Y-25684564D01*
X199474500Y-24480436D02*
X199474500Y-25684564D01*
X175870440Y-32492040D02*
X174070440Y-32492040D01*
X174070440Y-35712040D02*
X177020440Y-35712040D01*
X199841160Y-46197520D02*
X197181160Y-46197520D01*
X199841160Y-46197520D02*
X199841160Y-30897520D01*
X199841160Y-30897520D02*
X197181160Y-30897520D01*
X197181160Y-46197520D02*
X197181160Y-30897520D01*
X197181160Y-48797520D02*
X197181160Y-47467520D01*
X198511160Y-48797520D02*
X197181160Y-48797520D01*
X110461600Y-33904140D02*
G75*
G03*
X110461600Y-33904140I-3300000J0D01*
G01*
X114761600Y-33904140D02*
G75*
G03*
X114761600Y-33904140I-7600000J0D01*
G01*
X142083840Y-33904140D02*
G75*
G03*
X142083840Y-33904140I-7600000J0D01*
G01*
X137783840Y-33904140D02*
G75*
G03*
X137783840Y-33904140I-3300000J0D01*
G01*
X90206840Y-35388920D02*
X90206840Y-26148920D01*
X95446840Y-35388920D02*
X95446840Y-26148920D01*
X90206840Y-35388920D02*
X95446840Y-35388920D01*
X90206840Y-26148920D02*
X95446840Y-26148920D01*
X118477040Y-35541320D02*
X118477040Y-26301320D01*
X123717040Y-35541320D02*
X123717040Y-26301320D01*
X118477040Y-35541320D02*
X123717040Y-35541320D01*
X118477040Y-26301320D02*
X123717040Y-26301320D01*
X145533120Y-35470200D02*
X145533120Y-26230200D01*
X150773120Y-35470200D02*
X150773120Y-26230200D01*
X145533120Y-35470200D02*
X150773120Y-35470200D01*
X145533120Y-26230200D02*
X150773120Y-26230200D01*
X117953800Y-56008640D02*
X117953800Y-46768640D01*
X123193800Y-56008640D02*
X123193800Y-46768640D01*
X117953800Y-56008640D02*
X123193800Y-56008640D01*
X117953800Y-46768640D02*
X123193800Y-46768640D01*
X145507720Y-46778800D02*
X150747720Y-46778800D01*
X145507720Y-56018800D02*
X150747720Y-56018800D01*
X150747720Y-56018800D02*
X150747720Y-46778800D01*
X145507720Y-56018800D02*
X145507720Y-46778800D01*
X90537040Y-76780760D02*
X90537040Y-67540760D01*
X95777040Y-76780760D02*
X95777040Y-67540760D01*
X90537040Y-76780760D02*
X95777040Y-76780760D01*
X90537040Y-67540760D02*
X95777040Y-67540760D01*
X117847120Y-67535680D02*
X123087120Y-67535680D01*
X117847120Y-76775680D02*
X123087120Y-76775680D01*
X123087120Y-76775680D02*
X123087120Y-67535680D01*
X117847120Y-76775680D02*
X117847120Y-67535680D01*
X145421360Y-67571240D02*
X150661360Y-67571240D01*
X145421360Y-76811240D02*
X150661360Y-76811240D01*
X150661360Y-76811240D02*
X150661360Y-67571240D01*
X145421360Y-76811240D02*
X145421360Y-67571240D01*
X114375520Y-54555240D02*
G75*
G03*
X114375520Y-54555240I-7600000J0D01*
G01*
X110075520Y-54555240D02*
G75*
G03*
X110075520Y-54555240I-3300000J0D01*
G01*
X137397760Y-54555240D02*
G75*
G03*
X137397760Y-54555240I-3300000J0D01*
G01*
X141697760Y-54555240D02*
G75*
G03*
X141697760Y-54555240I-7600000J0D01*
G01*
X110116160Y-74542640D02*
G75*
G03*
X110116160Y-74542640I-3300000J0D01*
G01*
X114416160Y-74542640D02*
G75*
G03*
X114416160Y-74542640I-7600000J0D01*
G01*
X141738400Y-74542640D02*
G75*
G03*
X141738400Y-74542640I-7600000J0D01*
G01*
X137438400Y-74542640D02*
G75*
G03*
X137438400Y-74542640I-3300000J0D01*
G01*
X86780960Y-33816280D02*
G75*
G03*
X86780960Y-33816280I-7600000J0D01*
G01*
X82480960Y-33816280D02*
G75*
G03*
X82480960Y-33816280I-3300000J0D01*
G01*
X169820640Y-33904140D02*
G75*
G03*
X169820640Y-33904140I-7600000J0D01*
G01*
X165520640Y-33904140D02*
G75*
G03*
X165520640Y-33904140I-3300000J0D01*
G01*
X86994320Y-54568080D02*
G75*
G03*
X86994320Y-54568080I-7600000J0D01*
G01*
X82694320Y-54568080D02*
G75*
G03*
X82694320Y-54568080I-3300000J0D01*
G01*
X165134560Y-54555240D02*
G75*
G03*
X165134560Y-54555240I-3300000J0D01*
G01*
X169434560Y-54555240D02*
G75*
G03*
X169434560Y-54555240I-7600000J0D01*
G01*
X86821600Y-74542640D02*
G75*
G03*
X86821600Y-74542640I-7600000J0D01*
G01*
X82521600Y-74542640D02*
G75*
G03*
X82521600Y-74542640I-3300000J0D01*
G01*
X165175200Y-74542640D02*
G75*
G03*
X165175200Y-74542640I-3300000J0D01*
G01*
X169475200Y-74542640D02*
G75*
G03*
X169475200Y-74542640I-7600000J0D01*
G01*
X90242400Y-86968320D02*
X95482400Y-86968320D01*
X90242400Y-96208320D02*
X95482400Y-96208320D01*
X95482400Y-96208320D02*
X95482400Y-86968320D01*
X90242400Y-96208320D02*
X90242400Y-86968320D01*
X117024160Y-96208320D02*
X117024160Y-86968320D01*
X122264160Y-96208320D02*
X122264160Y-86968320D01*
X117024160Y-96208320D02*
X122264160Y-96208320D01*
X117024160Y-86968320D02*
X122264160Y-86968320D01*
X150178760Y-86780000D02*
X150178760Y-96020000D01*
X144938760Y-86780000D02*
X144938760Y-96020000D01*
X150178760Y-86780000D02*
X144938760Y-86780000D01*
X150178760Y-96020000D02*
X144938760Y-96020000D01*
X60510880Y-105682640D02*
X60510880Y-109282640D01*
X67870880Y-105682640D02*
X67870880Y-109282640D01*
X62390880Y-111162640D02*
X65990880Y-111162640D01*
X62390880Y-103802640D02*
X65990880Y-103802640D01*
X184081880Y-105520080D02*
X184081880Y-109120080D01*
X191441880Y-105520080D02*
X191441880Y-109120080D01*
X185961880Y-111000080D02*
X189561880Y-111000080D01*
X185961880Y-103640080D02*
X189561880Y-103640080D01*
X175801880Y-103802640D02*
X179401880Y-103802640D01*
X175801880Y-111162640D02*
X179401880Y-111162640D01*
X181281880Y-105682640D02*
X181281880Y-109282640D01*
X173921880Y-105682640D02*
X173921880Y-109282640D01*
X137098040Y-94611200D02*
G75*
G03*
X137098040Y-94611200I-3300000J0D01*
G01*
X141398040Y-94611200D02*
G75*
G03*
X141398040Y-94611200I-7600000J0D01*
G01*
X169399000Y-94529920D02*
G75*
G03*
X169399000Y-94529920I-7600000J0D01*
G01*
X165099000Y-94529920D02*
G75*
G03*
X165099000Y-94529920I-3300000J0D01*
G01*
X64413560Y-35188800D02*
X66213560Y-35188800D01*
X66213560Y-31968800D02*
X63263560Y-31968800D01*
X64413560Y-54406440D02*
X66213560Y-54406440D01*
X66213560Y-51186440D02*
X63263560Y-51186440D01*
X65746200Y-70820640D02*
X62796200Y-70820640D01*
X63946200Y-74040640D02*
X65746200Y-74040640D01*
X63946200Y-95219160D02*
X65746200Y-95219160D01*
X65746200Y-91999160D02*
X62796200Y-91999160D01*
X173740240Y-56087920D02*
X176690240Y-56087920D01*
X175540240Y-52867920D02*
X173740240Y-52867920D01*
X173603080Y-76407920D02*
X176553080Y-76407920D01*
X175403080Y-73187920D02*
X173603080Y-73187920D01*
X173425280Y-96372320D02*
X176375280Y-96372320D01*
X175225280Y-93152320D02*
X173425280Y-93152320D01*
X184175040Y-90089560D02*
X184175040Y-88289560D01*
X180955040Y-88289560D02*
X180955040Y-91239560D01*
X82334468Y-23795920D02*
X82856972Y-23795920D01*
X82334468Y-25215920D02*
X82856972Y-25215920D01*
X82354788Y-44654400D02*
X82877292Y-44654400D01*
X82354788Y-46074400D02*
X82877292Y-46074400D01*
X81887428Y-64740720D02*
X82409932Y-64740720D01*
X81887428Y-66160720D02*
X82409932Y-66160720D01*
X86931132Y-84430800D02*
X86408628Y-84430800D01*
X86931132Y-85850800D02*
X86408628Y-85850800D01*
X87185132Y-23780680D02*
X86662628Y-23780680D01*
X87185132Y-25200680D02*
X86662628Y-25200680D01*
X87383252Y-66160720D02*
X86860748Y-66160720D01*
X87383252Y-64740720D02*
X86860748Y-64740720D01*
X81887428Y-84430800D02*
X82409932Y-84430800D01*
X81887428Y-85850800D02*
X82409932Y-85850800D01*
X92116840Y-38174028D02*
X92116840Y-38696532D01*
X93536840Y-38174028D02*
X93536840Y-38696532D01*
X114749948Y-23806080D02*
X115272452Y-23806080D01*
X114749948Y-25226080D02*
X115272452Y-25226080D01*
X110080692Y-46074400D02*
X109558188Y-46074400D01*
X110080692Y-44654400D02*
X109558188Y-44654400D01*
X109613332Y-66160720D02*
X109090828Y-66160720D01*
X109613332Y-64740720D02*
X109090828Y-64740720D01*
X109613332Y-84430800D02*
X109090828Y-84430800D01*
X109613332Y-85850800D02*
X109090828Y-85850800D01*
X114942252Y-44654400D02*
X114419748Y-44654400D01*
X114942252Y-46074400D02*
X114419748Y-46074400D01*
X114886372Y-64740720D02*
X114363868Y-64740720D01*
X114886372Y-66160720D02*
X114363868Y-66160720D01*
X114398692Y-85850800D02*
X113876188Y-85850800D01*
X114398692Y-84430800D02*
X113876188Y-84430800D01*
X110410892Y-23755280D02*
X109888388Y-23755280D01*
X110410892Y-25175280D02*
X109888388Y-25175280D01*
X121756240Y-38555028D02*
X121756240Y-39077532D01*
X120336240Y-38555028D02*
X120336240Y-39077532D01*
X136436468Y-24926360D02*
X136958972Y-24926360D01*
X136436468Y-23506360D02*
X136958972Y-23506360D01*
X136106268Y-46074400D02*
X136628772Y-46074400D01*
X136106268Y-44654400D02*
X136628772Y-44654400D01*
X135638908Y-64740720D02*
X136161412Y-64740720D01*
X135638908Y-66160720D02*
X136161412Y-66160720D01*
X142018652Y-85850800D02*
X141496148Y-85850800D01*
X142018652Y-84430800D02*
X141496148Y-84430800D01*
X141739252Y-24926360D02*
X141216748Y-24926360D01*
X141739252Y-23506360D02*
X141216748Y-23506360D01*
X142054212Y-46074400D02*
X141531708Y-46074400D01*
X142054212Y-44654400D02*
X141531708Y-44654400D01*
X142064372Y-64740720D02*
X141541868Y-64740720D01*
X142064372Y-66160720D02*
X141541868Y-66160720D01*
X135638908Y-85850800D02*
X136161412Y-85850800D01*
X135638908Y-84430800D02*
X136161412Y-84430800D01*
X147443120Y-38411628D02*
X147443120Y-38934132D01*
X148863120Y-38411628D02*
X148863120Y-38934132D01*
X153802582Y-23740040D02*
X154319738Y-23740040D01*
X153802582Y-25160040D02*
X154319738Y-25160040D01*
X153472382Y-46074400D02*
X153989538Y-46074400D01*
X153472382Y-44654400D02*
X153989538Y-44654400D01*
X158856178Y-66160720D02*
X158339022Y-66160720D01*
X158856178Y-64740720D02*
X158339022Y-64740720D01*
X153523182Y-84430800D02*
X154040338Y-84430800D01*
X153523182Y-85850800D02*
X154040338Y-85850800D01*
X158856178Y-23790840D02*
X158339022Y-23790840D01*
X158856178Y-25210840D02*
X158339022Y-25210840D01*
X158856178Y-46074400D02*
X158339022Y-46074400D01*
X158856178Y-44654400D02*
X158339022Y-44654400D01*
X154061662Y-66160720D02*
X154578818Y-66160720D01*
X154061662Y-64740720D02*
X154578818Y-64740720D01*
X158856178Y-84430800D02*
X158339022Y-84430800D01*
X158856178Y-85850800D02*
X158339022Y-85850800D01*
X62916480Y-39880624D02*
X62916480Y-38676496D01*
X61096480Y-39880624D02*
X61096480Y-38676496D01*
X61797520Y-60195544D02*
X61797520Y-58991416D01*
X63617520Y-60195544D02*
X63617520Y-58991416D01*
X63150160Y-79043784D02*
X63150160Y-77839656D01*
X61330160Y-79043784D02*
X61330160Y-77839656D01*
X61330160Y-100027824D02*
X61330160Y-98823696D01*
X63150160Y-100027824D02*
X63150160Y-98823696D01*
X67518960Y-38666336D02*
X67518960Y-39870464D01*
X65698960Y-38666336D02*
X65698960Y-39870464D01*
X65698960Y-58955856D02*
X65698960Y-60159984D01*
X67518960Y-58955856D02*
X67518960Y-60159984D01*
X65231600Y-77839656D02*
X65231600Y-79043784D01*
X67051600Y-77839656D02*
X67051600Y-79043784D01*
X65231600Y-99067536D02*
X65231600Y-100271664D01*
X67051600Y-99067536D02*
X67051600Y-100271664D01*
X178354400Y-99631416D02*
X178354400Y-100835544D01*
X176534400Y-99631416D02*
X176534400Y-100835544D01*
X179187520Y-28303136D02*
X179187520Y-29507264D01*
X177367520Y-28303136D02*
X177367520Y-29507264D01*
X175706360Y-48633296D02*
X175706360Y-49837424D01*
X177526360Y-48633296D02*
X177526360Y-49837424D01*
X177130120Y-68597696D02*
X177130120Y-69801824D01*
X175310120Y-68597696D02*
X175310120Y-69801824D01*
X177546680Y-88643376D02*
X177546680Y-89847504D01*
X175726680Y-88643376D02*
X175726680Y-89847504D01*
X197261564Y-66146000D02*
X196057436Y-66146000D01*
X197261564Y-67966000D02*
X196057436Y-67966000D01*
X173974080Y-29522504D02*
X173974080Y-28318376D01*
X175794080Y-29522504D02*
X175794080Y-28318376D01*
X174452960Y-49862824D02*
X174452960Y-48658696D01*
X172632960Y-49862824D02*
X172632960Y-48658696D01*
X172409440Y-69796744D02*
X172409440Y-68592616D01*
X174229440Y-69796744D02*
X174229440Y-68592616D01*
X174214200Y-89847504D02*
X174214200Y-88643376D01*
X172394200Y-89847504D02*
X172394200Y-88643376D01*
X82889280Y-107851880D02*
X83139280Y-108351880D01*
X83389280Y-107851880D02*
X82889280Y-107851880D01*
X83139280Y-108351880D02*
X83389280Y-107851880D01*
X201999520Y-100686680D02*
X202499520Y-100436680D01*
X201999520Y-100186680D02*
X201999520Y-100686680D01*
X202499520Y-100436680D02*
X201999520Y-100186680D01*
X166751000Y-108118200D02*
X167001000Y-107618200D01*
X167001000Y-107618200D02*
X166501000Y-107618200D01*
X166501000Y-107618200D02*
X166751000Y-108118200D01*
D11*
X146677142Y-107122142D02*
X146629523Y-107169761D01*
X146486666Y-107217380D01*
X146391428Y-107217380D01*
X146248571Y-107169761D01*
X146153333Y-107074523D01*
X146105714Y-106979285D01*
X146058095Y-106788809D01*
X146058095Y-106645952D01*
X146105714Y-106455476D01*
X146153333Y-106360238D01*
X146248571Y-106265000D01*
X146391428Y-106217380D01*
X146486666Y-106217380D01*
X146629523Y-106265000D01*
X146677142Y-106312619D01*
X147010476Y-106217380D02*
X147677142Y-106217380D01*
X147248571Y-107217380D01*
X148581904Y-107217380D02*
X148010476Y-107217380D01*
X148296190Y-107217380D02*
X148296190Y-106217380D01*
X148200952Y-106360238D01*
X148105714Y-106455476D01*
X148010476Y-106503095D01*
X130421142Y-111905142D02*
X130373523Y-111952761D01*
X130230666Y-112000380D01*
X130135428Y-112000380D01*
X129992571Y-111952761D01*
X129897333Y-111857523D01*
X129849714Y-111762285D01*
X129802095Y-111571809D01*
X129802095Y-111428952D01*
X129849714Y-111238476D01*
X129897333Y-111143238D01*
X129992571Y-111048000D01*
X130135428Y-111000380D01*
X130230666Y-111000380D01*
X130373523Y-111048000D01*
X130421142Y-111095619D01*
X131278285Y-111000380D02*
X131087809Y-111000380D01*
X130992571Y-111048000D01*
X130944952Y-111095619D01*
X130849714Y-111238476D01*
X130802095Y-111428952D01*
X130802095Y-111809904D01*
X130849714Y-111905142D01*
X130897333Y-111952761D01*
X130992571Y-112000380D01*
X131183047Y-112000380D01*
X131278285Y-111952761D01*
X131325904Y-111905142D01*
X131373523Y-111809904D01*
X131373523Y-111571809D01*
X131325904Y-111476571D01*
X131278285Y-111428952D01*
X131183047Y-111381333D01*
X130992571Y-111381333D01*
X130897333Y-111428952D01*
X130849714Y-111476571D01*
X130802095Y-111571809D01*
X131992571Y-111000380D02*
X132087809Y-111000380D01*
X132183047Y-111048000D01*
X132230666Y-111095619D01*
X132278285Y-111190857D01*
X132325904Y-111381333D01*
X132325904Y-111619428D01*
X132278285Y-111809904D01*
X132230666Y-111905142D01*
X132183047Y-111952761D01*
X132087809Y-112000380D01*
X131992571Y-112000380D01*
X131897333Y-111952761D01*
X131849714Y-111905142D01*
X131802095Y-111809904D01*
X131754476Y-111619428D01*
X131754476Y-111381333D01*
X131802095Y-111190857D01*
X131849714Y-111095619D01*
X131897333Y-111048000D01*
X131992571Y-111000380D01*
X137445904Y-107296380D02*
X137445904Y-108105904D01*
X137493523Y-108201142D01*
X137541142Y-108248761D01*
X137636380Y-108296380D01*
X137826857Y-108296380D01*
X137922095Y-108248761D01*
X137969714Y-108201142D01*
X138017333Y-108105904D01*
X138017333Y-107296380D01*
X139017333Y-108296380D02*
X138445904Y-108296380D01*
X138731619Y-108296380D02*
X138731619Y-107296380D01*
X138636380Y-107439238D01*
X138541142Y-107534476D01*
X138445904Y-107582095D01*
X139398285Y-107391619D02*
X139445904Y-107344000D01*
X139541142Y-107296380D01*
X139779238Y-107296380D01*
X139874476Y-107344000D01*
X139922095Y-107391619D01*
X139969714Y-107486857D01*
X139969714Y-107582095D01*
X139922095Y-107724952D01*
X139350666Y-108296380D01*
X139969714Y-108296380D01*
X198201642Y-25725357D02*
X198249261Y-25772976D01*
X198296880Y-25915833D01*
X198296880Y-26011071D01*
X198249261Y-26153928D01*
X198154023Y-26249166D01*
X198058785Y-26296785D01*
X197868309Y-26344404D01*
X197725452Y-26344404D01*
X197534976Y-26296785D01*
X197439738Y-26249166D01*
X197344500Y-26153928D01*
X197296880Y-26011071D01*
X197296880Y-25915833D01*
X197344500Y-25772976D01*
X197392119Y-25725357D01*
X197296880Y-24820595D02*
X197296880Y-25296785D01*
X197773071Y-25344404D01*
X197725452Y-25296785D01*
X197677833Y-25201547D01*
X197677833Y-24963452D01*
X197725452Y-24868214D01*
X197773071Y-24820595D01*
X197868309Y-24772976D01*
X198106404Y-24772976D01*
X198201642Y-24820595D01*
X198249261Y-24868214D01*
X198296880Y-24963452D01*
X198296880Y-25201547D01*
X198249261Y-25296785D01*
X198201642Y-25344404D01*
X198296880Y-24296785D02*
X198296880Y-24106309D01*
X198249261Y-24011071D01*
X198201642Y-23963452D01*
X198058785Y-23868214D01*
X197868309Y-23820595D01*
X197487357Y-23820595D01*
X197392119Y-23868214D01*
X197344500Y-23915833D01*
X197296880Y-24011071D01*
X197296880Y-24201547D01*
X197344500Y-24296785D01*
X197392119Y-24344404D01*
X197487357Y-24392023D01*
X197725452Y-24392023D01*
X197820690Y-24344404D01*
X197868309Y-24296785D01*
X197915928Y-24201547D01*
X197915928Y-24011071D01*
X197868309Y-23915833D01*
X197820690Y-23868214D01*
X197725452Y-23820595D01*
X196016642Y-72344642D02*
X195969023Y-72392261D01*
X195826166Y-72439880D01*
X195730928Y-72439880D01*
X195588071Y-72392261D01*
X195492833Y-72297023D01*
X195445214Y-72201785D01*
X195397595Y-72011309D01*
X195397595Y-71868452D01*
X195445214Y-71677976D01*
X195492833Y-71582738D01*
X195588071Y-71487500D01*
X195730928Y-71439880D01*
X195826166Y-71439880D01*
X195969023Y-71487500D01*
X196016642Y-71535119D01*
X196921404Y-71439880D02*
X196445214Y-71439880D01*
X196397595Y-71916071D01*
X196445214Y-71868452D01*
X196540452Y-71820833D01*
X196778547Y-71820833D01*
X196873785Y-71868452D01*
X196921404Y-71916071D01*
X196969023Y-72011309D01*
X196969023Y-72249404D01*
X196921404Y-72344642D01*
X196873785Y-72392261D01*
X196778547Y-72439880D01*
X196540452Y-72439880D01*
X196445214Y-72392261D01*
X196397595Y-72344642D01*
X197540452Y-71868452D02*
X197445214Y-71820833D01*
X197397595Y-71773214D01*
X197349976Y-71677976D01*
X197349976Y-71630357D01*
X197397595Y-71535119D01*
X197445214Y-71487500D01*
X197540452Y-71439880D01*
X197730928Y-71439880D01*
X197826166Y-71487500D01*
X197873785Y-71535119D01*
X197921404Y-71630357D01*
X197921404Y-71677976D01*
X197873785Y-71773214D01*
X197826166Y-71820833D01*
X197730928Y-71868452D01*
X197540452Y-71868452D01*
X197445214Y-71916071D01*
X197397595Y-71963690D01*
X197349976Y-72058928D01*
X197349976Y-72249404D01*
X197397595Y-72344642D01*
X197445214Y-72392261D01*
X197540452Y-72439880D01*
X197730928Y-72439880D01*
X197826166Y-72392261D01*
X197873785Y-72344642D01*
X197921404Y-72249404D01*
X197921404Y-72058928D01*
X197873785Y-71963690D01*
X197826166Y-71916071D01*
X197730928Y-71868452D01*
X188182404Y-70595380D02*
X188182404Y-71404904D01*
X188230023Y-71500142D01*
X188277642Y-71547761D01*
X188372880Y-71595380D01*
X188563357Y-71595380D01*
X188658595Y-71547761D01*
X188706214Y-71500142D01*
X188753833Y-71404904D01*
X188753833Y-70595380D01*
X189753833Y-71595380D02*
X189182404Y-71595380D01*
X189468119Y-71595380D02*
X189468119Y-70595380D01*
X189372880Y-70738238D01*
X189277642Y-70833476D01*
X189182404Y-70881095D01*
X190706214Y-71595380D02*
X190134785Y-71595380D01*
X190420500Y-71595380D02*
X190420500Y-70595380D01*
X190325261Y-70738238D01*
X190230023Y-70833476D01*
X190134785Y-70881095D01*
X187547404Y-24303880D02*
X187547404Y-25113404D01*
X187595023Y-25208642D01*
X187642642Y-25256261D01*
X187737880Y-25303880D01*
X187928357Y-25303880D01*
X188023595Y-25256261D01*
X188071214Y-25208642D01*
X188118833Y-25113404D01*
X188118833Y-24303880D01*
X189118833Y-25303880D02*
X188547404Y-25303880D01*
X188833119Y-25303880D02*
X188833119Y-24303880D01*
X188737880Y-24446738D01*
X188642642Y-24541976D01*
X188547404Y-24589595D01*
X189737880Y-24303880D02*
X189833119Y-24303880D01*
X189928357Y-24351500D01*
X189975976Y-24399119D01*
X190023595Y-24494357D01*
X190071214Y-24684833D01*
X190071214Y-24922928D01*
X190023595Y-25113404D01*
X189975976Y-25208642D01*
X189928357Y-25256261D01*
X189833119Y-25303880D01*
X189737880Y-25303880D01*
X189642642Y-25256261D01*
X189595023Y-25208642D01*
X189547404Y-25113404D01*
X189499785Y-24922928D01*
X189499785Y-24684833D01*
X189547404Y-24494357D01*
X189595023Y-24399119D01*
X189642642Y-24351500D01*
X189737880Y-24303880D01*
X89764182Y-57195317D02*
X89811801Y-57242936D01*
X89859420Y-57385793D01*
X89859420Y-57481031D01*
X89811801Y-57623888D01*
X89716563Y-57719126D01*
X89621325Y-57766745D01*
X89430849Y-57814364D01*
X89287992Y-57814364D01*
X89097516Y-57766745D01*
X89002278Y-57719126D01*
X88907040Y-57623888D01*
X88859420Y-57481031D01*
X88859420Y-57385793D01*
X88907040Y-57242936D01*
X88954659Y-57195317D01*
X89859420Y-56242936D02*
X89859420Y-56814364D01*
X89859420Y-56528650D02*
X88859420Y-56528650D01*
X89002278Y-56623888D01*
X89097516Y-56719126D01*
X89145135Y-56814364D01*
X89859420Y-55290555D02*
X89859420Y-55861983D01*
X89859420Y-55576269D02*
X88859420Y-55576269D01*
X89002278Y-55671507D01*
X89097516Y-55766745D01*
X89145135Y-55861983D01*
X93256642Y-49155646D02*
X93304261Y-49203265D01*
X93351880Y-49346122D01*
X93351880Y-49441360D01*
X93304261Y-49584218D01*
X93209023Y-49679456D01*
X93113785Y-49727075D01*
X92923309Y-49774694D01*
X92780452Y-49774694D01*
X92589976Y-49727075D01*
X92494738Y-49679456D01*
X92399500Y-49584218D01*
X92351880Y-49441360D01*
X92351880Y-49346122D01*
X92399500Y-49203265D01*
X92447119Y-49155646D01*
X92351880Y-48298503D02*
X92351880Y-48488980D01*
X92399500Y-48584218D01*
X92447119Y-48631837D01*
X92589976Y-48727075D01*
X92780452Y-48774694D01*
X93161404Y-48774694D01*
X93256642Y-48727075D01*
X93304261Y-48679456D01*
X93351880Y-48584218D01*
X93351880Y-48393741D01*
X93304261Y-48298503D01*
X93256642Y-48250884D01*
X93161404Y-48203265D01*
X92923309Y-48203265D01*
X92828071Y-48250884D01*
X92780452Y-48298503D01*
X92732833Y-48393741D01*
X92732833Y-48584218D01*
X92780452Y-48679456D01*
X92828071Y-48727075D01*
X92923309Y-48774694D01*
X186783742Y-89080522D02*
X186736123Y-89128141D01*
X186593266Y-89175760D01*
X186498028Y-89175760D01*
X186355171Y-89128141D01*
X186259933Y-89032903D01*
X186212314Y-88937665D01*
X186164695Y-88747189D01*
X186164695Y-88604332D01*
X186212314Y-88413856D01*
X186259933Y-88318618D01*
X186355171Y-88223380D01*
X186498028Y-88175760D01*
X186593266Y-88175760D01*
X186736123Y-88223380D01*
X186783742Y-88270999D01*
X187688504Y-88175760D02*
X187212314Y-88175760D01*
X187164695Y-88651951D01*
X187212314Y-88604332D01*
X187307552Y-88556713D01*
X187545647Y-88556713D01*
X187640885Y-88604332D01*
X187688504Y-88651951D01*
X187736123Y-88747189D01*
X187736123Y-88985284D01*
X187688504Y-89080522D01*
X187640885Y-89128141D01*
X187545647Y-89175760D01*
X187307552Y-89175760D01*
X187212314Y-89128141D01*
X187164695Y-89080522D01*
X188069457Y-88175760D02*
X188736123Y-88175760D01*
X188307552Y-89175760D01*
X78068535Y-85340700D02*
X78639963Y-85340700D01*
X78354249Y-86340700D02*
X78354249Y-85340700D01*
X79401868Y-85674034D02*
X79401868Y-86340700D01*
X79163773Y-85293081D02*
X78925678Y-86007367D01*
X79544725Y-86007367D01*
X106309133Y-103905820D02*
X105832942Y-103905820D01*
X105832942Y-102905820D01*
X107071038Y-103239154D02*
X107071038Y-103905820D01*
X106832942Y-102858201D02*
X106594847Y-103572487D01*
X107213895Y-103572487D01*
X205686066Y-49694980D02*
X205686066Y-50409266D01*
X205638447Y-50552123D01*
X205543209Y-50647361D01*
X205400352Y-50694980D01*
X205305114Y-50694980D01*
X206638447Y-49694980D02*
X206162257Y-49694980D01*
X206114638Y-50171171D01*
X206162257Y-50123552D01*
X206257495Y-50075933D01*
X206495590Y-50075933D01*
X206590828Y-50123552D01*
X206638447Y-50171171D01*
X206686066Y-50266409D01*
X206686066Y-50504504D01*
X206638447Y-50599742D01*
X206590828Y-50647361D01*
X206495590Y-50694980D01*
X206257495Y-50694980D01*
X206162257Y-50647361D01*
X206114638Y-50599742D01*
X200741642Y-25725357D02*
X200789261Y-25772976D01*
X200836880Y-25915833D01*
X200836880Y-26011071D01*
X200789261Y-26153928D01*
X200694023Y-26249166D01*
X200598785Y-26296785D01*
X200408309Y-26344404D01*
X200265452Y-26344404D01*
X200074976Y-26296785D01*
X199979738Y-26249166D01*
X199884500Y-26153928D01*
X199836880Y-26011071D01*
X199836880Y-25915833D01*
X199884500Y-25772976D01*
X199932119Y-25725357D01*
X200170214Y-24868214D02*
X200836880Y-24868214D01*
X199789261Y-25106309D02*
X200503547Y-25344404D01*
X200503547Y-24725357D01*
X200265452Y-24201547D02*
X200217833Y-24296785D01*
X200170214Y-24344404D01*
X200074976Y-24392023D01*
X200027357Y-24392023D01*
X199932119Y-24344404D01*
X199884500Y-24296785D01*
X199836880Y-24201547D01*
X199836880Y-24011071D01*
X199884500Y-23915833D01*
X199932119Y-23868214D01*
X200027357Y-23820595D01*
X200074976Y-23820595D01*
X200170214Y-23868214D01*
X200217833Y-23915833D01*
X200265452Y-24011071D01*
X200265452Y-24201547D01*
X200313071Y-24296785D01*
X200360690Y-24344404D01*
X200455928Y-24392023D01*
X200646404Y-24392023D01*
X200741642Y-24344404D01*
X200789261Y-24296785D01*
X200836880Y-24201547D01*
X200836880Y-24011071D01*
X200789261Y-23915833D01*
X200741642Y-23868214D01*
X200646404Y-23820595D01*
X200455928Y-23820595D01*
X200360690Y-23868214D01*
X200313071Y-23915833D01*
X200265452Y-24011071D01*
X174208535Y-36454420D02*
X174208535Y-37263944D01*
X174256154Y-37359182D01*
X174303773Y-37406801D01*
X174399011Y-37454420D01*
X174589487Y-37454420D01*
X174684725Y-37406801D01*
X174732344Y-37359182D01*
X174779963Y-37263944D01*
X174779963Y-36454420D01*
X175732344Y-36454420D02*
X175256154Y-36454420D01*
X175208535Y-36930611D01*
X175256154Y-36882992D01*
X175351392Y-36835373D01*
X175589487Y-36835373D01*
X175684725Y-36882992D01*
X175732344Y-36930611D01*
X175779963Y-37025849D01*
X175779963Y-37263944D01*
X175732344Y-37359182D01*
X175684725Y-37406801D01*
X175589487Y-37454420D01*
X175351392Y-37454420D01*
X175256154Y-37406801D01*
X175208535Y-37359182D01*
X198177826Y-49689900D02*
X198177826Y-50404186D01*
X198130207Y-50547043D01*
X198034969Y-50642281D01*
X197892112Y-50689900D01*
X197796874Y-50689900D01*
X199082588Y-50023234D02*
X199082588Y-50689900D01*
X198844493Y-49642281D02*
X198606398Y-50356567D01*
X199225445Y-50356567D01*
X106994933Y-43056520D02*
X106518742Y-43056520D01*
X106518742Y-42056520D01*
X107852076Y-43056520D02*
X107280647Y-43056520D01*
X107566361Y-43056520D02*
X107566361Y-42056520D01*
X107471123Y-42199378D01*
X107375885Y-42294616D01*
X107280647Y-42342235D01*
X134317173Y-43056520D02*
X133840982Y-43056520D01*
X133840982Y-42056520D01*
X135126697Y-42056520D02*
X134650506Y-42056520D01*
X134602887Y-42532711D01*
X134650506Y-42485092D01*
X134745744Y-42437473D01*
X134983840Y-42437473D01*
X135079078Y-42485092D01*
X135126697Y-42532711D01*
X135174316Y-42627949D01*
X135174316Y-42866044D01*
X135126697Y-42961282D01*
X135079078Y-43008901D01*
X134983840Y-43056520D01*
X134745744Y-43056520D01*
X134650506Y-43008901D01*
X134602887Y-42961282D01*
X89433982Y-30935586D02*
X89481601Y-30983205D01*
X89529220Y-31126062D01*
X89529220Y-31221300D01*
X89481601Y-31364158D01*
X89386363Y-31459396D01*
X89291125Y-31507015D01*
X89100649Y-31554634D01*
X88957792Y-31554634D01*
X88767316Y-31507015D01*
X88672078Y-31459396D01*
X88576840Y-31364158D01*
X88529220Y-31221300D01*
X88529220Y-31126062D01*
X88576840Y-30983205D01*
X88624459Y-30935586D01*
X89529220Y-30459396D02*
X89529220Y-30268920D01*
X89481601Y-30173681D01*
X89433982Y-30126062D01*
X89291125Y-30030824D01*
X89100649Y-29983205D01*
X88719697Y-29983205D01*
X88624459Y-30030824D01*
X88576840Y-30078443D01*
X88529220Y-30173681D01*
X88529220Y-30364158D01*
X88576840Y-30459396D01*
X88624459Y-30507015D01*
X88719697Y-30554634D01*
X88957792Y-30554634D01*
X89053030Y-30507015D01*
X89100649Y-30459396D01*
X89148268Y-30364158D01*
X89148268Y-30173681D01*
X89100649Y-30078443D01*
X89053030Y-30030824D01*
X88957792Y-29983205D01*
X117704182Y-31564177D02*
X117751801Y-31611796D01*
X117799420Y-31754653D01*
X117799420Y-31849891D01*
X117751801Y-31992748D01*
X117656563Y-32087986D01*
X117561325Y-32135605D01*
X117370849Y-32183224D01*
X117227992Y-32183224D01*
X117037516Y-32135605D01*
X116942278Y-32087986D01*
X116847040Y-31992748D01*
X116799420Y-31849891D01*
X116799420Y-31754653D01*
X116847040Y-31611796D01*
X116894659Y-31564177D01*
X116894659Y-31183224D02*
X116847040Y-31135605D01*
X116799420Y-31040367D01*
X116799420Y-30802272D01*
X116847040Y-30707034D01*
X116894659Y-30659415D01*
X116989897Y-30611796D01*
X117085135Y-30611796D01*
X117227992Y-30659415D01*
X117799420Y-31230843D01*
X117799420Y-30611796D01*
X116894659Y-30230843D02*
X116847040Y-30183224D01*
X116799420Y-30087986D01*
X116799420Y-29849891D01*
X116847040Y-29754653D01*
X116894659Y-29707034D01*
X116989897Y-29659415D01*
X117085135Y-29659415D01*
X117227992Y-29707034D01*
X117799420Y-30278462D01*
X117799420Y-29659415D01*
X144760262Y-31493057D02*
X144807881Y-31540676D01*
X144855500Y-31683533D01*
X144855500Y-31778771D01*
X144807881Y-31921628D01*
X144712643Y-32016866D01*
X144617405Y-32064485D01*
X144426929Y-32112104D01*
X144284072Y-32112104D01*
X144093596Y-32064485D01*
X143998358Y-32016866D01*
X143903120Y-31921628D01*
X143855500Y-31778771D01*
X143855500Y-31683533D01*
X143903120Y-31540676D01*
X143950739Y-31493057D01*
X143855500Y-31159723D02*
X143855500Y-30540676D01*
X144236453Y-30874009D01*
X144236453Y-30731152D01*
X144284072Y-30635914D01*
X144331691Y-30588295D01*
X144426929Y-30540676D01*
X144665024Y-30540676D01*
X144760262Y-30588295D01*
X144807881Y-30635914D01*
X144855500Y-30731152D01*
X144855500Y-31016866D01*
X144807881Y-31112104D01*
X144760262Y-31159723D01*
X143855500Y-29635914D02*
X143855500Y-30112104D01*
X144331691Y-30159723D01*
X144284072Y-30112104D01*
X144236453Y-30016866D01*
X144236453Y-29778771D01*
X144284072Y-29683533D01*
X144331691Y-29635914D01*
X144426929Y-29588295D01*
X144665024Y-29588295D01*
X144760262Y-29635914D01*
X144807881Y-29683533D01*
X144855500Y-29778771D01*
X144855500Y-30016866D01*
X144807881Y-30112104D01*
X144760262Y-30159723D01*
X117180942Y-52031497D02*
X117228561Y-52079116D01*
X117276180Y-52221973D01*
X117276180Y-52317211D01*
X117228561Y-52460068D01*
X117133323Y-52555306D01*
X117038085Y-52602925D01*
X116847609Y-52650544D01*
X116704752Y-52650544D01*
X116514276Y-52602925D01*
X116419038Y-52555306D01*
X116323800Y-52460068D01*
X116276180Y-52317211D01*
X116276180Y-52221973D01*
X116323800Y-52079116D01*
X116371419Y-52031497D01*
X116371419Y-51650544D02*
X116323800Y-51602925D01*
X116276180Y-51507687D01*
X116276180Y-51269592D01*
X116323800Y-51174354D01*
X116371419Y-51126735D01*
X116466657Y-51079116D01*
X116561895Y-51079116D01*
X116704752Y-51126735D01*
X117276180Y-51698163D01*
X117276180Y-51079116D01*
X116609514Y-50221973D02*
X117276180Y-50221973D01*
X116228561Y-50460068D02*
X116942847Y-50698163D01*
X116942847Y-50079116D01*
X144734862Y-52041657D02*
X144782481Y-52089276D01*
X144830100Y-52232133D01*
X144830100Y-52327371D01*
X144782481Y-52470228D01*
X144687243Y-52565466D01*
X144592005Y-52613085D01*
X144401529Y-52660704D01*
X144258672Y-52660704D01*
X144068196Y-52613085D01*
X143972958Y-52565466D01*
X143877720Y-52470228D01*
X143830100Y-52327371D01*
X143830100Y-52232133D01*
X143877720Y-52089276D01*
X143925339Y-52041657D01*
X143830100Y-51708323D02*
X143830100Y-51089276D01*
X144211053Y-51422609D01*
X144211053Y-51279752D01*
X144258672Y-51184514D01*
X144306291Y-51136895D01*
X144401529Y-51089276D01*
X144639624Y-51089276D01*
X144734862Y-51136895D01*
X144782481Y-51184514D01*
X144830100Y-51279752D01*
X144830100Y-51565466D01*
X144782481Y-51660704D01*
X144734862Y-51708323D01*
X143830100Y-50755942D02*
X143830100Y-50089276D01*
X144830100Y-50517847D01*
X89764182Y-72803617D02*
X89811801Y-72851236D01*
X89859420Y-72994093D01*
X89859420Y-73089331D01*
X89811801Y-73232188D01*
X89716563Y-73327426D01*
X89621325Y-73375045D01*
X89430849Y-73422664D01*
X89287992Y-73422664D01*
X89097516Y-73375045D01*
X89002278Y-73327426D01*
X88907040Y-73232188D01*
X88859420Y-73089331D01*
X88859420Y-72994093D01*
X88907040Y-72851236D01*
X88954659Y-72803617D01*
X89859420Y-71851236D02*
X89859420Y-72422664D01*
X89859420Y-72136950D02*
X88859420Y-72136950D01*
X89002278Y-72232188D01*
X89097516Y-72327426D01*
X89145135Y-72422664D01*
X88954659Y-71470283D02*
X88907040Y-71422664D01*
X88859420Y-71327426D01*
X88859420Y-71089331D01*
X88907040Y-70994093D01*
X88954659Y-70946474D01*
X89049897Y-70898855D01*
X89145135Y-70898855D01*
X89287992Y-70946474D01*
X89859420Y-71517902D01*
X89859420Y-70898855D01*
X117074262Y-72798537D02*
X117121881Y-72846156D01*
X117169500Y-72989013D01*
X117169500Y-73084251D01*
X117121881Y-73227108D01*
X117026643Y-73322346D01*
X116931405Y-73369965D01*
X116740929Y-73417584D01*
X116598072Y-73417584D01*
X116407596Y-73369965D01*
X116312358Y-73322346D01*
X116217120Y-73227108D01*
X116169500Y-73084251D01*
X116169500Y-72989013D01*
X116217120Y-72846156D01*
X116264739Y-72798537D01*
X116264739Y-72417584D02*
X116217120Y-72369965D01*
X116169500Y-72274727D01*
X116169500Y-72036632D01*
X116217120Y-71941394D01*
X116264739Y-71893775D01*
X116359977Y-71846156D01*
X116455215Y-71846156D01*
X116598072Y-71893775D01*
X117169500Y-72465203D01*
X117169500Y-71846156D01*
X116169500Y-70941394D02*
X116169500Y-71417584D01*
X116645691Y-71465203D01*
X116598072Y-71417584D01*
X116550453Y-71322346D01*
X116550453Y-71084251D01*
X116598072Y-70989013D01*
X116645691Y-70941394D01*
X116740929Y-70893775D01*
X116979024Y-70893775D01*
X117074262Y-70941394D01*
X117121881Y-70989013D01*
X117169500Y-71084251D01*
X117169500Y-71322346D01*
X117121881Y-71417584D01*
X117074262Y-71465203D01*
X144648502Y-72834097D02*
X144696121Y-72881716D01*
X144743740Y-73024573D01*
X144743740Y-73119811D01*
X144696121Y-73262668D01*
X144600883Y-73357906D01*
X144505645Y-73405525D01*
X144315169Y-73453144D01*
X144172312Y-73453144D01*
X143981836Y-73405525D01*
X143886598Y-73357906D01*
X143791360Y-73262668D01*
X143743740Y-73119811D01*
X143743740Y-73024573D01*
X143791360Y-72881716D01*
X143838979Y-72834097D01*
X143743740Y-72500763D02*
X143743740Y-71881716D01*
X144124693Y-72215049D01*
X144124693Y-72072192D01*
X144172312Y-71976954D01*
X144219931Y-71929335D01*
X144315169Y-71881716D01*
X144553264Y-71881716D01*
X144648502Y-71929335D01*
X144696121Y-71976954D01*
X144743740Y-72072192D01*
X144743740Y-72357906D01*
X144696121Y-72453144D01*
X144648502Y-72500763D01*
X144172312Y-71310287D02*
X144124693Y-71405525D01*
X144077074Y-71453144D01*
X143981836Y-71500763D01*
X143934217Y-71500763D01*
X143838979Y-71453144D01*
X143791360Y-71405525D01*
X143743740Y-71310287D01*
X143743740Y-71119811D01*
X143791360Y-71024573D01*
X143838979Y-70976954D01*
X143934217Y-70929335D01*
X143981836Y-70929335D01*
X144077074Y-70976954D01*
X144124693Y-71024573D01*
X144172312Y-71119811D01*
X144172312Y-71310287D01*
X144219931Y-71405525D01*
X144267550Y-71453144D01*
X144362788Y-71500763D01*
X144553264Y-71500763D01*
X144648502Y-71453144D01*
X144696121Y-71405525D01*
X144743740Y-71310287D01*
X144743740Y-71119811D01*
X144696121Y-71024573D01*
X144648502Y-70976954D01*
X144553264Y-70929335D01*
X144362788Y-70929335D01*
X144267550Y-70976954D01*
X144219931Y-71024573D01*
X144172312Y-71119811D01*
X106608853Y-63707620D02*
X106132662Y-63707620D01*
X106132662Y-62707620D01*
X106894567Y-62802859D02*
X106942186Y-62755240D01*
X107037424Y-62707620D01*
X107275520Y-62707620D01*
X107370758Y-62755240D01*
X107418377Y-62802859D01*
X107465996Y-62898097D01*
X107465996Y-62993335D01*
X107418377Y-63136192D01*
X106846948Y-63707620D01*
X107465996Y-63707620D01*
X133931093Y-63707620D02*
X133454902Y-63707620D01*
X133454902Y-62707620D01*
X134692998Y-62707620D02*
X134502521Y-62707620D01*
X134407283Y-62755240D01*
X134359664Y-62802859D01*
X134264426Y-62945716D01*
X134216807Y-63136192D01*
X134216807Y-63517144D01*
X134264426Y-63612382D01*
X134312045Y-63660001D01*
X134407283Y-63707620D01*
X134597760Y-63707620D01*
X134692998Y-63660001D01*
X134740617Y-63612382D01*
X134788236Y-63517144D01*
X134788236Y-63279049D01*
X134740617Y-63183811D01*
X134692998Y-63136192D01*
X134597760Y-63088573D01*
X134407283Y-63088573D01*
X134312045Y-63136192D01*
X134264426Y-63183811D01*
X134216807Y-63279049D01*
X106649493Y-83695020D02*
X106173302Y-83695020D01*
X106173302Y-82695020D01*
X106887588Y-82695020D02*
X107506636Y-82695020D01*
X107173302Y-83075973D01*
X107316160Y-83075973D01*
X107411398Y-83123592D01*
X107459017Y-83171211D01*
X107506636Y-83266449D01*
X107506636Y-83504544D01*
X107459017Y-83599782D01*
X107411398Y-83647401D01*
X107316160Y-83695020D01*
X107030445Y-83695020D01*
X106935207Y-83647401D01*
X106887588Y-83599782D01*
X133971733Y-83695020D02*
X133495542Y-83695020D01*
X133495542Y-82695020D01*
X134209828Y-82695020D02*
X134876495Y-82695020D01*
X134447923Y-83695020D01*
X78419055Y-24568660D02*
X78990483Y-24568660D01*
X78704769Y-25568660D02*
X78704769Y-24568660D01*
X79847626Y-25568660D02*
X79276198Y-25568660D01*
X79561912Y-25568660D02*
X79561912Y-24568660D01*
X79466674Y-24711518D01*
X79371436Y-24806756D01*
X79276198Y-24854375D01*
X161458735Y-42056520D02*
X162030163Y-42056520D01*
X161744449Y-43056520D02*
X161744449Y-42056520D01*
X162839687Y-42056520D02*
X162363497Y-42056520D01*
X162315878Y-42532711D01*
X162363497Y-42485092D01*
X162458735Y-42437473D01*
X162696830Y-42437473D01*
X162792068Y-42485092D01*
X162839687Y-42532711D01*
X162887306Y-42627949D01*
X162887306Y-42866044D01*
X162839687Y-42961282D01*
X162792068Y-43008901D01*
X162696830Y-43056520D01*
X162458735Y-43056520D01*
X162363497Y-43008901D01*
X162315878Y-42961282D01*
X78632415Y-45320460D02*
X79203843Y-45320460D01*
X78918129Y-46320460D02*
X78918129Y-45320460D01*
X79489558Y-45415699D02*
X79537177Y-45368080D01*
X79632415Y-45320460D01*
X79870510Y-45320460D01*
X79965748Y-45368080D01*
X80013367Y-45415699D01*
X80060986Y-45510937D01*
X80060986Y-45606175D01*
X80013367Y-45749032D01*
X79441939Y-46320460D01*
X80060986Y-46320460D01*
X161072655Y-62707620D02*
X161644083Y-62707620D01*
X161358369Y-63707620D02*
X161358369Y-62707620D01*
X162405988Y-62707620D02*
X162215512Y-62707620D01*
X162120274Y-62755240D01*
X162072655Y-62802859D01*
X161977417Y-62945716D01*
X161929798Y-63136192D01*
X161929798Y-63517144D01*
X161977417Y-63612382D01*
X162025036Y-63660001D01*
X162120274Y-63707620D01*
X162310750Y-63707620D01*
X162405988Y-63660001D01*
X162453607Y-63612382D01*
X162501226Y-63517144D01*
X162501226Y-63279049D01*
X162453607Y-63183811D01*
X162405988Y-63136192D01*
X162310750Y-63088573D01*
X162120274Y-63088573D01*
X162025036Y-63136192D01*
X161977417Y-63183811D01*
X161929798Y-63279049D01*
X78459695Y-65295020D02*
X79031123Y-65295020D01*
X78745409Y-66295020D02*
X78745409Y-65295020D01*
X79269219Y-65295020D02*
X79888266Y-65295020D01*
X79554933Y-65675973D01*
X79697790Y-65675973D01*
X79793028Y-65723592D01*
X79840647Y-65771211D01*
X79888266Y-65866449D01*
X79888266Y-66104544D01*
X79840647Y-66199782D01*
X79793028Y-66247401D01*
X79697790Y-66295020D01*
X79412076Y-66295020D01*
X79316838Y-66247401D01*
X79269219Y-66199782D01*
X161113295Y-82695020D02*
X161684723Y-82695020D01*
X161399009Y-83695020D02*
X161399009Y-82695020D01*
X161922819Y-82695020D02*
X162589485Y-82695020D01*
X162160914Y-83695020D01*
X89469542Y-92231177D02*
X89517161Y-92278796D01*
X89564780Y-92421653D01*
X89564780Y-92516891D01*
X89517161Y-92659748D01*
X89421923Y-92754986D01*
X89326685Y-92802605D01*
X89136209Y-92850224D01*
X88993352Y-92850224D01*
X88802876Y-92802605D01*
X88707638Y-92754986D01*
X88612400Y-92659748D01*
X88564780Y-92516891D01*
X88564780Y-92421653D01*
X88612400Y-92278796D01*
X88660019Y-92231177D01*
X89564780Y-91278796D02*
X89564780Y-91850224D01*
X89564780Y-91564510D02*
X88564780Y-91564510D01*
X88707638Y-91659748D01*
X88802876Y-91754986D01*
X88850495Y-91850224D01*
X88564780Y-90945462D02*
X88564780Y-90326415D01*
X88945733Y-90659748D01*
X88945733Y-90516891D01*
X88993352Y-90421653D01*
X89040971Y-90374034D01*
X89136209Y-90326415D01*
X89374304Y-90326415D01*
X89469542Y-90374034D01*
X89517161Y-90421653D01*
X89564780Y-90516891D01*
X89564780Y-90802605D01*
X89517161Y-90897843D01*
X89469542Y-90945462D01*
X116251302Y-92231177D02*
X116298921Y-92278796D01*
X116346540Y-92421653D01*
X116346540Y-92516891D01*
X116298921Y-92659748D01*
X116203683Y-92754986D01*
X116108445Y-92802605D01*
X115917969Y-92850224D01*
X115775112Y-92850224D01*
X115584636Y-92802605D01*
X115489398Y-92754986D01*
X115394160Y-92659748D01*
X115346540Y-92516891D01*
X115346540Y-92421653D01*
X115394160Y-92278796D01*
X115441779Y-92231177D01*
X115441779Y-91850224D02*
X115394160Y-91802605D01*
X115346540Y-91707367D01*
X115346540Y-91469272D01*
X115394160Y-91374034D01*
X115441779Y-91326415D01*
X115537017Y-91278796D01*
X115632255Y-91278796D01*
X115775112Y-91326415D01*
X116346540Y-91897843D01*
X116346540Y-91278796D01*
X115346540Y-90421653D02*
X115346540Y-90612129D01*
X115394160Y-90707367D01*
X115441779Y-90754986D01*
X115584636Y-90850224D01*
X115775112Y-90897843D01*
X116156064Y-90897843D01*
X116251302Y-90850224D01*
X116298921Y-90802605D01*
X116346540Y-90707367D01*
X116346540Y-90516891D01*
X116298921Y-90421653D01*
X116251302Y-90374034D01*
X116156064Y-90326415D01*
X115917969Y-90326415D01*
X115822731Y-90374034D01*
X115775112Y-90421653D01*
X115727493Y-90516891D01*
X115727493Y-90707367D01*
X115775112Y-90802605D01*
X115822731Y-90850224D01*
X115917969Y-90897843D01*
X151665902Y-92042857D02*
X151713521Y-92090476D01*
X151761140Y-92233333D01*
X151761140Y-92328571D01*
X151713521Y-92471428D01*
X151618283Y-92566666D01*
X151523045Y-92614285D01*
X151332569Y-92661904D01*
X151189712Y-92661904D01*
X150999236Y-92614285D01*
X150903998Y-92566666D01*
X150808760Y-92471428D01*
X150761140Y-92328571D01*
X150761140Y-92233333D01*
X150808760Y-92090476D01*
X150856379Y-92042857D01*
X150761140Y-91709523D02*
X150761140Y-91090476D01*
X151142093Y-91423809D01*
X151142093Y-91280952D01*
X151189712Y-91185714D01*
X151237331Y-91138095D01*
X151332569Y-91090476D01*
X151570664Y-91090476D01*
X151665902Y-91138095D01*
X151713521Y-91185714D01*
X151761140Y-91280952D01*
X151761140Y-91566666D01*
X151713521Y-91661904D01*
X151665902Y-91709523D01*
X151761140Y-90614285D02*
X151761140Y-90423809D01*
X151713521Y-90328571D01*
X151665902Y-90280952D01*
X151523045Y-90185714D01*
X151332569Y-90138095D01*
X150951617Y-90138095D01*
X150856379Y-90185714D01*
X150808760Y-90233333D01*
X150761140Y-90328571D01*
X150761140Y-90519047D01*
X150808760Y-90614285D01*
X150856379Y-90661904D01*
X150951617Y-90709523D01*
X151189712Y-90709523D01*
X151284950Y-90661904D01*
X151332569Y-90614285D01*
X151380188Y-90519047D01*
X151380188Y-90328571D01*
X151332569Y-90233333D01*
X151284950Y-90185714D01*
X151189712Y-90138095D01*
X63857546Y-102185020D02*
X63857546Y-102899306D01*
X63809927Y-103042163D01*
X63714689Y-103137401D01*
X63571832Y-103185020D01*
X63476594Y-103185020D01*
X64857546Y-103185020D02*
X64286118Y-103185020D01*
X64571832Y-103185020D02*
X64571832Y-102185020D01*
X64476594Y-102327878D01*
X64381356Y-102423116D01*
X64286118Y-102470735D01*
X187428546Y-102022460D02*
X187428546Y-102736746D01*
X187380927Y-102879603D01*
X187285689Y-102974841D01*
X187142832Y-103022460D01*
X187047594Y-103022460D01*
X187857118Y-102117699D02*
X187904737Y-102070080D01*
X187999975Y-102022460D01*
X188238070Y-102022460D01*
X188333308Y-102070080D01*
X188380927Y-102117699D01*
X188428546Y-102212937D01*
X188428546Y-102308175D01*
X188380927Y-102451032D01*
X187809499Y-103022460D01*
X188428546Y-103022460D01*
X177268546Y-102185020D02*
X177268546Y-102899306D01*
X177220927Y-103042163D01*
X177125689Y-103137401D01*
X176982832Y-103185020D01*
X176887594Y-103185020D01*
X177649499Y-102185020D02*
X178268546Y-102185020D01*
X177935213Y-102565973D01*
X178078070Y-102565973D01*
X178173308Y-102613592D01*
X178220927Y-102661211D01*
X178268546Y-102756449D01*
X178268546Y-102994544D01*
X178220927Y-103089782D01*
X178173308Y-103137401D01*
X178078070Y-103185020D01*
X177792356Y-103185020D01*
X177697118Y-103137401D01*
X177649499Y-103089782D01*
X133631373Y-103763580D02*
X133155182Y-103763580D01*
X133155182Y-102763580D01*
X134107563Y-103192152D02*
X134012325Y-103144533D01*
X133964706Y-103096914D01*
X133917087Y-103001676D01*
X133917087Y-102954057D01*
X133964706Y-102858819D01*
X134012325Y-102811200D01*
X134107563Y-102763580D01*
X134298040Y-102763580D01*
X134393278Y-102811200D01*
X134440897Y-102858819D01*
X134488516Y-102954057D01*
X134488516Y-103001676D01*
X134440897Y-103096914D01*
X134393278Y-103144533D01*
X134298040Y-103192152D01*
X134107563Y-103192152D01*
X134012325Y-103239771D01*
X133964706Y-103287390D01*
X133917087Y-103382628D01*
X133917087Y-103573104D01*
X133964706Y-103668342D01*
X134012325Y-103715961D01*
X134107563Y-103763580D01*
X134298040Y-103763580D01*
X134393278Y-103715961D01*
X134440897Y-103668342D01*
X134488516Y-103573104D01*
X134488516Y-103382628D01*
X134440897Y-103287390D01*
X134393278Y-103239771D01*
X134298040Y-103192152D01*
X161037095Y-102682300D02*
X161608523Y-102682300D01*
X161322809Y-103682300D02*
X161322809Y-102682300D01*
X162084714Y-103110872D02*
X161989476Y-103063253D01*
X161941857Y-103015634D01*
X161894238Y-102920396D01*
X161894238Y-102872777D01*
X161941857Y-102777539D01*
X161989476Y-102729920D01*
X162084714Y-102682300D01*
X162275190Y-102682300D01*
X162370428Y-102729920D01*
X162418047Y-102777539D01*
X162465666Y-102872777D01*
X162465666Y-102920396D01*
X162418047Y-103015634D01*
X162370428Y-103063253D01*
X162275190Y-103110872D01*
X162084714Y-103110872D01*
X161989476Y-103158491D01*
X161941857Y-103206110D01*
X161894238Y-103301348D01*
X161894238Y-103491824D01*
X161941857Y-103587062D01*
X161989476Y-103634681D01*
X162084714Y-103682300D01*
X162275190Y-103682300D01*
X162370428Y-103634681D01*
X162418047Y-103587062D01*
X162465666Y-103491824D01*
X162465666Y-103301348D01*
X162418047Y-103206110D01*
X162370428Y-103158491D01*
X162275190Y-103110872D01*
X64551655Y-30131180D02*
X64551655Y-30940704D01*
X64599274Y-31035942D01*
X64646893Y-31083561D01*
X64742131Y-31131180D01*
X64932607Y-31131180D01*
X65027845Y-31083561D01*
X65075464Y-31035942D01*
X65123083Y-30940704D01*
X65123083Y-30131180D01*
X66123083Y-31131180D02*
X65551655Y-31131180D01*
X65837369Y-31131180D02*
X65837369Y-30131180D01*
X65742131Y-30274038D01*
X65646893Y-30369276D01*
X65551655Y-30416895D01*
X64551655Y-49348820D02*
X64551655Y-50158344D01*
X64599274Y-50253582D01*
X64646893Y-50301201D01*
X64742131Y-50348820D01*
X64932607Y-50348820D01*
X65027845Y-50301201D01*
X65075464Y-50253582D01*
X65123083Y-50158344D01*
X65123083Y-49348820D01*
X65551655Y-49444059D02*
X65599274Y-49396440D01*
X65694512Y-49348820D01*
X65932607Y-49348820D01*
X66027845Y-49396440D01*
X66075464Y-49444059D01*
X66123083Y-49539297D01*
X66123083Y-49634535D01*
X66075464Y-49777392D01*
X65504036Y-50348820D01*
X66123083Y-50348820D01*
X67321534Y-68983020D02*
X67321534Y-69792544D01*
X67369153Y-69887782D01*
X67416772Y-69935401D01*
X67512010Y-69983020D01*
X67702486Y-69983020D01*
X67797724Y-69935401D01*
X67845343Y-69887782D01*
X67892962Y-69792544D01*
X67892962Y-68983020D01*
X68273915Y-68983020D02*
X68892962Y-68983020D01*
X68559629Y-69363973D01*
X68702486Y-69363973D01*
X68797724Y-69411592D01*
X68845343Y-69459211D01*
X68892962Y-69554449D01*
X68892962Y-69792544D01*
X68845343Y-69887782D01*
X68797724Y-69935401D01*
X68702486Y-69983020D01*
X68416772Y-69983020D01*
X68321534Y-69935401D01*
X68273915Y-69887782D01*
X64084295Y-90161540D02*
X64084295Y-90971064D01*
X64131914Y-91066302D01*
X64179533Y-91113921D01*
X64274771Y-91161540D01*
X64465247Y-91161540D01*
X64560485Y-91113921D01*
X64608104Y-91066302D01*
X64655723Y-90971064D01*
X64655723Y-90161540D01*
X65560485Y-90494874D02*
X65560485Y-91161540D01*
X65322390Y-90113921D02*
X65084295Y-90828207D01*
X65703342Y-90828207D01*
X173878335Y-56830300D02*
X173878335Y-57639824D01*
X173925954Y-57735062D01*
X173973573Y-57782681D01*
X174068811Y-57830300D01*
X174259287Y-57830300D01*
X174354525Y-57782681D01*
X174402144Y-57735062D01*
X174449763Y-57639824D01*
X174449763Y-56830300D01*
X175354525Y-56830300D02*
X175164049Y-56830300D01*
X175068811Y-56877920D01*
X175021192Y-56925539D01*
X174925954Y-57068396D01*
X174878335Y-57258872D01*
X174878335Y-57639824D01*
X174925954Y-57735062D01*
X174973573Y-57782681D01*
X175068811Y-57830300D01*
X175259287Y-57830300D01*
X175354525Y-57782681D01*
X175402144Y-57735062D01*
X175449763Y-57639824D01*
X175449763Y-57401729D01*
X175402144Y-57306491D01*
X175354525Y-57258872D01*
X175259287Y-57211253D01*
X175068811Y-57211253D01*
X174973573Y-57258872D01*
X174925954Y-57306491D01*
X174878335Y-57401729D01*
X173741175Y-77150300D02*
X173741175Y-77959824D01*
X173788794Y-78055062D01*
X173836413Y-78102681D01*
X173931651Y-78150300D01*
X174122127Y-78150300D01*
X174217365Y-78102681D01*
X174264984Y-78055062D01*
X174312603Y-77959824D01*
X174312603Y-77150300D01*
X174693556Y-77150300D02*
X175360222Y-77150300D01*
X174931651Y-78150300D01*
X173563375Y-97114700D02*
X173563375Y-97924224D01*
X173610994Y-98019462D01*
X173658613Y-98067081D01*
X173753851Y-98114700D01*
X173944327Y-98114700D01*
X174039565Y-98067081D01*
X174087184Y-98019462D01*
X174134803Y-97924224D01*
X174134803Y-97114700D01*
X174753851Y-97543272D02*
X174658613Y-97495653D01*
X174610994Y-97448034D01*
X174563375Y-97352796D01*
X174563375Y-97305177D01*
X174610994Y-97209939D01*
X174658613Y-97162320D01*
X174753851Y-97114700D01*
X174944327Y-97114700D01*
X175039565Y-97162320D01*
X175087184Y-97209939D01*
X175134803Y-97305177D01*
X175134803Y-97352796D01*
X175087184Y-97448034D01*
X175039565Y-97495653D01*
X174944327Y-97543272D01*
X174753851Y-97543272D01*
X174658613Y-97590891D01*
X174610994Y-97638510D01*
X174563375Y-97733748D01*
X174563375Y-97924224D01*
X174610994Y-98019462D01*
X174658613Y-98067081D01*
X174753851Y-98114700D01*
X174944327Y-98114700D01*
X175039565Y-98067081D01*
X175087184Y-98019462D01*
X175134803Y-97924224D01*
X175134803Y-97733748D01*
X175087184Y-97638510D01*
X175039565Y-97590891D01*
X174944327Y-97543272D01*
X179117420Y-89951464D02*
X179926944Y-89951464D01*
X180022182Y-89903845D01*
X180069801Y-89856226D01*
X180117420Y-89760988D01*
X180117420Y-89570512D01*
X180069801Y-89475274D01*
X180022182Y-89427655D01*
X179926944Y-89380036D01*
X179117420Y-89380036D01*
X180117420Y-88856226D02*
X180117420Y-88665750D01*
X180069801Y-88570512D01*
X180022182Y-88522893D01*
X179879325Y-88427655D01*
X179688849Y-88380036D01*
X179307897Y-88380036D01*
X179212659Y-88427655D01*
X179165040Y-88475274D01*
X179117420Y-88570512D01*
X179117420Y-88760988D01*
X179165040Y-88856226D01*
X179212659Y-88903845D01*
X179307897Y-88951464D01*
X179545992Y-88951464D01*
X179641230Y-88903845D01*
X179688849Y-88856226D01*
X179736468Y-88760988D01*
X179736468Y-88570512D01*
X179688849Y-88475274D01*
X179641230Y-88427655D01*
X179545992Y-88380036D01*
X82429053Y-23213062D02*
X82381434Y-23260681D01*
X82238577Y-23308300D01*
X82143339Y-23308300D01*
X82000481Y-23260681D01*
X81905243Y-23165443D01*
X81857624Y-23070205D01*
X81810005Y-22879729D01*
X81810005Y-22736872D01*
X81857624Y-22546396D01*
X81905243Y-22451158D01*
X82000481Y-22355920D01*
X82143339Y-22308300D01*
X82238577Y-22308300D01*
X82381434Y-22355920D01*
X82429053Y-22403539D01*
X83381434Y-23308300D02*
X82810005Y-23308300D01*
X83095720Y-23308300D02*
X83095720Y-22308300D01*
X83000481Y-22451158D01*
X82905243Y-22546396D01*
X82810005Y-22594015D01*
X82449373Y-44071542D02*
X82401754Y-44119161D01*
X82258897Y-44166780D01*
X82163659Y-44166780D01*
X82020801Y-44119161D01*
X81925563Y-44023923D01*
X81877944Y-43928685D01*
X81830325Y-43738209D01*
X81830325Y-43595352D01*
X81877944Y-43404876D01*
X81925563Y-43309638D01*
X82020801Y-43214400D01*
X82163659Y-43166780D01*
X82258897Y-43166780D01*
X82401754Y-43214400D01*
X82449373Y-43262019D01*
X82830325Y-43262019D02*
X82877944Y-43214400D01*
X82973182Y-43166780D01*
X83211278Y-43166780D01*
X83306516Y-43214400D01*
X83354135Y-43262019D01*
X83401754Y-43357257D01*
X83401754Y-43452495D01*
X83354135Y-43595352D01*
X82782706Y-44166780D01*
X83401754Y-44166780D01*
X81982013Y-64157862D02*
X81934394Y-64205481D01*
X81791537Y-64253100D01*
X81696299Y-64253100D01*
X81553441Y-64205481D01*
X81458203Y-64110243D01*
X81410584Y-64015005D01*
X81362965Y-63824529D01*
X81362965Y-63681672D01*
X81410584Y-63491196D01*
X81458203Y-63395958D01*
X81553441Y-63300720D01*
X81696299Y-63253100D01*
X81791537Y-63253100D01*
X81934394Y-63300720D01*
X81982013Y-63348339D01*
X82315346Y-63253100D02*
X82934394Y-63253100D01*
X82601060Y-63634053D01*
X82743918Y-63634053D01*
X82839156Y-63681672D01*
X82886775Y-63729291D01*
X82934394Y-63824529D01*
X82934394Y-64062624D01*
X82886775Y-64157862D01*
X82839156Y-64205481D01*
X82743918Y-64253100D01*
X82458203Y-64253100D01*
X82362965Y-64205481D01*
X82315346Y-64157862D01*
X86503213Y-87147942D02*
X86455594Y-87195561D01*
X86312737Y-87243180D01*
X86217499Y-87243180D01*
X86074641Y-87195561D01*
X85979403Y-87100323D01*
X85931784Y-87005085D01*
X85884165Y-86814609D01*
X85884165Y-86671752D01*
X85931784Y-86481276D01*
X85979403Y-86386038D01*
X86074641Y-86290800D01*
X86217499Y-86243180D01*
X86312737Y-86243180D01*
X86455594Y-86290800D01*
X86503213Y-86338419D01*
X87360356Y-86576514D02*
X87360356Y-87243180D01*
X87122260Y-86195561D02*
X86884165Y-86909847D01*
X87503213Y-86909847D01*
X86757213Y-26497822D02*
X86709594Y-26545441D01*
X86566737Y-26593060D01*
X86471499Y-26593060D01*
X86328641Y-26545441D01*
X86233403Y-26450203D01*
X86185784Y-26354965D01*
X86138165Y-26164489D01*
X86138165Y-26021632D01*
X86185784Y-25831156D01*
X86233403Y-25735918D01*
X86328641Y-25640680D01*
X86471499Y-25593060D01*
X86566737Y-25593060D01*
X86709594Y-25640680D01*
X86757213Y-25688299D01*
X87661975Y-25593060D02*
X87185784Y-25593060D01*
X87138165Y-26069251D01*
X87185784Y-26021632D01*
X87281022Y-25974013D01*
X87519118Y-25974013D01*
X87614356Y-26021632D01*
X87661975Y-26069251D01*
X87709594Y-26164489D01*
X87709594Y-26402584D01*
X87661975Y-26497822D01*
X87614356Y-26545441D01*
X87519118Y-26593060D01*
X87281022Y-26593060D01*
X87185784Y-26545441D01*
X87138165Y-26497822D01*
X86955333Y-67457862D02*
X86907714Y-67505481D01*
X86764857Y-67553100D01*
X86669619Y-67553100D01*
X86526761Y-67505481D01*
X86431523Y-67410243D01*
X86383904Y-67315005D01*
X86336285Y-67124529D01*
X86336285Y-66981672D01*
X86383904Y-66791196D01*
X86431523Y-66695958D01*
X86526761Y-66600720D01*
X86669619Y-66553100D01*
X86764857Y-66553100D01*
X86907714Y-66600720D01*
X86955333Y-66648339D01*
X87288666Y-66553100D02*
X87955333Y-66553100D01*
X87526761Y-67553100D01*
X81982013Y-83847942D02*
X81934394Y-83895561D01*
X81791537Y-83943180D01*
X81696299Y-83943180D01*
X81553441Y-83895561D01*
X81458203Y-83800323D01*
X81410584Y-83705085D01*
X81362965Y-83514609D01*
X81362965Y-83371752D01*
X81410584Y-83181276D01*
X81458203Y-83086038D01*
X81553441Y-82990800D01*
X81696299Y-82943180D01*
X81791537Y-82943180D01*
X81934394Y-82990800D01*
X81982013Y-83038419D01*
X82553441Y-83371752D02*
X82458203Y-83324133D01*
X82410584Y-83276514D01*
X82362965Y-83181276D01*
X82362965Y-83133657D01*
X82410584Y-83038419D01*
X82458203Y-82990800D01*
X82553441Y-82943180D01*
X82743918Y-82943180D01*
X82839156Y-82990800D01*
X82886775Y-83038419D01*
X82934394Y-83133657D01*
X82934394Y-83181276D01*
X82886775Y-83276514D01*
X82839156Y-83324133D01*
X82743918Y-83371752D01*
X82553441Y-83371752D01*
X82458203Y-83419371D01*
X82410584Y-83466990D01*
X82362965Y-83562228D01*
X82362965Y-83752704D01*
X82410584Y-83847942D01*
X82458203Y-83895561D01*
X82553441Y-83943180D01*
X82743918Y-83943180D01*
X82839156Y-83895561D01*
X82886775Y-83847942D01*
X82934394Y-83752704D01*
X82934394Y-83562228D01*
X82886775Y-83466990D01*
X82839156Y-83419371D01*
X82743918Y-83371752D01*
X94833982Y-39078137D02*
X94881601Y-39125756D01*
X94929220Y-39268613D01*
X94929220Y-39363851D01*
X94881601Y-39506708D01*
X94786363Y-39601946D01*
X94691125Y-39649565D01*
X94500649Y-39697184D01*
X94357792Y-39697184D01*
X94167316Y-39649565D01*
X94072078Y-39601946D01*
X93976840Y-39506708D01*
X93929220Y-39363851D01*
X93929220Y-39268613D01*
X93976840Y-39125756D01*
X94024459Y-39078137D01*
X94929220Y-38125756D02*
X94929220Y-38697184D01*
X94929220Y-38411470D02*
X93929220Y-38411470D01*
X94072078Y-38506708D01*
X94167316Y-38601946D01*
X94214935Y-38697184D01*
X93929220Y-37506708D02*
X93929220Y-37411470D01*
X93976840Y-37316232D01*
X94024459Y-37268613D01*
X94119697Y-37220994D01*
X94310173Y-37173375D01*
X94548268Y-37173375D01*
X94738744Y-37220994D01*
X94833982Y-37268613D01*
X94881601Y-37316232D01*
X94929220Y-37411470D01*
X94929220Y-37506708D01*
X94881601Y-37601946D01*
X94833982Y-37649565D01*
X94738744Y-37697184D01*
X94548268Y-37744803D01*
X94310173Y-37744803D01*
X94119697Y-37697184D01*
X94024459Y-37649565D01*
X93976840Y-37601946D01*
X93929220Y-37506708D01*
X114368342Y-23223222D02*
X114320723Y-23270841D01*
X114177866Y-23318460D01*
X114082628Y-23318460D01*
X113939771Y-23270841D01*
X113844533Y-23175603D01*
X113796914Y-23080365D01*
X113749295Y-22889889D01*
X113749295Y-22747032D01*
X113796914Y-22556556D01*
X113844533Y-22461318D01*
X113939771Y-22366080D01*
X114082628Y-22318460D01*
X114177866Y-22318460D01*
X114320723Y-22366080D01*
X114368342Y-22413699D01*
X115320723Y-23318460D02*
X114749295Y-23318460D01*
X115035009Y-23318460D02*
X115035009Y-22318460D01*
X114939771Y-22461318D01*
X114844533Y-22556556D01*
X114749295Y-22604175D01*
X116177866Y-22651794D02*
X116177866Y-23318460D01*
X115939771Y-22270841D02*
X115701676Y-22985127D01*
X116320723Y-22985127D01*
X109176582Y-47371542D02*
X109128963Y-47419161D01*
X108986106Y-47466780D01*
X108890868Y-47466780D01*
X108748011Y-47419161D01*
X108652773Y-47323923D01*
X108605154Y-47228685D01*
X108557535Y-47038209D01*
X108557535Y-46895352D01*
X108605154Y-46704876D01*
X108652773Y-46609638D01*
X108748011Y-46514400D01*
X108890868Y-46466780D01*
X108986106Y-46466780D01*
X109128963Y-46514400D01*
X109176582Y-46562019D01*
X110128963Y-47466780D02*
X109557535Y-47466780D01*
X109843249Y-47466780D02*
X109843249Y-46466780D01*
X109748011Y-46609638D01*
X109652773Y-46704876D01*
X109557535Y-46752495D01*
X111033725Y-46466780D02*
X110557535Y-46466780D01*
X110509916Y-46942971D01*
X110557535Y-46895352D01*
X110652773Y-46847733D01*
X110890868Y-46847733D01*
X110986106Y-46895352D01*
X111033725Y-46942971D01*
X111081344Y-47038209D01*
X111081344Y-47276304D01*
X111033725Y-47371542D01*
X110986106Y-47419161D01*
X110890868Y-47466780D01*
X110652773Y-47466780D01*
X110557535Y-47419161D01*
X110509916Y-47371542D01*
X108709222Y-67457862D02*
X108661603Y-67505481D01*
X108518746Y-67553100D01*
X108423508Y-67553100D01*
X108280651Y-67505481D01*
X108185413Y-67410243D01*
X108137794Y-67315005D01*
X108090175Y-67124529D01*
X108090175Y-66981672D01*
X108137794Y-66791196D01*
X108185413Y-66695958D01*
X108280651Y-66600720D01*
X108423508Y-66553100D01*
X108518746Y-66553100D01*
X108661603Y-66600720D01*
X108709222Y-66648339D01*
X109661603Y-67553100D02*
X109090175Y-67553100D01*
X109375889Y-67553100D02*
X109375889Y-66553100D01*
X109280651Y-66695958D01*
X109185413Y-66791196D01*
X109090175Y-66838815D01*
X110518746Y-66553100D02*
X110328270Y-66553100D01*
X110233032Y-66600720D01*
X110185413Y-66648339D01*
X110090175Y-66791196D01*
X110042556Y-66981672D01*
X110042556Y-67362624D01*
X110090175Y-67457862D01*
X110137794Y-67505481D01*
X110233032Y-67553100D01*
X110423508Y-67553100D01*
X110518746Y-67505481D01*
X110566365Y-67457862D01*
X110613984Y-67362624D01*
X110613984Y-67124529D01*
X110566365Y-67029291D01*
X110518746Y-66981672D01*
X110423508Y-66934053D01*
X110233032Y-66934053D01*
X110137794Y-66981672D01*
X110090175Y-67029291D01*
X110042556Y-67124529D01*
X108709222Y-87147942D02*
X108661603Y-87195561D01*
X108518746Y-87243180D01*
X108423508Y-87243180D01*
X108280651Y-87195561D01*
X108185413Y-87100323D01*
X108137794Y-87005085D01*
X108090175Y-86814609D01*
X108090175Y-86671752D01*
X108137794Y-86481276D01*
X108185413Y-86386038D01*
X108280651Y-86290800D01*
X108423508Y-86243180D01*
X108518746Y-86243180D01*
X108661603Y-86290800D01*
X108709222Y-86338419D01*
X109661603Y-87243180D02*
X109090175Y-87243180D01*
X109375889Y-87243180D02*
X109375889Y-86243180D01*
X109280651Y-86386038D01*
X109185413Y-86481276D01*
X109090175Y-86528895D01*
X109994937Y-86243180D02*
X110661603Y-86243180D01*
X110233032Y-87243180D01*
X114038142Y-24940201D02*
X113990523Y-24987820D01*
X113847666Y-25035439D01*
X113752428Y-25035439D01*
X113609571Y-24987820D01*
X113514333Y-24892582D01*
X113466714Y-24797344D01*
X113419095Y-24606868D01*
X113419095Y-24464011D01*
X113466714Y-24273535D01*
X113514333Y-24178297D01*
X113609571Y-24083059D01*
X113752428Y-24035439D01*
X113847666Y-24035439D01*
X113990523Y-24083059D01*
X114038142Y-24130678D01*
X114990523Y-25035439D02*
X114419095Y-25035439D01*
X114704809Y-25035439D02*
X114704809Y-24035439D01*
X114609571Y-24178297D01*
X114514333Y-24273535D01*
X114419095Y-24321154D01*
X115561952Y-24464011D02*
X115466714Y-24416392D01*
X115419095Y-24368773D01*
X115371476Y-24273535D01*
X115371476Y-24225916D01*
X115419095Y-24130678D01*
X115466714Y-24083059D01*
X115561952Y-24035439D01*
X115752428Y-24035439D01*
X115847666Y-24083059D01*
X115895285Y-24130678D01*
X115942904Y-24225916D01*
X115942904Y-24273535D01*
X115895285Y-24368773D01*
X115847666Y-24416392D01*
X115752428Y-24464011D01*
X115561952Y-24464011D01*
X115466714Y-24511630D01*
X115419095Y-24559249D01*
X115371476Y-24654487D01*
X115371476Y-24844963D01*
X115419095Y-24940201D01*
X115466714Y-24987820D01*
X115561952Y-25035439D01*
X115752428Y-25035439D01*
X115847666Y-24987820D01*
X115895285Y-24940201D01*
X115942904Y-24844963D01*
X115942904Y-24654487D01*
X115895285Y-24559249D01*
X115847666Y-24511630D01*
X115752428Y-24464011D01*
X113982262Y-67457862D02*
X113934643Y-67505481D01*
X113791786Y-67553100D01*
X113696548Y-67553100D01*
X113553691Y-67505481D01*
X113458453Y-67410243D01*
X113410834Y-67315005D01*
X113363215Y-67124529D01*
X113363215Y-66981672D01*
X113410834Y-66791196D01*
X113458453Y-66695958D01*
X113553691Y-66600720D01*
X113696548Y-66553100D01*
X113791786Y-66553100D01*
X113934643Y-66600720D01*
X113982262Y-66648339D01*
X114934643Y-67553100D02*
X114363215Y-67553100D01*
X114648929Y-67553100D02*
X114648929Y-66553100D01*
X114553691Y-66695958D01*
X114458453Y-66791196D01*
X114363215Y-66838815D01*
X115410834Y-67553100D02*
X115601310Y-67553100D01*
X115696548Y-67505481D01*
X115744167Y-67457862D01*
X115839405Y-67315005D01*
X115887024Y-67124529D01*
X115887024Y-66743577D01*
X115839405Y-66648339D01*
X115791786Y-66600720D01*
X115696548Y-66553100D01*
X115506072Y-66553100D01*
X115410834Y-66600720D01*
X115363215Y-66648339D01*
X115315596Y-66743577D01*
X115315596Y-66981672D01*
X115363215Y-67076910D01*
X115410834Y-67124529D01*
X115506072Y-67172148D01*
X115696548Y-67172148D01*
X115791786Y-67124529D01*
X115839405Y-67076910D01*
X115887024Y-66981672D01*
X113494582Y-87147942D02*
X113446963Y-87195561D01*
X113304106Y-87243180D01*
X113208868Y-87243180D01*
X113066011Y-87195561D01*
X112970773Y-87100323D01*
X112923154Y-87005085D01*
X112875535Y-86814609D01*
X112875535Y-86671752D01*
X112923154Y-86481276D01*
X112970773Y-86386038D01*
X113066011Y-86290800D01*
X113208868Y-86243180D01*
X113304106Y-86243180D01*
X113446963Y-86290800D01*
X113494582Y-86338419D01*
X113875535Y-86338419D02*
X113923154Y-86290800D01*
X114018392Y-86243180D01*
X114256487Y-86243180D01*
X114351725Y-86290800D01*
X114399344Y-86338419D01*
X114446963Y-86433657D01*
X114446963Y-86528895D01*
X114399344Y-86671752D01*
X113827916Y-87243180D01*
X114446963Y-87243180D01*
X115066011Y-86243180D02*
X115161249Y-86243180D01*
X115256487Y-86290800D01*
X115304106Y-86338419D01*
X115351725Y-86433657D01*
X115399344Y-86624133D01*
X115399344Y-86862228D01*
X115351725Y-87052704D01*
X115304106Y-87147942D01*
X115256487Y-87195561D01*
X115161249Y-87243180D01*
X115066011Y-87243180D01*
X114970773Y-87195561D01*
X114923154Y-87147942D01*
X114875535Y-87052704D01*
X114827916Y-86862228D01*
X114827916Y-86624133D01*
X114875535Y-86433657D01*
X114923154Y-86338419D01*
X114970773Y-86290800D01*
X115066011Y-86243180D01*
X109506782Y-26472422D02*
X109459163Y-26520041D01*
X109316306Y-26567660D01*
X109221068Y-26567660D01*
X109078211Y-26520041D01*
X108982973Y-26424803D01*
X108935354Y-26329565D01*
X108887735Y-26139089D01*
X108887735Y-25996232D01*
X108935354Y-25805756D01*
X108982973Y-25710518D01*
X109078211Y-25615280D01*
X109221068Y-25567660D01*
X109316306Y-25567660D01*
X109459163Y-25615280D01*
X109506782Y-25662899D01*
X109887735Y-25662899D02*
X109935354Y-25615280D01*
X110030592Y-25567660D01*
X110268687Y-25567660D01*
X110363925Y-25615280D01*
X110411544Y-25662899D01*
X110459163Y-25758137D01*
X110459163Y-25853375D01*
X110411544Y-25996232D01*
X109840116Y-26567660D01*
X110459163Y-26567660D01*
X111411544Y-26567660D02*
X110840116Y-26567660D01*
X111125830Y-26567660D02*
X111125830Y-25567660D01*
X111030592Y-25710518D01*
X110935354Y-25805756D01*
X110840116Y-25853375D01*
X123053382Y-39459137D02*
X123101001Y-39506756D01*
X123148620Y-39649613D01*
X123148620Y-39744851D01*
X123101001Y-39887708D01*
X123005763Y-39982946D01*
X122910525Y-40030565D01*
X122720049Y-40078184D01*
X122577192Y-40078184D01*
X122386716Y-40030565D01*
X122291478Y-39982946D01*
X122196240Y-39887708D01*
X122148620Y-39744851D01*
X122148620Y-39649613D01*
X122196240Y-39506756D01*
X122243859Y-39459137D01*
X122243859Y-39078184D02*
X122196240Y-39030565D01*
X122148620Y-38935327D01*
X122148620Y-38697232D01*
X122196240Y-38601994D01*
X122243859Y-38554375D01*
X122339097Y-38506756D01*
X122434335Y-38506756D01*
X122577192Y-38554375D01*
X123148620Y-39125803D01*
X123148620Y-38506756D01*
X122148620Y-38173422D02*
X122148620Y-37554375D01*
X122529573Y-37887708D01*
X122529573Y-37744851D01*
X122577192Y-37649613D01*
X122624811Y-37601994D01*
X122720049Y-37554375D01*
X122958144Y-37554375D01*
X123053382Y-37601994D01*
X123101001Y-37649613D01*
X123148620Y-37744851D01*
X123148620Y-38030565D01*
X123101001Y-38125803D01*
X123053382Y-38173422D01*
X136054862Y-22923502D02*
X136007243Y-22971121D01*
X135864386Y-23018740D01*
X135769148Y-23018740D01*
X135626291Y-22971121D01*
X135531053Y-22875883D01*
X135483434Y-22780645D01*
X135435815Y-22590169D01*
X135435815Y-22447312D01*
X135483434Y-22256836D01*
X135531053Y-22161598D01*
X135626291Y-22066360D01*
X135769148Y-22018740D01*
X135864386Y-22018740D01*
X136007243Y-22066360D01*
X136054862Y-22113979D01*
X136435815Y-22113979D02*
X136483434Y-22066360D01*
X136578672Y-22018740D01*
X136816767Y-22018740D01*
X136912005Y-22066360D01*
X136959624Y-22113979D01*
X137007243Y-22209217D01*
X137007243Y-22304455D01*
X136959624Y-22447312D01*
X136388196Y-23018740D01*
X137007243Y-23018740D01*
X137340577Y-22018740D02*
X138007243Y-22018740D01*
X137578672Y-23018740D01*
X135724662Y-44071542D02*
X135677043Y-44119161D01*
X135534186Y-44166780D01*
X135438948Y-44166780D01*
X135296091Y-44119161D01*
X135200853Y-44023923D01*
X135153234Y-43928685D01*
X135105615Y-43738209D01*
X135105615Y-43595352D01*
X135153234Y-43404876D01*
X135200853Y-43309638D01*
X135296091Y-43214400D01*
X135438948Y-43166780D01*
X135534186Y-43166780D01*
X135677043Y-43214400D01*
X135724662Y-43262019D01*
X136105615Y-43262019D02*
X136153234Y-43214400D01*
X136248472Y-43166780D01*
X136486567Y-43166780D01*
X136581805Y-43214400D01*
X136629424Y-43262019D01*
X136677043Y-43357257D01*
X136677043Y-43452495D01*
X136629424Y-43595352D01*
X136057996Y-44166780D01*
X136677043Y-44166780D01*
X137248472Y-43595352D02*
X137153234Y-43547733D01*
X137105615Y-43500114D01*
X137057996Y-43404876D01*
X137057996Y-43357257D01*
X137105615Y-43262019D01*
X137153234Y-43214400D01*
X137248472Y-43166780D01*
X137438948Y-43166780D01*
X137534186Y-43214400D01*
X137581805Y-43262019D01*
X137629424Y-43357257D01*
X137629424Y-43404876D01*
X137581805Y-43500114D01*
X137534186Y-43547733D01*
X137438948Y-43595352D01*
X137248472Y-43595352D01*
X137153234Y-43642971D01*
X137105615Y-43690590D01*
X137057996Y-43785828D01*
X137057996Y-43976304D01*
X137105615Y-44071542D01*
X137153234Y-44119161D01*
X137248472Y-44166780D01*
X137438948Y-44166780D01*
X137534186Y-44119161D01*
X137581805Y-44071542D01*
X137629424Y-43976304D01*
X137629424Y-43785828D01*
X137581805Y-43690590D01*
X137534186Y-43642971D01*
X137438948Y-43595352D01*
X135257302Y-64157862D02*
X135209683Y-64205481D01*
X135066826Y-64253100D01*
X134971588Y-64253100D01*
X134828731Y-64205481D01*
X134733493Y-64110243D01*
X134685874Y-64015005D01*
X134638255Y-63824529D01*
X134638255Y-63681672D01*
X134685874Y-63491196D01*
X134733493Y-63395958D01*
X134828731Y-63300720D01*
X134971588Y-63253100D01*
X135066826Y-63253100D01*
X135209683Y-63300720D01*
X135257302Y-63348339D01*
X135638255Y-63348339D02*
X135685874Y-63300720D01*
X135781112Y-63253100D01*
X136019207Y-63253100D01*
X136114445Y-63300720D01*
X136162064Y-63348339D01*
X136209683Y-63443577D01*
X136209683Y-63538815D01*
X136162064Y-63681672D01*
X135590636Y-64253100D01*
X136209683Y-64253100D01*
X136685874Y-64253100D02*
X136876350Y-64253100D01*
X136971588Y-64205481D01*
X137019207Y-64157862D01*
X137114445Y-64015005D01*
X137162064Y-63824529D01*
X137162064Y-63443577D01*
X137114445Y-63348339D01*
X137066826Y-63300720D01*
X136971588Y-63253100D01*
X136781112Y-63253100D01*
X136685874Y-63300720D01*
X136638255Y-63348339D01*
X136590636Y-63443577D01*
X136590636Y-63681672D01*
X136638255Y-63776910D01*
X136685874Y-63824529D01*
X136781112Y-63872148D01*
X136971588Y-63872148D01*
X137066826Y-63824529D01*
X137114445Y-63776910D01*
X137162064Y-63681672D01*
X141114542Y-87147942D02*
X141066923Y-87195561D01*
X140924066Y-87243180D01*
X140828828Y-87243180D01*
X140685971Y-87195561D01*
X140590733Y-87100323D01*
X140543114Y-87005085D01*
X140495495Y-86814609D01*
X140495495Y-86671752D01*
X140543114Y-86481276D01*
X140590733Y-86386038D01*
X140685971Y-86290800D01*
X140828828Y-86243180D01*
X140924066Y-86243180D01*
X141066923Y-86290800D01*
X141114542Y-86338419D01*
X141447876Y-86243180D02*
X142066923Y-86243180D01*
X141733590Y-86624133D01*
X141876447Y-86624133D01*
X141971685Y-86671752D01*
X142019304Y-86719371D01*
X142066923Y-86814609D01*
X142066923Y-87052704D01*
X142019304Y-87147942D01*
X141971685Y-87195561D01*
X141876447Y-87243180D01*
X141590733Y-87243180D01*
X141495495Y-87195561D01*
X141447876Y-87147942D01*
X142685971Y-86243180D02*
X142781209Y-86243180D01*
X142876447Y-86290800D01*
X142924066Y-86338419D01*
X142971685Y-86433657D01*
X143019304Y-86624133D01*
X143019304Y-86862228D01*
X142971685Y-87052704D01*
X142924066Y-87147942D01*
X142876447Y-87195561D01*
X142781209Y-87243180D01*
X142685971Y-87243180D01*
X142590733Y-87195561D01*
X142543114Y-87147942D01*
X142495495Y-87052704D01*
X142447876Y-86862228D01*
X142447876Y-86624133D01*
X142495495Y-86433657D01*
X142543114Y-86338419D01*
X142590733Y-86290800D01*
X142685971Y-86243180D01*
X140835142Y-26223502D02*
X140787523Y-26271121D01*
X140644666Y-26318740D01*
X140549428Y-26318740D01*
X140406571Y-26271121D01*
X140311333Y-26175883D01*
X140263714Y-26080645D01*
X140216095Y-25890169D01*
X140216095Y-25747312D01*
X140263714Y-25556836D01*
X140311333Y-25461598D01*
X140406571Y-25366360D01*
X140549428Y-25318740D01*
X140644666Y-25318740D01*
X140787523Y-25366360D01*
X140835142Y-25413979D01*
X141168476Y-25318740D02*
X141787523Y-25318740D01*
X141454190Y-25699693D01*
X141597047Y-25699693D01*
X141692285Y-25747312D01*
X141739904Y-25794931D01*
X141787523Y-25890169D01*
X141787523Y-26128264D01*
X141739904Y-26223502D01*
X141692285Y-26271121D01*
X141597047Y-26318740D01*
X141311333Y-26318740D01*
X141216095Y-26271121D01*
X141168476Y-26223502D01*
X142739904Y-26318740D02*
X142168476Y-26318740D01*
X142454190Y-26318740D02*
X142454190Y-25318740D01*
X142358952Y-25461598D01*
X142263714Y-25556836D01*
X142168476Y-25604455D01*
X141150102Y-47371542D02*
X141102483Y-47419161D01*
X140959626Y-47466780D01*
X140864388Y-47466780D01*
X140721531Y-47419161D01*
X140626293Y-47323923D01*
X140578674Y-47228685D01*
X140531055Y-47038209D01*
X140531055Y-46895352D01*
X140578674Y-46704876D01*
X140626293Y-46609638D01*
X140721531Y-46514400D01*
X140864388Y-46466780D01*
X140959626Y-46466780D01*
X141102483Y-46514400D01*
X141150102Y-46562019D01*
X141483436Y-46466780D02*
X142102483Y-46466780D01*
X141769150Y-46847733D01*
X141912007Y-46847733D01*
X142007245Y-46895352D01*
X142054864Y-46942971D01*
X142102483Y-47038209D01*
X142102483Y-47276304D01*
X142054864Y-47371542D01*
X142007245Y-47419161D01*
X141912007Y-47466780D01*
X141626293Y-47466780D01*
X141531055Y-47419161D01*
X141483436Y-47371542D01*
X142483436Y-46562019D02*
X142531055Y-46514400D01*
X142626293Y-46466780D01*
X142864388Y-46466780D01*
X142959626Y-46514400D01*
X143007245Y-46562019D01*
X143054864Y-46657257D01*
X143054864Y-46752495D01*
X143007245Y-46895352D01*
X142435817Y-47466780D01*
X143054864Y-47466780D01*
X141160262Y-67457862D02*
X141112643Y-67505481D01*
X140969786Y-67553100D01*
X140874548Y-67553100D01*
X140731691Y-67505481D01*
X140636453Y-67410243D01*
X140588834Y-67315005D01*
X140541215Y-67124529D01*
X140541215Y-66981672D01*
X140588834Y-66791196D01*
X140636453Y-66695958D01*
X140731691Y-66600720D01*
X140874548Y-66553100D01*
X140969786Y-66553100D01*
X141112643Y-66600720D01*
X141160262Y-66648339D01*
X141493596Y-66553100D02*
X142112643Y-66553100D01*
X141779310Y-66934053D01*
X141922167Y-66934053D01*
X142017405Y-66981672D01*
X142065024Y-67029291D01*
X142112643Y-67124529D01*
X142112643Y-67362624D01*
X142065024Y-67457862D01*
X142017405Y-67505481D01*
X141922167Y-67553100D01*
X141636453Y-67553100D01*
X141541215Y-67505481D01*
X141493596Y-67457862D01*
X142445977Y-66553100D02*
X143065024Y-66553100D01*
X142731691Y-66934053D01*
X142874548Y-66934053D01*
X142969786Y-66981672D01*
X143017405Y-67029291D01*
X143065024Y-67124529D01*
X143065024Y-67362624D01*
X143017405Y-67457862D01*
X142969786Y-67505481D01*
X142874548Y-67553100D01*
X142588834Y-67553100D01*
X142493596Y-67505481D01*
X142445977Y-67457862D01*
X135257302Y-83847942D02*
X135209683Y-83895561D01*
X135066826Y-83943180D01*
X134971588Y-83943180D01*
X134828731Y-83895561D01*
X134733493Y-83800323D01*
X134685874Y-83705085D01*
X134638255Y-83514609D01*
X134638255Y-83371752D01*
X134685874Y-83181276D01*
X134733493Y-83086038D01*
X134828731Y-82990800D01*
X134971588Y-82943180D01*
X135066826Y-82943180D01*
X135209683Y-82990800D01*
X135257302Y-83038419D01*
X135590636Y-82943180D02*
X136209683Y-82943180D01*
X135876350Y-83324133D01*
X136019207Y-83324133D01*
X136114445Y-83371752D01*
X136162064Y-83419371D01*
X136209683Y-83514609D01*
X136209683Y-83752704D01*
X136162064Y-83847942D01*
X136114445Y-83895561D01*
X136019207Y-83943180D01*
X135733493Y-83943180D01*
X135638255Y-83895561D01*
X135590636Y-83847942D01*
X137066826Y-83276514D02*
X137066826Y-83943180D01*
X136828731Y-82895561D02*
X136590636Y-83609847D01*
X137209683Y-83609847D01*
X150160262Y-39315737D02*
X150207881Y-39363356D01*
X150255500Y-39506213D01*
X150255500Y-39601451D01*
X150207881Y-39744308D01*
X150112643Y-39839546D01*
X150017405Y-39887165D01*
X149826929Y-39934784D01*
X149684072Y-39934784D01*
X149493596Y-39887165D01*
X149398358Y-39839546D01*
X149303120Y-39744308D01*
X149255500Y-39601451D01*
X149255500Y-39506213D01*
X149303120Y-39363356D01*
X149350739Y-39315737D01*
X149255500Y-38982403D02*
X149255500Y-38363356D01*
X149636453Y-38696689D01*
X149636453Y-38553832D01*
X149684072Y-38458594D01*
X149731691Y-38410975D01*
X149826929Y-38363356D01*
X150065024Y-38363356D01*
X150160262Y-38410975D01*
X150207881Y-38458594D01*
X150255500Y-38553832D01*
X150255500Y-38839546D01*
X150207881Y-38934784D01*
X150160262Y-38982403D01*
X149255500Y-37506213D02*
X149255500Y-37696689D01*
X149303120Y-37791927D01*
X149350739Y-37839546D01*
X149493596Y-37934784D01*
X149684072Y-37982403D01*
X150065024Y-37982403D01*
X150160262Y-37934784D01*
X150207881Y-37887165D01*
X150255500Y-37791927D01*
X150255500Y-37601451D01*
X150207881Y-37506213D01*
X150160262Y-37458594D01*
X150065024Y-37410975D01*
X149826929Y-37410975D01*
X149731691Y-37458594D01*
X149684072Y-37506213D01*
X149636453Y-37601451D01*
X149636453Y-37791927D01*
X149684072Y-37887165D01*
X149731691Y-37934784D01*
X149826929Y-37982403D01*
X153418302Y-23157182D02*
X153370683Y-23204801D01*
X153227826Y-23252420D01*
X153132588Y-23252420D01*
X152989731Y-23204801D01*
X152894493Y-23109563D01*
X152846874Y-23014325D01*
X152799255Y-22823849D01*
X152799255Y-22680992D01*
X152846874Y-22490516D01*
X152894493Y-22395278D01*
X152989731Y-22300040D01*
X153132588Y-22252420D01*
X153227826Y-22252420D01*
X153370683Y-22300040D01*
X153418302Y-22347659D01*
X154275445Y-22585754D02*
X154275445Y-23252420D01*
X154037350Y-22204801D02*
X153799255Y-22919087D01*
X154418302Y-22919087D01*
X154989731Y-22252420D02*
X155084969Y-22252420D01*
X155180207Y-22300040D01*
X155227826Y-22347659D01*
X155275445Y-22442897D01*
X155323064Y-22633373D01*
X155323064Y-22871468D01*
X155275445Y-23061944D01*
X155227826Y-23157182D01*
X155180207Y-23204801D01*
X155084969Y-23252420D01*
X154989731Y-23252420D01*
X154894493Y-23204801D01*
X154846874Y-23157182D01*
X154799255Y-23061944D01*
X154751636Y-22871468D01*
X154751636Y-22633373D01*
X154799255Y-22442897D01*
X154846874Y-22347659D01*
X154894493Y-22300040D01*
X154989731Y-22252420D01*
X153088102Y-44071542D02*
X153040483Y-44119161D01*
X152897626Y-44166780D01*
X152802388Y-44166780D01*
X152659531Y-44119161D01*
X152564293Y-44023923D01*
X152516674Y-43928685D01*
X152469055Y-43738209D01*
X152469055Y-43595352D01*
X152516674Y-43404876D01*
X152564293Y-43309638D01*
X152659531Y-43214400D01*
X152802388Y-43166780D01*
X152897626Y-43166780D01*
X153040483Y-43214400D01*
X153088102Y-43262019D01*
X153945245Y-43500114D02*
X153945245Y-44166780D01*
X153707150Y-43119161D02*
X153469055Y-43833447D01*
X154088102Y-43833447D01*
X154992864Y-44166780D02*
X154421436Y-44166780D01*
X154707150Y-44166780D02*
X154707150Y-43166780D01*
X154611912Y-43309638D01*
X154516674Y-43404876D01*
X154421436Y-43452495D01*
X157954742Y-67457862D02*
X157907123Y-67505481D01*
X157764266Y-67553100D01*
X157669028Y-67553100D01*
X157526171Y-67505481D01*
X157430933Y-67410243D01*
X157383314Y-67315005D01*
X157335695Y-67124529D01*
X157335695Y-66981672D01*
X157383314Y-66791196D01*
X157430933Y-66695958D01*
X157526171Y-66600720D01*
X157669028Y-66553100D01*
X157764266Y-66553100D01*
X157907123Y-66600720D01*
X157954742Y-66648339D01*
X158811885Y-66886434D02*
X158811885Y-67553100D01*
X158573790Y-66505481D02*
X158335695Y-67219767D01*
X158954742Y-67219767D01*
X159288076Y-66648339D02*
X159335695Y-66600720D01*
X159430933Y-66553100D01*
X159669028Y-66553100D01*
X159764266Y-66600720D01*
X159811885Y-66648339D01*
X159859504Y-66743577D01*
X159859504Y-66838815D01*
X159811885Y-66981672D01*
X159240457Y-67553100D01*
X159859504Y-67553100D01*
X153138902Y-83847942D02*
X153091283Y-83895561D01*
X152948426Y-83943180D01*
X152853188Y-83943180D01*
X152710331Y-83895561D01*
X152615093Y-83800323D01*
X152567474Y-83705085D01*
X152519855Y-83514609D01*
X152519855Y-83371752D01*
X152567474Y-83181276D01*
X152615093Y-83086038D01*
X152710331Y-82990800D01*
X152853188Y-82943180D01*
X152948426Y-82943180D01*
X153091283Y-82990800D01*
X153138902Y-83038419D01*
X153996045Y-83276514D02*
X153996045Y-83943180D01*
X153757950Y-82895561D02*
X153519855Y-83609847D01*
X154138902Y-83609847D01*
X154424617Y-82943180D02*
X155043664Y-82943180D01*
X154710331Y-83324133D01*
X154853188Y-83324133D01*
X154948426Y-83371752D01*
X154996045Y-83419371D01*
X155043664Y-83514609D01*
X155043664Y-83752704D01*
X154996045Y-83847942D01*
X154948426Y-83895561D01*
X154853188Y-83943180D01*
X154567474Y-83943180D01*
X154472236Y-83895561D01*
X154424617Y-83847942D01*
X157954742Y-26507982D02*
X157907123Y-26555601D01*
X157764266Y-26603220D01*
X157669028Y-26603220D01*
X157526171Y-26555601D01*
X157430933Y-26460363D01*
X157383314Y-26365125D01*
X157335695Y-26174649D01*
X157335695Y-26031792D01*
X157383314Y-25841316D01*
X157430933Y-25746078D01*
X157526171Y-25650840D01*
X157669028Y-25603220D01*
X157764266Y-25603220D01*
X157907123Y-25650840D01*
X157954742Y-25698459D01*
X158811885Y-25936554D02*
X158811885Y-26603220D01*
X158573790Y-25555601D02*
X158335695Y-26269887D01*
X158954742Y-26269887D01*
X159764266Y-25936554D02*
X159764266Y-26603220D01*
X159526171Y-25555601D02*
X159288076Y-26269887D01*
X159907123Y-26269887D01*
X157954742Y-47371542D02*
X157907123Y-47419161D01*
X157764266Y-47466780D01*
X157669028Y-47466780D01*
X157526171Y-47419161D01*
X157430933Y-47323923D01*
X157383314Y-47228685D01*
X157335695Y-47038209D01*
X157335695Y-46895352D01*
X157383314Y-46704876D01*
X157430933Y-46609638D01*
X157526171Y-46514400D01*
X157669028Y-46466780D01*
X157764266Y-46466780D01*
X157907123Y-46514400D01*
X157954742Y-46562019D01*
X158811885Y-46800114D02*
X158811885Y-47466780D01*
X158573790Y-46419161D02*
X158335695Y-47133447D01*
X158954742Y-47133447D01*
X159811885Y-46466780D02*
X159335695Y-46466780D01*
X159288076Y-46942971D01*
X159335695Y-46895352D01*
X159430933Y-46847733D01*
X159669028Y-46847733D01*
X159764266Y-46895352D01*
X159811885Y-46942971D01*
X159859504Y-47038209D01*
X159859504Y-47276304D01*
X159811885Y-47371542D01*
X159764266Y-47419161D01*
X159669028Y-47466780D01*
X159430933Y-47466780D01*
X159335695Y-47419161D01*
X159288076Y-47371542D01*
X153677382Y-45503980D02*
X153629763Y-45551599D01*
X153486906Y-45599218D01*
X153391668Y-45599218D01*
X153248811Y-45551599D01*
X153153573Y-45456361D01*
X153105954Y-45361123D01*
X153058335Y-45170647D01*
X153058335Y-45027790D01*
X153105954Y-44837314D01*
X153153573Y-44742076D01*
X153248811Y-44646838D01*
X153391668Y-44599218D01*
X153486906Y-44599218D01*
X153629763Y-44646838D01*
X153677382Y-44694457D01*
X154534525Y-44932552D02*
X154534525Y-45599218D01*
X154296430Y-44551599D02*
X154058335Y-45265885D01*
X154677382Y-45265885D01*
X155486906Y-44599218D02*
X155296430Y-44599218D01*
X155201192Y-44646838D01*
X155153573Y-44694457D01*
X155058335Y-44837314D01*
X155010716Y-45027790D01*
X155010716Y-45408742D01*
X155058335Y-45503980D01*
X155105954Y-45551599D01*
X155201192Y-45599218D01*
X155391668Y-45599218D01*
X155486906Y-45551599D01*
X155534525Y-45503980D01*
X155582144Y-45408742D01*
X155582144Y-45170647D01*
X155534525Y-45075409D01*
X155486906Y-45027790D01*
X155391668Y-44980171D01*
X155201192Y-44980171D01*
X155105954Y-45027790D01*
X155058335Y-45075409D01*
X155010716Y-45170647D01*
X157954742Y-87147942D02*
X157907123Y-87195561D01*
X157764266Y-87243180D01*
X157669028Y-87243180D01*
X157526171Y-87195561D01*
X157430933Y-87100323D01*
X157383314Y-87005085D01*
X157335695Y-86814609D01*
X157335695Y-86671752D01*
X157383314Y-86481276D01*
X157430933Y-86386038D01*
X157526171Y-86290800D01*
X157669028Y-86243180D01*
X157764266Y-86243180D01*
X157907123Y-86290800D01*
X157954742Y-86338419D01*
X158811885Y-86576514D02*
X158811885Y-87243180D01*
X158573790Y-86195561D02*
X158335695Y-86909847D01*
X158954742Y-86909847D01*
X159240457Y-86243180D02*
X159907123Y-86243180D01*
X159478552Y-87243180D01*
X60543622Y-39921417D02*
X60591241Y-39969036D01*
X60638860Y-40111893D01*
X60638860Y-40207131D01*
X60591241Y-40349988D01*
X60496003Y-40445226D01*
X60400765Y-40492845D01*
X60210289Y-40540464D01*
X60067432Y-40540464D01*
X59876956Y-40492845D01*
X59781718Y-40445226D01*
X59686480Y-40349988D01*
X59638860Y-40207131D01*
X59638860Y-40111893D01*
X59686480Y-39969036D01*
X59734099Y-39921417D01*
X59972194Y-39064274D02*
X60638860Y-39064274D01*
X59591241Y-39302369D02*
X60305527Y-39540464D01*
X60305527Y-38921417D01*
X60638860Y-38492845D02*
X60638860Y-38302369D01*
X60591241Y-38207131D01*
X60543622Y-38159512D01*
X60400765Y-38064274D01*
X60210289Y-38016655D01*
X59829337Y-38016655D01*
X59734099Y-38064274D01*
X59686480Y-38111893D01*
X59638860Y-38207131D01*
X59638860Y-38397607D01*
X59686480Y-38492845D01*
X59734099Y-38540464D01*
X59829337Y-38588083D01*
X60067432Y-38588083D01*
X60162670Y-38540464D01*
X60210289Y-38492845D01*
X60257908Y-38397607D01*
X60257908Y-38207131D01*
X60210289Y-38111893D01*
X60162670Y-38064274D01*
X60067432Y-38016655D01*
X61244662Y-60236337D02*
X61292281Y-60283956D01*
X61339900Y-60426813D01*
X61339900Y-60522051D01*
X61292281Y-60664908D01*
X61197043Y-60760146D01*
X61101805Y-60807765D01*
X60911329Y-60855384D01*
X60768472Y-60855384D01*
X60577996Y-60807765D01*
X60482758Y-60760146D01*
X60387520Y-60664908D01*
X60339900Y-60522051D01*
X60339900Y-60426813D01*
X60387520Y-60283956D01*
X60435139Y-60236337D01*
X60339900Y-59331575D02*
X60339900Y-59807765D01*
X60816091Y-59855384D01*
X60768472Y-59807765D01*
X60720853Y-59712527D01*
X60720853Y-59474432D01*
X60768472Y-59379194D01*
X60816091Y-59331575D01*
X60911329Y-59283956D01*
X61149424Y-59283956D01*
X61244662Y-59331575D01*
X61292281Y-59379194D01*
X61339900Y-59474432D01*
X61339900Y-59712527D01*
X61292281Y-59807765D01*
X61244662Y-59855384D01*
X60339900Y-58664908D02*
X60339900Y-58569670D01*
X60387520Y-58474432D01*
X60435139Y-58426813D01*
X60530377Y-58379194D01*
X60720853Y-58331575D01*
X60958948Y-58331575D01*
X61149424Y-58379194D01*
X61244662Y-58426813D01*
X61292281Y-58474432D01*
X61339900Y-58569670D01*
X61339900Y-58664908D01*
X61292281Y-58760146D01*
X61244662Y-58807765D01*
X61149424Y-58855384D01*
X60958948Y-58903003D01*
X60720853Y-58903003D01*
X60530377Y-58855384D01*
X60435139Y-58807765D01*
X60387520Y-58760146D01*
X60339900Y-58664908D01*
X60777302Y-79084577D02*
X60824921Y-79132196D01*
X60872540Y-79275053D01*
X60872540Y-79370291D01*
X60824921Y-79513148D01*
X60729683Y-79608386D01*
X60634445Y-79656005D01*
X60443969Y-79703624D01*
X60301112Y-79703624D01*
X60110636Y-79656005D01*
X60015398Y-79608386D01*
X59920160Y-79513148D01*
X59872540Y-79370291D01*
X59872540Y-79275053D01*
X59920160Y-79132196D01*
X59967779Y-79084577D01*
X59872540Y-78179815D02*
X59872540Y-78656005D01*
X60348731Y-78703624D01*
X60301112Y-78656005D01*
X60253493Y-78560767D01*
X60253493Y-78322672D01*
X60301112Y-78227434D01*
X60348731Y-78179815D01*
X60443969Y-78132196D01*
X60682064Y-78132196D01*
X60777302Y-78179815D01*
X60824921Y-78227434D01*
X60872540Y-78322672D01*
X60872540Y-78560767D01*
X60824921Y-78656005D01*
X60777302Y-78703624D01*
X60872540Y-77179815D02*
X60872540Y-77751243D01*
X60872540Y-77465529D02*
X59872540Y-77465529D01*
X60015398Y-77560767D01*
X60110636Y-77656005D01*
X60158255Y-77751243D01*
X60777302Y-100068617D02*
X60824921Y-100116236D01*
X60872540Y-100259093D01*
X60872540Y-100354331D01*
X60824921Y-100497188D01*
X60729683Y-100592426D01*
X60634445Y-100640045D01*
X60443969Y-100687664D01*
X60301112Y-100687664D01*
X60110636Y-100640045D01*
X60015398Y-100592426D01*
X59920160Y-100497188D01*
X59872540Y-100354331D01*
X59872540Y-100259093D01*
X59920160Y-100116236D01*
X59967779Y-100068617D01*
X59872540Y-99163855D02*
X59872540Y-99640045D01*
X60348731Y-99687664D01*
X60301112Y-99640045D01*
X60253493Y-99544807D01*
X60253493Y-99306712D01*
X60301112Y-99211474D01*
X60348731Y-99163855D01*
X60443969Y-99116236D01*
X60682064Y-99116236D01*
X60777302Y-99163855D01*
X60824921Y-99211474D01*
X60872540Y-99306712D01*
X60872540Y-99544807D01*
X60824921Y-99640045D01*
X60777302Y-99687664D01*
X59967779Y-98735283D02*
X59920160Y-98687664D01*
X59872540Y-98592426D01*
X59872540Y-98354331D01*
X59920160Y-98259093D01*
X59967779Y-98211474D01*
X60063017Y-98163855D01*
X60158255Y-98163855D01*
X60301112Y-98211474D01*
X60872540Y-98782902D01*
X60872540Y-98163855D01*
X68786102Y-39911257D02*
X68833721Y-39958876D01*
X68881340Y-40101733D01*
X68881340Y-40196971D01*
X68833721Y-40339828D01*
X68738483Y-40435066D01*
X68643245Y-40482685D01*
X68452769Y-40530304D01*
X68309912Y-40530304D01*
X68119436Y-40482685D01*
X68024198Y-40435066D01*
X67928960Y-40339828D01*
X67881340Y-40196971D01*
X67881340Y-40101733D01*
X67928960Y-39958876D01*
X67976579Y-39911257D01*
X67881340Y-39006495D02*
X67881340Y-39482685D01*
X68357531Y-39530304D01*
X68309912Y-39482685D01*
X68262293Y-39387447D01*
X68262293Y-39149352D01*
X68309912Y-39054114D01*
X68357531Y-39006495D01*
X68452769Y-38958876D01*
X68690864Y-38958876D01*
X68786102Y-39006495D01*
X68833721Y-39054114D01*
X68881340Y-39149352D01*
X68881340Y-39387447D01*
X68833721Y-39482685D01*
X68786102Y-39530304D01*
X67881340Y-38625542D02*
X67881340Y-38006495D01*
X68262293Y-38339828D01*
X68262293Y-38196971D01*
X68309912Y-38101733D01*
X68357531Y-38054114D01*
X68452769Y-38006495D01*
X68690864Y-38006495D01*
X68786102Y-38054114D01*
X68833721Y-38101733D01*
X68881340Y-38196971D01*
X68881340Y-38482685D01*
X68833721Y-38577923D01*
X68786102Y-38625542D01*
X68786102Y-60200777D02*
X68833721Y-60248396D01*
X68881340Y-60391253D01*
X68881340Y-60486491D01*
X68833721Y-60629348D01*
X68738483Y-60724586D01*
X68643245Y-60772205D01*
X68452769Y-60819824D01*
X68309912Y-60819824D01*
X68119436Y-60772205D01*
X68024198Y-60724586D01*
X67928960Y-60629348D01*
X67881340Y-60486491D01*
X67881340Y-60391253D01*
X67928960Y-60248396D01*
X67976579Y-60200777D01*
X67881340Y-59296015D02*
X67881340Y-59772205D01*
X68357531Y-59819824D01*
X68309912Y-59772205D01*
X68262293Y-59676967D01*
X68262293Y-59438872D01*
X68309912Y-59343634D01*
X68357531Y-59296015D01*
X68452769Y-59248396D01*
X68690864Y-59248396D01*
X68786102Y-59296015D01*
X68833721Y-59343634D01*
X68881340Y-59438872D01*
X68881340Y-59676967D01*
X68833721Y-59772205D01*
X68786102Y-59819824D01*
X68214674Y-58391253D02*
X68881340Y-58391253D01*
X67833721Y-58629348D02*
X68548007Y-58867443D01*
X68548007Y-58248396D01*
X68318742Y-79084577D02*
X68366361Y-79132196D01*
X68413980Y-79275053D01*
X68413980Y-79370291D01*
X68366361Y-79513148D01*
X68271123Y-79608386D01*
X68175885Y-79656005D01*
X67985409Y-79703624D01*
X67842552Y-79703624D01*
X67652076Y-79656005D01*
X67556838Y-79608386D01*
X67461600Y-79513148D01*
X67413980Y-79370291D01*
X67413980Y-79275053D01*
X67461600Y-79132196D01*
X67509219Y-79084577D01*
X67413980Y-78179815D02*
X67413980Y-78656005D01*
X67890171Y-78703624D01*
X67842552Y-78656005D01*
X67794933Y-78560767D01*
X67794933Y-78322672D01*
X67842552Y-78227434D01*
X67890171Y-78179815D01*
X67985409Y-78132196D01*
X68223504Y-78132196D01*
X68318742Y-78179815D01*
X68366361Y-78227434D01*
X68413980Y-78322672D01*
X68413980Y-78560767D01*
X68366361Y-78656005D01*
X68318742Y-78703624D01*
X67413980Y-77227434D02*
X67413980Y-77703624D01*
X67890171Y-77751243D01*
X67842552Y-77703624D01*
X67794933Y-77608386D01*
X67794933Y-77370291D01*
X67842552Y-77275053D01*
X67890171Y-77227434D01*
X67985409Y-77179815D01*
X68223504Y-77179815D01*
X68318742Y-77227434D01*
X68366361Y-77275053D01*
X68413980Y-77370291D01*
X68413980Y-77608386D01*
X68366361Y-77703624D01*
X68318742Y-77751243D01*
X68318742Y-100312457D02*
X68366361Y-100360076D01*
X68413980Y-100502933D01*
X68413980Y-100598171D01*
X68366361Y-100741028D01*
X68271123Y-100836266D01*
X68175885Y-100883885D01*
X67985409Y-100931504D01*
X67842552Y-100931504D01*
X67652076Y-100883885D01*
X67556838Y-100836266D01*
X67461600Y-100741028D01*
X67413980Y-100598171D01*
X67413980Y-100502933D01*
X67461600Y-100360076D01*
X67509219Y-100312457D01*
X67413980Y-99407695D02*
X67413980Y-99883885D01*
X67890171Y-99931504D01*
X67842552Y-99883885D01*
X67794933Y-99788647D01*
X67794933Y-99550552D01*
X67842552Y-99455314D01*
X67890171Y-99407695D01*
X67985409Y-99360076D01*
X68223504Y-99360076D01*
X68318742Y-99407695D01*
X68366361Y-99455314D01*
X68413980Y-99550552D01*
X68413980Y-99788647D01*
X68366361Y-99883885D01*
X68318742Y-99931504D01*
X67413980Y-98502933D02*
X67413980Y-98693409D01*
X67461600Y-98788647D01*
X67509219Y-98836266D01*
X67652076Y-98931504D01*
X67842552Y-98979123D01*
X68223504Y-98979123D01*
X68318742Y-98931504D01*
X68366361Y-98883885D01*
X68413980Y-98788647D01*
X68413980Y-98598171D01*
X68366361Y-98502933D01*
X68318742Y-98455314D01*
X68223504Y-98407695D01*
X67985409Y-98407695D01*
X67890171Y-98455314D01*
X67842552Y-98502933D01*
X67794933Y-98598171D01*
X67794933Y-98788647D01*
X67842552Y-98883885D01*
X67890171Y-98931504D01*
X67985409Y-98979123D01*
X179621542Y-100876337D02*
X179669161Y-100923956D01*
X179716780Y-101066813D01*
X179716780Y-101162051D01*
X179669161Y-101304908D01*
X179573923Y-101400146D01*
X179478685Y-101447765D01*
X179288209Y-101495384D01*
X179145352Y-101495384D01*
X178954876Y-101447765D01*
X178859638Y-101400146D01*
X178764400Y-101304908D01*
X178716780Y-101162051D01*
X178716780Y-101066813D01*
X178764400Y-100923956D01*
X178812019Y-100876337D01*
X178716780Y-100019194D02*
X178716780Y-100209670D01*
X178764400Y-100304908D01*
X178812019Y-100352527D01*
X178954876Y-100447765D01*
X179145352Y-100495384D01*
X179526304Y-100495384D01*
X179621542Y-100447765D01*
X179669161Y-100400146D01*
X179716780Y-100304908D01*
X179716780Y-100114432D01*
X179669161Y-100019194D01*
X179621542Y-99971575D01*
X179526304Y-99923956D01*
X179288209Y-99923956D01*
X179192971Y-99971575D01*
X179145352Y-100019194D01*
X179097733Y-100114432D01*
X179097733Y-100304908D01*
X179145352Y-100400146D01*
X179192971Y-100447765D01*
X179288209Y-100495384D01*
X179716780Y-98971575D02*
X179716780Y-99543003D01*
X179716780Y-99257289D02*
X178716780Y-99257289D01*
X178859638Y-99352527D01*
X178954876Y-99447765D01*
X179002495Y-99543003D01*
X180454662Y-29548057D02*
X180502281Y-29595676D01*
X180549900Y-29738533D01*
X180549900Y-29833771D01*
X180502281Y-29976628D01*
X180407043Y-30071866D01*
X180311805Y-30119485D01*
X180121329Y-30167104D01*
X179978472Y-30167104D01*
X179787996Y-30119485D01*
X179692758Y-30071866D01*
X179597520Y-29976628D01*
X179549900Y-29833771D01*
X179549900Y-29738533D01*
X179597520Y-29595676D01*
X179645139Y-29548057D01*
X179549900Y-28690914D02*
X179549900Y-28881390D01*
X179597520Y-28976628D01*
X179645139Y-29024247D01*
X179787996Y-29119485D01*
X179978472Y-29167104D01*
X180359424Y-29167104D01*
X180454662Y-29119485D01*
X180502281Y-29071866D01*
X180549900Y-28976628D01*
X180549900Y-28786152D01*
X180502281Y-28690914D01*
X180454662Y-28643295D01*
X180359424Y-28595676D01*
X180121329Y-28595676D01*
X180026091Y-28643295D01*
X179978472Y-28690914D01*
X179930853Y-28786152D01*
X179930853Y-28976628D01*
X179978472Y-29071866D01*
X180026091Y-29119485D01*
X180121329Y-29167104D01*
X179645139Y-28214723D02*
X179597520Y-28167104D01*
X179549900Y-28071866D01*
X179549900Y-27833771D01*
X179597520Y-27738533D01*
X179645139Y-27690914D01*
X179740377Y-27643295D01*
X179835615Y-27643295D01*
X179978472Y-27690914D01*
X180549900Y-28262342D01*
X180549900Y-27643295D01*
X178793502Y-49878217D02*
X178841121Y-49925836D01*
X178888740Y-50068693D01*
X178888740Y-50163931D01*
X178841121Y-50306788D01*
X178745883Y-50402026D01*
X178650645Y-50449645D01*
X178460169Y-50497264D01*
X178317312Y-50497264D01*
X178126836Y-50449645D01*
X178031598Y-50402026D01*
X177936360Y-50306788D01*
X177888740Y-50163931D01*
X177888740Y-50068693D01*
X177936360Y-49925836D01*
X177983979Y-49878217D01*
X177888740Y-49021074D02*
X177888740Y-49211550D01*
X177936360Y-49306788D01*
X177983979Y-49354407D01*
X178126836Y-49449645D01*
X178317312Y-49497264D01*
X178698264Y-49497264D01*
X178793502Y-49449645D01*
X178841121Y-49402026D01*
X178888740Y-49306788D01*
X178888740Y-49116312D01*
X178841121Y-49021074D01*
X178793502Y-48973455D01*
X178698264Y-48925836D01*
X178460169Y-48925836D01*
X178364931Y-48973455D01*
X178317312Y-49021074D01*
X178269693Y-49116312D01*
X178269693Y-49306788D01*
X178317312Y-49402026D01*
X178364931Y-49449645D01*
X178460169Y-49497264D01*
X177888740Y-48592502D02*
X177888740Y-47973455D01*
X178269693Y-48306788D01*
X178269693Y-48163931D01*
X178317312Y-48068693D01*
X178364931Y-48021074D01*
X178460169Y-47973455D01*
X178698264Y-47973455D01*
X178793502Y-48021074D01*
X178841121Y-48068693D01*
X178888740Y-48163931D01*
X178888740Y-48449645D01*
X178841121Y-48544883D01*
X178793502Y-48592502D01*
X178397262Y-69842617D02*
X178444881Y-69890236D01*
X178492500Y-70033093D01*
X178492500Y-70128331D01*
X178444881Y-70271188D01*
X178349643Y-70366426D01*
X178254405Y-70414045D01*
X178063929Y-70461664D01*
X177921072Y-70461664D01*
X177730596Y-70414045D01*
X177635358Y-70366426D01*
X177540120Y-70271188D01*
X177492500Y-70128331D01*
X177492500Y-70033093D01*
X177540120Y-69890236D01*
X177587739Y-69842617D01*
X177492500Y-68985474D02*
X177492500Y-69175950D01*
X177540120Y-69271188D01*
X177587739Y-69318807D01*
X177730596Y-69414045D01*
X177921072Y-69461664D01*
X178302024Y-69461664D01*
X178397262Y-69414045D01*
X178444881Y-69366426D01*
X178492500Y-69271188D01*
X178492500Y-69080712D01*
X178444881Y-68985474D01*
X178397262Y-68937855D01*
X178302024Y-68890236D01*
X178063929Y-68890236D01*
X177968691Y-68937855D01*
X177921072Y-68985474D01*
X177873453Y-69080712D01*
X177873453Y-69271188D01*
X177921072Y-69366426D01*
X177968691Y-69414045D01*
X178063929Y-69461664D01*
X177825834Y-68033093D02*
X178492500Y-68033093D01*
X177444881Y-68271188D02*
X178159167Y-68509283D01*
X178159167Y-67890236D01*
X178813822Y-89888297D02*
X178861441Y-89935916D01*
X178909060Y-90078773D01*
X178909060Y-90174011D01*
X178861441Y-90316868D01*
X178766203Y-90412106D01*
X178670965Y-90459725D01*
X178480489Y-90507344D01*
X178337632Y-90507344D01*
X178147156Y-90459725D01*
X178051918Y-90412106D01*
X177956680Y-90316868D01*
X177909060Y-90174011D01*
X177909060Y-90078773D01*
X177956680Y-89935916D01*
X178004299Y-89888297D01*
X177909060Y-89031154D02*
X177909060Y-89221630D01*
X177956680Y-89316868D01*
X178004299Y-89364487D01*
X178147156Y-89459725D01*
X178337632Y-89507344D01*
X178718584Y-89507344D01*
X178813822Y-89459725D01*
X178861441Y-89412106D01*
X178909060Y-89316868D01*
X178909060Y-89126392D01*
X178861441Y-89031154D01*
X178813822Y-88983535D01*
X178718584Y-88935916D01*
X178480489Y-88935916D01*
X178385251Y-88983535D01*
X178337632Y-89031154D01*
X178290013Y-89126392D01*
X178290013Y-89316868D01*
X178337632Y-89412106D01*
X178385251Y-89459725D01*
X178480489Y-89507344D01*
X177909060Y-88031154D02*
X177909060Y-88507344D01*
X178385251Y-88554963D01*
X178337632Y-88507344D01*
X178290013Y-88412106D01*
X178290013Y-88174011D01*
X178337632Y-88078773D01*
X178385251Y-88031154D01*
X178480489Y-87983535D01*
X178718584Y-87983535D01*
X178813822Y-88031154D01*
X178861441Y-88078773D01*
X178909060Y-88174011D01*
X178909060Y-88412106D01*
X178861441Y-88507344D01*
X178813822Y-88554963D01*
X196016642Y-69233142D02*
X195969023Y-69280761D01*
X195826166Y-69328380D01*
X195730928Y-69328380D01*
X195588071Y-69280761D01*
X195492833Y-69185523D01*
X195445214Y-69090285D01*
X195397595Y-68899809D01*
X195397595Y-68756952D01*
X195445214Y-68566476D01*
X195492833Y-68471238D01*
X195588071Y-68376000D01*
X195730928Y-68328380D01*
X195826166Y-68328380D01*
X195969023Y-68376000D01*
X196016642Y-68423619D01*
X196873785Y-68328380D02*
X196683309Y-68328380D01*
X196588071Y-68376000D01*
X196540452Y-68423619D01*
X196445214Y-68566476D01*
X196397595Y-68756952D01*
X196397595Y-69137904D01*
X196445214Y-69233142D01*
X196492833Y-69280761D01*
X196588071Y-69328380D01*
X196778547Y-69328380D01*
X196873785Y-69280761D01*
X196921404Y-69233142D01*
X196969023Y-69137904D01*
X196969023Y-68899809D01*
X196921404Y-68804571D01*
X196873785Y-68756952D01*
X196778547Y-68709333D01*
X196588071Y-68709333D01*
X196492833Y-68756952D01*
X196445214Y-68804571D01*
X196397595Y-68899809D01*
X197826166Y-68328380D02*
X197635690Y-68328380D01*
X197540452Y-68376000D01*
X197492833Y-68423619D01*
X197397595Y-68566476D01*
X197349976Y-68756952D01*
X197349976Y-69137904D01*
X197397595Y-69233142D01*
X197445214Y-69280761D01*
X197540452Y-69328380D01*
X197730928Y-69328380D01*
X197826166Y-69280761D01*
X197873785Y-69233142D01*
X197921404Y-69137904D01*
X197921404Y-68899809D01*
X197873785Y-68804571D01*
X197826166Y-68756952D01*
X197730928Y-68709333D01*
X197540452Y-68709333D01*
X197445214Y-68756952D01*
X197397595Y-68804571D01*
X197349976Y-68899809D01*
X173421222Y-29563297D02*
X173468841Y-29610916D01*
X173516460Y-29753773D01*
X173516460Y-29849011D01*
X173468841Y-29991868D01*
X173373603Y-30087106D01*
X173278365Y-30134725D01*
X173087889Y-30182344D01*
X172945032Y-30182344D01*
X172754556Y-30134725D01*
X172659318Y-30087106D01*
X172564080Y-29991868D01*
X172516460Y-29849011D01*
X172516460Y-29753773D01*
X172564080Y-29610916D01*
X172611699Y-29563297D01*
X172516460Y-28706154D02*
X172516460Y-28896630D01*
X172564080Y-28991868D01*
X172611699Y-29039487D01*
X172754556Y-29134725D01*
X172945032Y-29182344D01*
X173325984Y-29182344D01*
X173421222Y-29134725D01*
X173468841Y-29087106D01*
X173516460Y-28991868D01*
X173516460Y-28801392D01*
X173468841Y-28706154D01*
X173421222Y-28658535D01*
X173325984Y-28610916D01*
X173087889Y-28610916D01*
X172992651Y-28658535D01*
X172945032Y-28706154D01*
X172897413Y-28801392D01*
X172897413Y-28991868D01*
X172945032Y-29087106D01*
X172992651Y-29134725D01*
X173087889Y-29182344D01*
X172516460Y-28277582D02*
X172516460Y-27610916D01*
X173516460Y-28039487D01*
X172080102Y-49903617D02*
X172127721Y-49951236D01*
X172175340Y-50094093D01*
X172175340Y-50189331D01*
X172127721Y-50332188D01*
X172032483Y-50427426D01*
X171937245Y-50475045D01*
X171746769Y-50522664D01*
X171603912Y-50522664D01*
X171413436Y-50475045D01*
X171318198Y-50427426D01*
X171222960Y-50332188D01*
X171175340Y-50189331D01*
X171175340Y-50094093D01*
X171222960Y-49951236D01*
X171270579Y-49903617D01*
X171175340Y-49046474D02*
X171175340Y-49236950D01*
X171222960Y-49332188D01*
X171270579Y-49379807D01*
X171413436Y-49475045D01*
X171603912Y-49522664D01*
X171984864Y-49522664D01*
X172080102Y-49475045D01*
X172127721Y-49427426D01*
X172175340Y-49332188D01*
X172175340Y-49141712D01*
X172127721Y-49046474D01*
X172080102Y-48998855D01*
X171984864Y-48951236D01*
X171746769Y-48951236D01*
X171651531Y-48998855D01*
X171603912Y-49046474D01*
X171556293Y-49141712D01*
X171556293Y-49332188D01*
X171603912Y-49427426D01*
X171651531Y-49475045D01*
X171746769Y-49522664D01*
X171603912Y-48379807D02*
X171556293Y-48475045D01*
X171508674Y-48522664D01*
X171413436Y-48570283D01*
X171365817Y-48570283D01*
X171270579Y-48522664D01*
X171222960Y-48475045D01*
X171175340Y-48379807D01*
X171175340Y-48189331D01*
X171222960Y-48094093D01*
X171270579Y-48046474D01*
X171365817Y-47998855D01*
X171413436Y-47998855D01*
X171508674Y-48046474D01*
X171556293Y-48094093D01*
X171603912Y-48189331D01*
X171603912Y-48379807D01*
X171651531Y-48475045D01*
X171699150Y-48522664D01*
X171794388Y-48570283D01*
X171984864Y-48570283D01*
X172080102Y-48522664D01*
X172127721Y-48475045D01*
X172175340Y-48379807D01*
X172175340Y-48189331D01*
X172127721Y-48094093D01*
X172080102Y-48046474D01*
X171984864Y-47998855D01*
X171794388Y-47998855D01*
X171699150Y-48046474D01*
X171651531Y-48094093D01*
X171603912Y-48189331D01*
X171856582Y-69837537D02*
X171904201Y-69885156D01*
X171951820Y-70028013D01*
X171951820Y-70123251D01*
X171904201Y-70266108D01*
X171808963Y-70361346D01*
X171713725Y-70408965D01*
X171523249Y-70456584D01*
X171380392Y-70456584D01*
X171189916Y-70408965D01*
X171094678Y-70361346D01*
X170999440Y-70266108D01*
X170951820Y-70123251D01*
X170951820Y-70028013D01*
X170999440Y-69885156D01*
X171047059Y-69837537D01*
X170951820Y-68980394D02*
X170951820Y-69170870D01*
X170999440Y-69266108D01*
X171047059Y-69313727D01*
X171189916Y-69408965D01*
X171380392Y-69456584D01*
X171761344Y-69456584D01*
X171856582Y-69408965D01*
X171904201Y-69361346D01*
X171951820Y-69266108D01*
X171951820Y-69075632D01*
X171904201Y-68980394D01*
X171856582Y-68932775D01*
X171761344Y-68885156D01*
X171523249Y-68885156D01*
X171428011Y-68932775D01*
X171380392Y-68980394D01*
X171332773Y-69075632D01*
X171332773Y-69266108D01*
X171380392Y-69361346D01*
X171428011Y-69408965D01*
X171523249Y-69456584D01*
X171951820Y-68408965D02*
X171951820Y-68218489D01*
X171904201Y-68123251D01*
X171856582Y-68075632D01*
X171713725Y-67980394D01*
X171523249Y-67932775D01*
X171142297Y-67932775D01*
X171047059Y-67980394D01*
X170999440Y-68028013D01*
X170951820Y-68123251D01*
X170951820Y-68313727D01*
X170999440Y-68408965D01*
X171047059Y-68456584D01*
X171142297Y-68504203D01*
X171380392Y-68504203D01*
X171475630Y-68456584D01*
X171523249Y-68408965D01*
X171570868Y-68313727D01*
X171570868Y-68123251D01*
X171523249Y-68028013D01*
X171475630Y-67980394D01*
X171380392Y-67932775D01*
X171841342Y-89888297D02*
X171888961Y-89935916D01*
X171936580Y-90078773D01*
X171936580Y-90174011D01*
X171888961Y-90316868D01*
X171793723Y-90412106D01*
X171698485Y-90459725D01*
X171508009Y-90507344D01*
X171365152Y-90507344D01*
X171174676Y-90459725D01*
X171079438Y-90412106D01*
X170984200Y-90316868D01*
X170936580Y-90174011D01*
X170936580Y-90078773D01*
X170984200Y-89935916D01*
X171031819Y-89888297D01*
X170936580Y-89554963D02*
X170936580Y-88888297D01*
X171936580Y-89316868D01*
X170936580Y-88316868D02*
X170936580Y-88221630D01*
X170984200Y-88126392D01*
X171031819Y-88078773D01*
X171127057Y-88031154D01*
X171317533Y-87983535D01*
X171555628Y-87983535D01*
X171746104Y-88031154D01*
X171841342Y-88078773D01*
X171888961Y-88126392D01*
X171936580Y-88221630D01*
X171936580Y-88316868D01*
X171888961Y-88412106D01*
X171841342Y-88459725D01*
X171746104Y-88507344D01*
X171555628Y-88554963D01*
X171317533Y-88554963D01*
X171127057Y-88507344D01*
X171031819Y-88459725D01*
X170984200Y-88412106D01*
X170936580Y-88316868D01*
X85805946Y-107054260D02*
X85805946Y-107768546D01*
X85758327Y-107911403D01*
X85663089Y-108006641D01*
X85520232Y-108054260D01*
X85424994Y-108054260D01*
X86710708Y-107054260D02*
X86520232Y-107054260D01*
X86424994Y-107101880D01*
X86377375Y-107149499D01*
X86282137Y-107292356D01*
X86234518Y-107482832D01*
X86234518Y-107863784D01*
X86282137Y-107959022D01*
X86329756Y-108006641D01*
X86424994Y-108054260D01*
X86615470Y-108054260D01*
X86710708Y-108006641D01*
X86758327Y-107959022D01*
X86805946Y-107863784D01*
X86805946Y-107625689D01*
X86758327Y-107530451D01*
X86710708Y-107482832D01*
X86615470Y-107435213D01*
X86424994Y-107435213D01*
X86329756Y-107482832D01*
X86282137Y-107530451D01*
X86234518Y-107625689D01*
X201201900Y-97770013D02*
X201916186Y-97770013D01*
X202059043Y-97817632D01*
X202154281Y-97912870D01*
X202201900Y-98055727D01*
X202201900Y-98150965D01*
X201201900Y-97389060D02*
X201201900Y-96722394D01*
X202201900Y-97150965D01*
X169417666Y-106820580D02*
X169417666Y-107534866D01*
X169370047Y-107677723D01*
X169274809Y-107772961D01*
X169131952Y-107820580D01*
X169036714Y-107820580D01*
X170036714Y-107249152D02*
X169941476Y-107201533D01*
X169893857Y-107153914D01*
X169846238Y-107058676D01*
X169846238Y-107011057D01*
X169893857Y-106915819D01*
X169941476Y-106868200D01*
X170036714Y-106820580D01*
X170227190Y-106820580D01*
X170322428Y-106868200D01*
X170370047Y-106915819D01*
X170417666Y-107011057D01*
X170417666Y-107058676D01*
X170370047Y-107153914D01*
X170322428Y-107201533D01*
X170227190Y-107249152D01*
X170036714Y-107249152D01*
X169941476Y-107296771D01*
X169893857Y-107344390D01*
X169846238Y-107439628D01*
X169846238Y-107630104D01*
X169893857Y-107725342D01*
X169941476Y-107772961D01*
X170036714Y-107820580D01*
X170227190Y-107820580D01*
X170322428Y-107772961D01*
X170370047Y-107725342D01*
X170417666Y-107630104D01*
X170417666Y-107439628D01*
X170370047Y-107344390D01*
X170322428Y-107296771D01*
X170227190Y-107249152D01*
M02*
