M48
; DRILL file {KiCad (5.1.10)-1} date 09/09/21 12:48:55
; FORMAT={-:-/ absolute / metric / decimal}
; #@! TF.CreationDate,2021-09-09T12:48:55+02:00
; #@! TF.GenerationSoftware,Kicad,Pcbnew,(5.1.10)-1
; #@! TF.FileFunction,Plated,1,2,PTH
FMAT,2
METRIC
T1C0.400
T2C1.000
T3C1.200
T4C1.500
T5C1.700
%
G90
G05
T1
X58.064Y-71.084
X58.115Y-65.969
X58.146Y-61.112
X58.293Y-55.946
X58.384Y-45.669
X58.395Y-50.836
X58.42Y-81.366
X58.42Y-91.425
X58.42Y-96.388
X58.461Y-76.195
X58.461Y-86.411
X58.481Y-40.853
X58.517Y-101.702
X58.583Y-35.443
X58.618Y-106.812
X60.935Y-30.536
X61.057Y-72.487
X61.524Y-93.589
X61.702Y-52.796
X61.885Y-33.584
X64.247Y-83.337
X64.369Y-69.22
X64.414Y-47.554
X64.43Y-89.113
X64.511Y-42.565
X64.546Y-64.216
X65.1Y-28.057
X65.974Y-24.318
X68.275Y-73.964
X68.296Y-72.476
X68.621Y-33.64
X68.621Y-35.281
X68.854Y-52.817
X68.854Y-54.446
X71.338Y-23.922
X76.302Y-24.069
X91.369Y-84.999
X91.41Y-106.7
X91.435Y-78.501
X91.435Y-101.625
X91.506Y-97.5
X91.526Y-23.551
X92.029Y-44.475
X96.5Y-23.373
X96.606Y-106.7
X101.564Y-23.424
X101.722Y-106.7
X106.675Y-23.571
X106.751Y-106.782
X111.78Y-106.782
X116.977Y-106.614
X119.842Y-99.954
X120.294Y-84.511
X120.396Y-44.272
X120.396Y-57.45
X120.396Y-64.394
X120.396Y-79.685
X120.696Y-23.048
X121.671Y-106.782
X126.98Y-23.119
X127.036Y-106.614
X132.11Y-23.119
X132.319Y-106.7
X135.128Y-109.728
X136.931Y-106.614
X142.21Y-106.533
X147.157Y-106.533
X147.244Y-84.262
X147.244Y-100.076
X147.488Y-79.192
X147.726Y-63.861
X147.813Y-23.957
X147.848Y-57.582
X148.097Y-44.521
X152.522Y-106.782
X153.67Y-95.885
X156.845Y-90.805
X157.48Y-88.9
X157.48Y-100.076
X160.02Y-87.63
X161.29Y-95.885
X162.499Y-106.7
X162.59Y-22.433
X163.195Y-93.345
X164.465Y-84.455
X167.005Y-93.98
X167.615Y-22.433
X167.64Y-84.328
X167.64Y-87.376
X168.846Y-53.594
X170.553Y-55.428
X172.756Y-22.489
X173.736Y-80.772
X176.403Y-37.973
X177.561Y-77.602
X177.609Y-79.057
X177.658Y-94.793
X177.688Y-63.957
X177.729Y-22.52
X177.836Y-74.773
X177.866Y-54.463
X178.151Y-34.082
X178.242Y-36.657
X178.471Y-33.015
X179.578Y-88.138
X180.282Y-64.018
X180.99Y-77.353
X181.026Y-36.657
X181.292Y-79.057
X181.673Y-84.836
X181.864Y-37.91
X182.54Y-92.664
X182.839Y-22.576
X182.88Y-80.772
X184.087Y-24.257
X186.436Y-79.248
X186.69Y-35.496
X186.754Y-81.724
X186.88Y-32.956
X187.261Y-75.438
X187.94Y-22.626
X187.96Y-45.72
X187.96Y-50.8
X187.96Y-55.88
X187.96Y-60.96
X187.96Y-66.04
X190.754Y-75.819
X191.516Y-83.82
X197.734Y-50.815
X198.12Y-96.52
X198.628Y-91.44
X199.072Y-75.819
X203.01Y-54.737
X203.2Y-76.2
X203.2Y-81.28
X203.2Y-86.36
X203.2Y-91.44
X203.297Y-30.201
X203.357Y-37.973
X206.248Y-54.864
X206.248Y-60.452
X206.248Y-66.04
X206.248Y-76.2
T2
X92.827Y-28.269
X92.827Y-33.269
X92.862Y-89.088
X92.862Y-94.088
X93.157Y-54.052
X93.157Y-59.052
X93.157Y-69.661
X93.157Y-74.661
X119.644Y-89.088
X119.644Y-94.088
X120.467Y-69.656
X120.467Y-74.656
X120.574Y-48.889
X120.574Y-53.889
X121.097Y-28.421
X121.097Y-33.421
X147.559Y-88.9
X147.559Y-93.9
X148.041Y-69.691
X148.041Y-74.691
X148.128Y-48.899
X148.128Y-53.899
X148.153Y-28.35
X148.153Y-33.35
X198.511Y-32.228
X198.511Y-34.768
X198.511Y-37.308
X198.511Y-39.848
X198.511Y-42.388
X198.511Y-44.928
X198.511Y-47.468
X206.019Y-32.233
X206.019Y-34.773
X206.019Y-37.313
X206.019Y-39.853
X206.019Y-42.393
X206.019Y-44.933
X206.019Y-47.473
T3
X70.83Y-89.588
X70.83Y-99.588
X71.181Y-28.816
X71.181Y-38.816
X71.222Y-69.543
X71.222Y-79.543
X71.394Y-49.568
X71.394Y-59.568
X86.83Y-89.588
X86.83Y-99.588
X87.181Y-28.816
X87.181Y-38.816
X87.222Y-69.543
X87.222Y-79.543
X87.394Y-49.568
X87.394Y-59.568
X98.476Y-89.753
X98.476Y-99.753
X98.776Y-49.555
X98.776Y-59.555
X98.816Y-69.543
X98.816Y-79.543
X99.162Y-28.904
X99.162Y-38.904
X114.476Y-89.753
X114.476Y-99.753
X114.776Y-49.555
X114.776Y-59.555
X114.816Y-69.543
X114.816Y-79.543
X115.162Y-28.904
X115.162Y-38.904
X125.798Y-89.611
X125.798Y-99.611
X126.098Y-49.555
X126.098Y-59.555
X126.138Y-69.543
X126.138Y-79.543
X126.484Y-28.904
X126.484Y-38.904
X141.798Y-89.611
X141.798Y-99.611
X142.098Y-49.555
X142.098Y-59.555
X142.138Y-69.543
X142.138Y-79.543
X142.484Y-28.904
X142.484Y-38.904
X153.799Y-89.53
X153.799Y-99.53
X153.835Y-49.555
X153.835Y-59.555
X153.875Y-69.543
X153.875Y-79.543
X154.221Y-28.904
X154.221Y-38.904
X169.799Y-89.53
X169.799Y-99.53
X169.835Y-49.555
X169.835Y-59.555
X169.875Y-69.543
X169.875Y-79.543
X170.221Y-28.904
X170.221Y-38.904
T4
X64.191Y-107.483
X177.602Y-107.483
X187.762Y-107.32
T5
X61.651Y-104.943
X61.651Y-110.023
X66.731Y-104.943
X66.731Y-110.023
X175.062Y-104.943
X175.062Y-110.023
X180.142Y-104.943
X180.142Y-110.023
X185.222Y-104.78
X185.222Y-109.86
X190.302Y-104.78
X190.302Y-109.86
T0
M30
