G04 #@! TF.GenerationSoftware,KiCad,Pcbnew,(5.1.10)-1*
G04 #@! TF.CreationDate,2021-09-09T12:48:54+02:00*
G04 #@! TF.ProjectId,bandfilter,62616e64-6669-46c7-9465-722e6b696361,rev?*
G04 #@! TF.SameCoordinates,Original*
G04 #@! TF.FileFunction,Paste,Top*
G04 #@! TF.FilePolarity,Positive*
%FSLAX46Y46*%
G04 Gerber Fmt 4.6, Leading zero omitted, Abs format (unit mm)*
G04 Created by KiCad (PCBNEW (5.1.10)-1) date 2021-09-09 12:48:54*
%MOMM*%
%LPD*%
G01*
G04 APERTURE LIST*
%ADD10R,1.560000X0.650000*%
%ADD11R,1.700000X0.900000*%
%ADD12R,0.650000X1.560000*%
%ADD13R,1.500000X5.080000*%
%ADD14R,5.080000X1.500000*%
G04 APERTURE END LIST*
G36*
G01*
X148095000Y-109210000D02*
X148095000Y-107960000D01*
G75*
G02*
X148345000Y-107710000I250000J0D01*
G01*
X149270000Y-107710000D01*
G75*
G02*
X149520000Y-107960000I0J-250000D01*
G01*
X149520000Y-109210000D01*
G75*
G02*
X149270000Y-109460000I-250000J0D01*
G01*
X148345000Y-109460000D01*
G75*
G02*
X148095000Y-109210000I0J250000D01*
G01*
G37*
G36*
G01*
X145120000Y-109210000D02*
X145120000Y-107960000D01*
G75*
G02*
X145370000Y-107710000I250000J0D01*
G01*
X146295000Y-107710000D01*
G75*
G02*
X146545000Y-107960000I0J-250000D01*
G01*
X146545000Y-109210000D01*
G75*
G02*
X146295000Y-109460000I-250000J0D01*
G01*
X145370000Y-109460000D01*
G75*
G02*
X145120000Y-109210000I0J250000D01*
G01*
G37*
G36*
G01*
X130289000Y-109103000D02*
X130289000Y-110353000D01*
G75*
G02*
X130039000Y-110603000I-250000J0D01*
G01*
X129114000Y-110603000D01*
G75*
G02*
X128864000Y-110353000I0J250000D01*
G01*
X128864000Y-109103000D01*
G75*
G02*
X129114000Y-108853000I250000J0D01*
G01*
X130039000Y-108853000D01*
G75*
G02*
X130289000Y-109103000I0J-250000D01*
G01*
G37*
G36*
G01*
X133264000Y-109103000D02*
X133264000Y-110353000D01*
G75*
G02*
X133014000Y-110603000I-250000J0D01*
G01*
X132089000Y-110603000D01*
G75*
G02*
X131839000Y-110353000I0J250000D01*
G01*
X131839000Y-109103000D01*
G75*
G02*
X132089000Y-108853000I250000J0D01*
G01*
X133014000Y-108853000D01*
G75*
G02*
X133264000Y-109103000I0J-250000D01*
G01*
G37*
D10*
X140034000Y-110744000D03*
X140034000Y-109794000D03*
X140034000Y-111694000D03*
X137334000Y-111694000D03*
X137334000Y-110744000D03*
X137334000Y-109794000D03*
G36*
G01*
X195399500Y-25857500D02*
X196649500Y-25857500D01*
G75*
G02*
X196899500Y-26107500I0J-250000D01*
G01*
X196899500Y-27032500D01*
G75*
G02*
X196649500Y-27282500I-250000J0D01*
G01*
X195399500Y-27282500D01*
G75*
G02*
X195149500Y-27032500I0J250000D01*
G01*
X195149500Y-26107500D01*
G75*
G02*
X195399500Y-25857500I250000J0D01*
G01*
G37*
G36*
G01*
X195399500Y-22882500D02*
X196649500Y-22882500D01*
G75*
G02*
X196899500Y-23132500I0J-250000D01*
G01*
X196899500Y-24057500D01*
G75*
G02*
X196649500Y-24307500I-250000J0D01*
G01*
X195399500Y-24307500D01*
G75*
G02*
X195149500Y-24057500I0J250000D01*
G01*
X195149500Y-23132500D01*
G75*
G02*
X195399500Y-22882500I250000J0D01*
G01*
G37*
G36*
G01*
X195884500Y-69542500D02*
X195884500Y-70792500D01*
G75*
G02*
X195634500Y-71042500I-250000J0D01*
G01*
X194709500Y-71042500D01*
G75*
G02*
X194459500Y-70792500I0J250000D01*
G01*
X194459500Y-69542500D01*
G75*
G02*
X194709500Y-69292500I250000J0D01*
G01*
X195634500Y-69292500D01*
G75*
G02*
X195884500Y-69542500I0J-250000D01*
G01*
G37*
G36*
G01*
X198859500Y-69542500D02*
X198859500Y-70792500D01*
G75*
G02*
X198609500Y-71042500I-250000J0D01*
G01*
X197684500Y-71042500D01*
G75*
G02*
X197434500Y-70792500I0J250000D01*
G01*
X197434500Y-69542500D01*
G75*
G02*
X197684500Y-69292500I250000J0D01*
G01*
X198609500Y-69292500D01*
G75*
G02*
X198859500Y-69542500I0J-250000D01*
G01*
G37*
D11*
X184720500Y-72893000D03*
X184720500Y-74173000D03*
X184720500Y-75433000D03*
X184720500Y-76703000D03*
X184720500Y-77983000D03*
X184720500Y-79253000D03*
X184720500Y-80513000D03*
X184720500Y-81793000D03*
X194120500Y-81793000D03*
X194120500Y-80513000D03*
X194120500Y-79253000D03*
X194120500Y-77983000D03*
X194120500Y-76703000D03*
X194120500Y-75433000D03*
X194120500Y-74173000D03*
X194120500Y-72893000D03*
X184085500Y-26601500D03*
X184085500Y-27881500D03*
X184085500Y-29141500D03*
X184085500Y-30411500D03*
X184085500Y-31691500D03*
X184085500Y-32961500D03*
X184085500Y-34221500D03*
X184085500Y-35501500D03*
X193485500Y-35501500D03*
X193485500Y-34221500D03*
X193485500Y-32961500D03*
X193485500Y-31691500D03*
X193485500Y-30411500D03*
X193485500Y-29141500D03*
X193485500Y-27881500D03*
X193485500Y-26601500D03*
G36*
G01*
X90799499Y-49438980D02*
X91699501Y-49438980D01*
G75*
G02*
X91949500Y-49688979I0J-249999D01*
G01*
X91949500Y-50338981D01*
G75*
G02*
X91699501Y-50588980I-249999J0D01*
G01*
X90799499Y-50588980D01*
G75*
G02*
X90549500Y-50338981I0J249999D01*
G01*
X90549500Y-49688979D01*
G75*
G02*
X90799499Y-49438980I249999J0D01*
G01*
G37*
G36*
G01*
X90799499Y-47388980D02*
X91699501Y-47388980D01*
G75*
G02*
X91949500Y-47638979I0J-249999D01*
G01*
X91949500Y-48288981D01*
G75*
G02*
X91699501Y-48538980I-249999J0D01*
G01*
X90799499Y-48538980D01*
G75*
G02*
X90549500Y-48288981I0J249999D01*
G01*
X90549500Y-47638979D01*
G75*
G02*
X90799499Y-47388980I249999J0D01*
G01*
G37*
G36*
G01*
X188201600Y-91168380D02*
X188201600Y-89918380D01*
G75*
G02*
X188451600Y-89668380I250000J0D01*
G01*
X189376600Y-89668380D01*
G75*
G02*
X189626600Y-89918380I0J-250000D01*
G01*
X189626600Y-91168380D01*
G75*
G02*
X189376600Y-91418380I-250000J0D01*
G01*
X188451600Y-91418380D01*
G75*
G02*
X188201600Y-91168380I0J250000D01*
G01*
G37*
G36*
G01*
X185226600Y-91168380D02*
X185226600Y-89918380D01*
G75*
G02*
X185476600Y-89668380I250000J0D01*
G01*
X186401600Y-89668380D01*
G75*
G02*
X186651600Y-89918380I0J-250000D01*
G01*
X186651600Y-91168380D01*
G75*
G02*
X186401600Y-91418380I-250000J0D01*
G01*
X185476600Y-91418380D01*
G75*
G02*
X185226600Y-91168380I0J250000D01*
G01*
G37*
G36*
G01*
X197939500Y-25857500D02*
X199189500Y-25857500D01*
G75*
G02*
X199439500Y-26107500I0J-250000D01*
G01*
X199439500Y-27032500D01*
G75*
G02*
X199189500Y-27282500I-250000J0D01*
G01*
X197939500Y-27282500D01*
G75*
G02*
X197689500Y-27032500I0J250000D01*
G01*
X197689500Y-26107500D01*
G75*
G02*
X197939500Y-25857500I250000J0D01*
G01*
G37*
G36*
G01*
X197939500Y-22882500D02*
X199189500Y-22882500D01*
G75*
G02*
X199439500Y-23132500I0J-250000D01*
G01*
X199439500Y-24057500D01*
G75*
G02*
X199189500Y-24307500I-250000J0D01*
G01*
X197939500Y-24307500D01*
G75*
G02*
X197689500Y-24057500I0J250000D01*
G01*
X197689500Y-23132500D01*
G75*
G02*
X197939500Y-22882500I250000J0D01*
G01*
G37*
D10*
X176320440Y-35052040D03*
X176320440Y-34102040D03*
X176320440Y-33152040D03*
X173620440Y-33152040D03*
X173620440Y-35052040D03*
X173620440Y-34102040D03*
X63963560Y-32628800D03*
X63963560Y-33578800D03*
X63963560Y-34528800D03*
X66663560Y-34528800D03*
X66663560Y-32628800D03*
X66663560Y-33578800D03*
X63963560Y-51846440D03*
X63963560Y-52796440D03*
X63963560Y-53746440D03*
X66663560Y-53746440D03*
X66663560Y-51846440D03*
X66663560Y-52796440D03*
X66196200Y-72430640D03*
X66196200Y-71480640D03*
X66196200Y-73380640D03*
X63496200Y-73380640D03*
X63496200Y-72430640D03*
X63496200Y-71480640D03*
X63496200Y-92659160D03*
X63496200Y-93609160D03*
X63496200Y-94559160D03*
X66196200Y-94559160D03*
X66196200Y-92659160D03*
X66196200Y-93609160D03*
X173290240Y-54477920D03*
X173290240Y-55427920D03*
X173290240Y-53527920D03*
X175990240Y-53527920D03*
X175990240Y-54477920D03*
X175990240Y-55427920D03*
X173153080Y-74797920D03*
X173153080Y-75747920D03*
X173153080Y-73847920D03*
X175853080Y-73847920D03*
X175853080Y-74797920D03*
X175853080Y-75747920D03*
X172975280Y-94762320D03*
X172975280Y-95712320D03*
X172975280Y-93812320D03*
X175675280Y-93812320D03*
X175675280Y-94762320D03*
X175675280Y-95712320D03*
D12*
X181615040Y-90539560D03*
X182565040Y-90539560D03*
X183515040Y-90539560D03*
X183515040Y-87839560D03*
X181615040Y-87839560D03*
X182565040Y-87839560D03*
G36*
G01*
X80995720Y-24955921D02*
X80995720Y-24055919D01*
G75*
G02*
X81245719Y-23805920I249999J0D01*
G01*
X81895721Y-23805920D01*
G75*
G02*
X82145720Y-24055919I0J-249999D01*
G01*
X82145720Y-24955921D01*
G75*
G02*
X81895721Y-25205920I-249999J0D01*
G01*
X81245719Y-25205920D01*
G75*
G02*
X80995720Y-24955921I0J249999D01*
G01*
G37*
G36*
G01*
X83045720Y-24955921D02*
X83045720Y-24055919D01*
G75*
G02*
X83295719Y-23805920I249999J0D01*
G01*
X83945721Y-23805920D01*
G75*
G02*
X84195720Y-24055919I0J-249999D01*
G01*
X84195720Y-24955921D01*
G75*
G02*
X83945721Y-25205920I-249999J0D01*
G01*
X83295719Y-25205920D01*
G75*
G02*
X83045720Y-24955921I0J249999D01*
G01*
G37*
G36*
G01*
X81016040Y-45814401D02*
X81016040Y-44914399D01*
G75*
G02*
X81266039Y-44664400I249999J0D01*
G01*
X81916041Y-44664400D01*
G75*
G02*
X82166040Y-44914399I0J-249999D01*
G01*
X82166040Y-45814401D01*
G75*
G02*
X81916041Y-46064400I-249999J0D01*
G01*
X81266039Y-46064400D01*
G75*
G02*
X81016040Y-45814401I0J249999D01*
G01*
G37*
G36*
G01*
X83066040Y-45814401D02*
X83066040Y-44914399D01*
G75*
G02*
X83316039Y-44664400I249999J0D01*
G01*
X83966041Y-44664400D01*
G75*
G02*
X84216040Y-44914399I0J-249999D01*
G01*
X84216040Y-45814401D01*
G75*
G02*
X83966041Y-46064400I-249999J0D01*
G01*
X83316039Y-46064400D01*
G75*
G02*
X83066040Y-45814401I0J249999D01*
G01*
G37*
G36*
G01*
X80548680Y-65900721D02*
X80548680Y-65000719D01*
G75*
G02*
X80798679Y-64750720I249999J0D01*
G01*
X81448681Y-64750720D01*
G75*
G02*
X81698680Y-65000719I0J-249999D01*
G01*
X81698680Y-65900721D01*
G75*
G02*
X81448681Y-66150720I-249999J0D01*
G01*
X80798679Y-66150720D01*
G75*
G02*
X80548680Y-65900721I0J249999D01*
G01*
G37*
G36*
G01*
X82598680Y-65900721D02*
X82598680Y-65000719D01*
G75*
G02*
X82848679Y-64750720I249999J0D01*
G01*
X83498681Y-64750720D01*
G75*
G02*
X83748680Y-65000719I0J-249999D01*
G01*
X83748680Y-65900721D01*
G75*
G02*
X83498681Y-66150720I-249999J0D01*
G01*
X82848679Y-66150720D01*
G75*
G02*
X82598680Y-65900721I0J249999D01*
G01*
G37*
G36*
G01*
X86219880Y-84690799D02*
X86219880Y-85590801D01*
G75*
G02*
X85969881Y-85840800I-249999J0D01*
G01*
X85319879Y-85840800D01*
G75*
G02*
X85069880Y-85590801I0J249999D01*
G01*
X85069880Y-84690799D01*
G75*
G02*
X85319879Y-84440800I249999J0D01*
G01*
X85969881Y-84440800D01*
G75*
G02*
X86219880Y-84690799I0J-249999D01*
G01*
G37*
G36*
G01*
X88269880Y-84690799D02*
X88269880Y-85590801D01*
G75*
G02*
X88019881Y-85840800I-249999J0D01*
G01*
X87369879Y-85840800D01*
G75*
G02*
X87119880Y-85590801I0J249999D01*
G01*
X87119880Y-84690799D01*
G75*
G02*
X87369879Y-84440800I249999J0D01*
G01*
X88019881Y-84440800D01*
G75*
G02*
X88269880Y-84690799I0J-249999D01*
G01*
G37*
G36*
G01*
X86473880Y-24040679D02*
X86473880Y-24940681D01*
G75*
G02*
X86223881Y-25190680I-249999J0D01*
G01*
X85573879Y-25190680D01*
G75*
G02*
X85323880Y-24940681I0J249999D01*
G01*
X85323880Y-24040679D01*
G75*
G02*
X85573879Y-23790680I249999J0D01*
G01*
X86223881Y-23790680D01*
G75*
G02*
X86473880Y-24040679I0J-249999D01*
G01*
G37*
G36*
G01*
X88523880Y-24040679D02*
X88523880Y-24940681D01*
G75*
G02*
X88273881Y-25190680I-249999J0D01*
G01*
X87623879Y-25190680D01*
G75*
G02*
X87373880Y-24940681I0J249999D01*
G01*
X87373880Y-24040679D01*
G75*
G02*
X87623879Y-23790680I249999J0D01*
G01*
X88273881Y-23790680D01*
G75*
G02*
X88523880Y-24040679I0J-249999D01*
G01*
G37*
G36*
G01*
X88722000Y-65000719D02*
X88722000Y-65900721D01*
G75*
G02*
X88472001Y-66150720I-249999J0D01*
G01*
X87821999Y-66150720D01*
G75*
G02*
X87572000Y-65900721I0J249999D01*
G01*
X87572000Y-65000719D01*
G75*
G02*
X87821999Y-64750720I249999J0D01*
G01*
X88472001Y-64750720D01*
G75*
G02*
X88722000Y-65000719I0J-249999D01*
G01*
G37*
G36*
G01*
X86672000Y-65000719D02*
X86672000Y-65900721D01*
G75*
G02*
X86422001Y-66150720I-249999J0D01*
G01*
X85771999Y-66150720D01*
G75*
G02*
X85522000Y-65900721I0J249999D01*
G01*
X85522000Y-65000719D01*
G75*
G02*
X85771999Y-64750720I249999J0D01*
G01*
X86422001Y-64750720D01*
G75*
G02*
X86672000Y-65000719I0J-249999D01*
G01*
G37*
G36*
G01*
X80548680Y-85590801D02*
X80548680Y-84690799D01*
G75*
G02*
X80798679Y-84440800I249999J0D01*
G01*
X81448681Y-84440800D01*
G75*
G02*
X81698680Y-84690799I0J-249999D01*
G01*
X81698680Y-85590801D01*
G75*
G02*
X81448681Y-85840800I-249999J0D01*
G01*
X80798679Y-85840800D01*
G75*
G02*
X80548680Y-85590801I0J249999D01*
G01*
G37*
G36*
G01*
X82598680Y-85590801D02*
X82598680Y-84690799D01*
G75*
G02*
X82848679Y-84440800I249999J0D01*
G01*
X83498681Y-84440800D01*
G75*
G02*
X83748680Y-84690799I0J-249999D01*
G01*
X83748680Y-85590801D01*
G75*
G02*
X83498681Y-85840800I-249999J0D01*
G01*
X82848679Y-85840800D01*
G75*
G02*
X82598680Y-85590801I0J249999D01*
G01*
G37*
G36*
G01*
X92376839Y-38885280D02*
X93276841Y-38885280D01*
G75*
G02*
X93526840Y-39135279I0J-249999D01*
G01*
X93526840Y-39785281D01*
G75*
G02*
X93276841Y-40035280I-249999J0D01*
G01*
X92376839Y-40035280D01*
G75*
G02*
X92126840Y-39785281I0J249999D01*
G01*
X92126840Y-39135279D01*
G75*
G02*
X92376839Y-38885280I249999J0D01*
G01*
G37*
G36*
G01*
X92376839Y-36835280D02*
X93276841Y-36835280D01*
G75*
G02*
X93526840Y-37085279I0J-249999D01*
G01*
X93526840Y-37735281D01*
G75*
G02*
X93276841Y-37985280I-249999J0D01*
G01*
X92376839Y-37985280D01*
G75*
G02*
X92126840Y-37735281I0J249999D01*
G01*
X92126840Y-37085279D01*
G75*
G02*
X92376839Y-36835280I249999J0D01*
G01*
G37*
G36*
G01*
X113411200Y-24966081D02*
X113411200Y-24066079D01*
G75*
G02*
X113661199Y-23816080I249999J0D01*
G01*
X114311201Y-23816080D01*
G75*
G02*
X114561200Y-24066079I0J-249999D01*
G01*
X114561200Y-24966081D01*
G75*
G02*
X114311201Y-25216080I-249999J0D01*
G01*
X113661199Y-25216080D01*
G75*
G02*
X113411200Y-24966081I0J249999D01*
G01*
G37*
G36*
G01*
X115461200Y-24966081D02*
X115461200Y-24066079D01*
G75*
G02*
X115711199Y-23816080I249999J0D01*
G01*
X116361201Y-23816080D01*
G75*
G02*
X116611200Y-24066079I0J-249999D01*
G01*
X116611200Y-24966081D01*
G75*
G02*
X116361201Y-25216080I-249999J0D01*
G01*
X115711199Y-25216080D01*
G75*
G02*
X115461200Y-24966081I0J249999D01*
G01*
G37*
G36*
G01*
X111419440Y-44914399D02*
X111419440Y-45814401D01*
G75*
G02*
X111169441Y-46064400I-249999J0D01*
G01*
X110519439Y-46064400D01*
G75*
G02*
X110269440Y-45814401I0J249999D01*
G01*
X110269440Y-44914399D01*
G75*
G02*
X110519439Y-44664400I249999J0D01*
G01*
X111169441Y-44664400D01*
G75*
G02*
X111419440Y-44914399I0J-249999D01*
G01*
G37*
G36*
G01*
X109369440Y-44914399D02*
X109369440Y-45814401D01*
G75*
G02*
X109119441Y-46064400I-249999J0D01*
G01*
X108469439Y-46064400D01*
G75*
G02*
X108219440Y-45814401I0J249999D01*
G01*
X108219440Y-44914399D01*
G75*
G02*
X108469439Y-44664400I249999J0D01*
G01*
X109119441Y-44664400D01*
G75*
G02*
X109369440Y-44914399I0J-249999D01*
G01*
G37*
G36*
G01*
X110952080Y-65000719D02*
X110952080Y-65900721D01*
G75*
G02*
X110702081Y-66150720I-249999J0D01*
G01*
X110052079Y-66150720D01*
G75*
G02*
X109802080Y-65900721I0J249999D01*
G01*
X109802080Y-65000719D01*
G75*
G02*
X110052079Y-64750720I249999J0D01*
G01*
X110702081Y-64750720D01*
G75*
G02*
X110952080Y-65000719I0J-249999D01*
G01*
G37*
G36*
G01*
X108902080Y-65000719D02*
X108902080Y-65900721D01*
G75*
G02*
X108652081Y-66150720I-249999J0D01*
G01*
X108002079Y-66150720D01*
G75*
G02*
X107752080Y-65900721I0J249999D01*
G01*
X107752080Y-65000719D01*
G75*
G02*
X108002079Y-64750720I249999J0D01*
G01*
X108652081Y-64750720D01*
G75*
G02*
X108902080Y-65000719I0J-249999D01*
G01*
G37*
G36*
G01*
X108902080Y-84690799D02*
X108902080Y-85590801D01*
G75*
G02*
X108652081Y-85840800I-249999J0D01*
G01*
X108002079Y-85840800D01*
G75*
G02*
X107752080Y-85590801I0J249999D01*
G01*
X107752080Y-84690799D01*
G75*
G02*
X108002079Y-84440800I249999J0D01*
G01*
X108652081Y-84440800D01*
G75*
G02*
X108902080Y-84690799I0J-249999D01*
G01*
G37*
G36*
G01*
X110952080Y-84690799D02*
X110952080Y-85590801D01*
G75*
G02*
X110702081Y-85840800I-249999J0D01*
G01*
X110052079Y-85840800D01*
G75*
G02*
X109802080Y-85590801I0J249999D01*
G01*
X109802080Y-84690799D01*
G75*
G02*
X110052079Y-84440800I249999J0D01*
G01*
X110702081Y-84440800D01*
G75*
G02*
X110952080Y-84690799I0J-249999D01*
G01*
G37*
G36*
G01*
X114231000Y-44914399D02*
X114231000Y-45814401D01*
G75*
G02*
X113981001Y-46064400I-249999J0D01*
G01*
X113330999Y-46064400D01*
G75*
G02*
X113081000Y-45814401I0J249999D01*
G01*
X113081000Y-44914399D01*
G75*
G02*
X113330999Y-44664400I249999J0D01*
G01*
X113981001Y-44664400D01*
G75*
G02*
X114231000Y-44914399I0J-249999D01*
G01*
G37*
G36*
G01*
X116281000Y-44914399D02*
X116281000Y-45814401D01*
G75*
G02*
X116031001Y-46064400I-249999J0D01*
G01*
X115380999Y-46064400D01*
G75*
G02*
X115131000Y-45814401I0J249999D01*
G01*
X115131000Y-44914399D01*
G75*
G02*
X115380999Y-44664400I249999J0D01*
G01*
X116031001Y-44664400D01*
G75*
G02*
X116281000Y-44914399I0J-249999D01*
G01*
G37*
G36*
G01*
X114175120Y-65000719D02*
X114175120Y-65900721D01*
G75*
G02*
X113925121Y-66150720I-249999J0D01*
G01*
X113275119Y-66150720D01*
G75*
G02*
X113025120Y-65900721I0J249999D01*
G01*
X113025120Y-65000719D01*
G75*
G02*
X113275119Y-64750720I249999J0D01*
G01*
X113925121Y-64750720D01*
G75*
G02*
X114175120Y-65000719I0J-249999D01*
G01*
G37*
G36*
G01*
X116225120Y-65000719D02*
X116225120Y-65900721D01*
G75*
G02*
X115975121Y-66150720I-249999J0D01*
G01*
X115325119Y-66150720D01*
G75*
G02*
X115075120Y-65900721I0J249999D01*
G01*
X115075120Y-65000719D01*
G75*
G02*
X115325119Y-64750720I249999J0D01*
G01*
X115975121Y-64750720D01*
G75*
G02*
X116225120Y-65000719I0J-249999D01*
G01*
G37*
G36*
G01*
X115737440Y-84690799D02*
X115737440Y-85590801D01*
G75*
G02*
X115487441Y-85840800I-249999J0D01*
G01*
X114837439Y-85840800D01*
G75*
G02*
X114587440Y-85590801I0J249999D01*
G01*
X114587440Y-84690799D01*
G75*
G02*
X114837439Y-84440800I249999J0D01*
G01*
X115487441Y-84440800D01*
G75*
G02*
X115737440Y-84690799I0J-249999D01*
G01*
G37*
G36*
G01*
X113687440Y-84690799D02*
X113687440Y-85590801D01*
G75*
G02*
X113437441Y-85840800I-249999J0D01*
G01*
X112787439Y-85840800D01*
G75*
G02*
X112537440Y-85590801I0J249999D01*
G01*
X112537440Y-84690799D01*
G75*
G02*
X112787439Y-84440800I249999J0D01*
G01*
X113437441Y-84440800D01*
G75*
G02*
X113687440Y-84690799I0J-249999D01*
G01*
G37*
G36*
G01*
X109699640Y-24015279D02*
X109699640Y-24915281D01*
G75*
G02*
X109449641Y-25165280I-249999J0D01*
G01*
X108799639Y-25165280D01*
G75*
G02*
X108549640Y-24915281I0J249999D01*
G01*
X108549640Y-24015279D01*
G75*
G02*
X108799639Y-23765280I249999J0D01*
G01*
X109449641Y-23765280D01*
G75*
G02*
X109699640Y-24015279I0J-249999D01*
G01*
G37*
G36*
G01*
X111749640Y-24015279D02*
X111749640Y-24915281D01*
G75*
G02*
X111499641Y-25165280I-249999J0D01*
G01*
X110849639Y-25165280D01*
G75*
G02*
X110599640Y-24915281I0J249999D01*
G01*
X110599640Y-24015279D01*
G75*
G02*
X110849639Y-23765280I249999J0D01*
G01*
X111499641Y-23765280D01*
G75*
G02*
X111749640Y-24015279I0J-249999D01*
G01*
G37*
G36*
G01*
X120596239Y-37216280D02*
X121496241Y-37216280D01*
G75*
G02*
X121746240Y-37466279I0J-249999D01*
G01*
X121746240Y-38116281D01*
G75*
G02*
X121496241Y-38366280I-249999J0D01*
G01*
X120596239Y-38366280D01*
G75*
G02*
X120346240Y-38116281I0J249999D01*
G01*
X120346240Y-37466279D01*
G75*
G02*
X120596239Y-37216280I249999J0D01*
G01*
G37*
G36*
G01*
X120596239Y-39266280D02*
X121496241Y-39266280D01*
G75*
G02*
X121746240Y-39516279I0J-249999D01*
G01*
X121746240Y-40166281D01*
G75*
G02*
X121496241Y-40416280I-249999J0D01*
G01*
X120596239Y-40416280D01*
G75*
G02*
X120346240Y-40166281I0J249999D01*
G01*
X120346240Y-39516279D01*
G75*
G02*
X120596239Y-39266280I249999J0D01*
G01*
G37*
G36*
G01*
X137147720Y-24666361D02*
X137147720Y-23766359D01*
G75*
G02*
X137397719Y-23516360I249999J0D01*
G01*
X138047721Y-23516360D01*
G75*
G02*
X138297720Y-23766359I0J-249999D01*
G01*
X138297720Y-24666361D01*
G75*
G02*
X138047721Y-24916360I-249999J0D01*
G01*
X137397719Y-24916360D01*
G75*
G02*
X137147720Y-24666361I0J249999D01*
G01*
G37*
G36*
G01*
X135097720Y-24666361D02*
X135097720Y-23766359D01*
G75*
G02*
X135347719Y-23516360I249999J0D01*
G01*
X135997721Y-23516360D01*
G75*
G02*
X136247720Y-23766359I0J-249999D01*
G01*
X136247720Y-24666361D01*
G75*
G02*
X135997721Y-24916360I-249999J0D01*
G01*
X135347719Y-24916360D01*
G75*
G02*
X135097720Y-24666361I0J249999D01*
G01*
G37*
G36*
G01*
X136817520Y-45814401D02*
X136817520Y-44914399D01*
G75*
G02*
X137067519Y-44664400I249999J0D01*
G01*
X137717521Y-44664400D01*
G75*
G02*
X137967520Y-44914399I0J-249999D01*
G01*
X137967520Y-45814401D01*
G75*
G02*
X137717521Y-46064400I-249999J0D01*
G01*
X137067519Y-46064400D01*
G75*
G02*
X136817520Y-45814401I0J249999D01*
G01*
G37*
G36*
G01*
X134767520Y-45814401D02*
X134767520Y-44914399D01*
G75*
G02*
X135017519Y-44664400I249999J0D01*
G01*
X135667521Y-44664400D01*
G75*
G02*
X135917520Y-44914399I0J-249999D01*
G01*
X135917520Y-45814401D01*
G75*
G02*
X135667521Y-46064400I-249999J0D01*
G01*
X135017519Y-46064400D01*
G75*
G02*
X134767520Y-45814401I0J249999D01*
G01*
G37*
G36*
G01*
X134300160Y-65900721D02*
X134300160Y-65000719D01*
G75*
G02*
X134550159Y-64750720I249999J0D01*
G01*
X135200161Y-64750720D01*
G75*
G02*
X135450160Y-65000719I0J-249999D01*
G01*
X135450160Y-65900721D01*
G75*
G02*
X135200161Y-66150720I-249999J0D01*
G01*
X134550159Y-66150720D01*
G75*
G02*
X134300160Y-65900721I0J249999D01*
G01*
G37*
G36*
G01*
X136350160Y-65900721D02*
X136350160Y-65000719D01*
G75*
G02*
X136600159Y-64750720I249999J0D01*
G01*
X137250161Y-64750720D01*
G75*
G02*
X137500160Y-65000719I0J-249999D01*
G01*
X137500160Y-65900721D01*
G75*
G02*
X137250161Y-66150720I-249999J0D01*
G01*
X136600159Y-66150720D01*
G75*
G02*
X136350160Y-65900721I0J249999D01*
G01*
G37*
G36*
G01*
X143357400Y-84690799D02*
X143357400Y-85590801D01*
G75*
G02*
X143107401Y-85840800I-249999J0D01*
G01*
X142457399Y-85840800D01*
G75*
G02*
X142207400Y-85590801I0J249999D01*
G01*
X142207400Y-84690799D01*
G75*
G02*
X142457399Y-84440800I249999J0D01*
G01*
X143107401Y-84440800D01*
G75*
G02*
X143357400Y-84690799I0J-249999D01*
G01*
G37*
G36*
G01*
X141307400Y-84690799D02*
X141307400Y-85590801D01*
G75*
G02*
X141057401Y-85840800I-249999J0D01*
G01*
X140407399Y-85840800D01*
G75*
G02*
X140157400Y-85590801I0J249999D01*
G01*
X140157400Y-84690799D01*
G75*
G02*
X140407399Y-84440800I249999J0D01*
G01*
X141057401Y-84440800D01*
G75*
G02*
X141307400Y-84690799I0J-249999D01*
G01*
G37*
G36*
G01*
X143078000Y-23766359D02*
X143078000Y-24666361D01*
G75*
G02*
X142828001Y-24916360I-249999J0D01*
G01*
X142177999Y-24916360D01*
G75*
G02*
X141928000Y-24666361I0J249999D01*
G01*
X141928000Y-23766359D01*
G75*
G02*
X142177999Y-23516360I249999J0D01*
G01*
X142828001Y-23516360D01*
G75*
G02*
X143078000Y-23766359I0J-249999D01*
G01*
G37*
G36*
G01*
X141028000Y-23766359D02*
X141028000Y-24666361D01*
G75*
G02*
X140778001Y-24916360I-249999J0D01*
G01*
X140127999Y-24916360D01*
G75*
G02*
X139878000Y-24666361I0J249999D01*
G01*
X139878000Y-23766359D01*
G75*
G02*
X140127999Y-23516360I249999J0D01*
G01*
X140778001Y-23516360D01*
G75*
G02*
X141028000Y-23766359I0J-249999D01*
G01*
G37*
G36*
G01*
X143392960Y-44914399D02*
X143392960Y-45814401D01*
G75*
G02*
X143142961Y-46064400I-249999J0D01*
G01*
X142492959Y-46064400D01*
G75*
G02*
X142242960Y-45814401I0J249999D01*
G01*
X142242960Y-44914399D01*
G75*
G02*
X142492959Y-44664400I249999J0D01*
G01*
X143142961Y-44664400D01*
G75*
G02*
X143392960Y-44914399I0J-249999D01*
G01*
G37*
G36*
G01*
X141342960Y-44914399D02*
X141342960Y-45814401D01*
G75*
G02*
X141092961Y-46064400I-249999J0D01*
G01*
X140442959Y-46064400D01*
G75*
G02*
X140192960Y-45814401I0J249999D01*
G01*
X140192960Y-44914399D01*
G75*
G02*
X140442959Y-44664400I249999J0D01*
G01*
X141092961Y-44664400D01*
G75*
G02*
X141342960Y-44914399I0J-249999D01*
G01*
G37*
G36*
G01*
X141353120Y-65000719D02*
X141353120Y-65900721D01*
G75*
G02*
X141103121Y-66150720I-249999J0D01*
G01*
X140453119Y-66150720D01*
G75*
G02*
X140203120Y-65900721I0J249999D01*
G01*
X140203120Y-65000719D01*
G75*
G02*
X140453119Y-64750720I249999J0D01*
G01*
X141103121Y-64750720D01*
G75*
G02*
X141353120Y-65000719I0J-249999D01*
G01*
G37*
G36*
G01*
X143403120Y-65000719D02*
X143403120Y-65900721D01*
G75*
G02*
X143153121Y-66150720I-249999J0D01*
G01*
X142503119Y-66150720D01*
G75*
G02*
X142253120Y-65900721I0J249999D01*
G01*
X142253120Y-65000719D01*
G75*
G02*
X142503119Y-64750720I249999J0D01*
G01*
X143153121Y-64750720D01*
G75*
G02*
X143403120Y-65000719I0J-249999D01*
G01*
G37*
G36*
G01*
X136350160Y-85590801D02*
X136350160Y-84690799D01*
G75*
G02*
X136600159Y-84440800I249999J0D01*
G01*
X137250161Y-84440800D01*
G75*
G02*
X137500160Y-84690799I0J-249999D01*
G01*
X137500160Y-85590801D01*
G75*
G02*
X137250161Y-85840800I-249999J0D01*
G01*
X136600159Y-85840800D01*
G75*
G02*
X136350160Y-85590801I0J249999D01*
G01*
G37*
G36*
G01*
X134300160Y-85590801D02*
X134300160Y-84690799D01*
G75*
G02*
X134550159Y-84440800I249999J0D01*
G01*
X135200161Y-84440800D01*
G75*
G02*
X135450160Y-84690799I0J-249999D01*
G01*
X135450160Y-85590801D01*
G75*
G02*
X135200161Y-85840800I-249999J0D01*
G01*
X134550159Y-85840800D01*
G75*
G02*
X134300160Y-85590801I0J249999D01*
G01*
G37*
G36*
G01*
X147703119Y-39122880D02*
X148603121Y-39122880D01*
G75*
G02*
X148853120Y-39372879I0J-249999D01*
G01*
X148853120Y-40022881D01*
G75*
G02*
X148603121Y-40272880I-249999J0D01*
G01*
X147703119Y-40272880D01*
G75*
G02*
X147453120Y-40022881I0J249999D01*
G01*
X147453120Y-39372879D01*
G75*
G02*
X147703119Y-39122880I249999J0D01*
G01*
G37*
G36*
G01*
X147703119Y-37072880D02*
X148603121Y-37072880D01*
G75*
G02*
X148853120Y-37322879I0J-249999D01*
G01*
X148853120Y-37972881D01*
G75*
G02*
X148603121Y-38222880I-249999J0D01*
G01*
X147703119Y-38222880D01*
G75*
G02*
X147453120Y-37972881I0J249999D01*
G01*
X147453120Y-37322879D01*
G75*
G02*
X147703119Y-37072880I249999J0D01*
G01*
G37*
G36*
G01*
X152636160Y-24906290D02*
X152636160Y-23993790D01*
G75*
G02*
X152879910Y-23750040I243750J0D01*
G01*
X153367410Y-23750040D01*
G75*
G02*
X153611160Y-23993790I0J-243750D01*
G01*
X153611160Y-24906290D01*
G75*
G02*
X153367410Y-25150040I-243750J0D01*
G01*
X152879910Y-25150040D01*
G75*
G02*
X152636160Y-24906290I0J243750D01*
G01*
G37*
G36*
G01*
X154511160Y-24906290D02*
X154511160Y-23993790D01*
G75*
G02*
X154754910Y-23750040I243750J0D01*
G01*
X155242410Y-23750040D01*
G75*
G02*
X155486160Y-23993790I0J-243750D01*
G01*
X155486160Y-24906290D01*
G75*
G02*
X155242410Y-25150040I-243750J0D01*
G01*
X154754910Y-25150040D01*
G75*
G02*
X154511160Y-24906290I0J243750D01*
G01*
G37*
G36*
G01*
X154180960Y-45820650D02*
X154180960Y-44908150D01*
G75*
G02*
X154424710Y-44664400I243750J0D01*
G01*
X154912210Y-44664400D01*
G75*
G02*
X155155960Y-44908150I0J-243750D01*
G01*
X155155960Y-45820650D01*
G75*
G02*
X154912210Y-46064400I-243750J0D01*
G01*
X154424710Y-46064400D01*
G75*
G02*
X154180960Y-45820650I0J243750D01*
G01*
G37*
G36*
G01*
X152305960Y-45820650D02*
X152305960Y-44908150D01*
G75*
G02*
X152549710Y-44664400I243750J0D01*
G01*
X153037210Y-44664400D01*
G75*
G02*
X153280960Y-44908150I0J-243750D01*
G01*
X153280960Y-45820650D01*
G75*
G02*
X153037210Y-46064400I-243750J0D01*
G01*
X152549710Y-46064400D01*
G75*
G02*
X152305960Y-45820650I0J243750D01*
G01*
G37*
G36*
G01*
X160022600Y-64994470D02*
X160022600Y-65906970D01*
G75*
G02*
X159778850Y-66150720I-243750J0D01*
G01*
X159291350Y-66150720D01*
G75*
G02*
X159047600Y-65906970I0J243750D01*
G01*
X159047600Y-64994470D01*
G75*
G02*
X159291350Y-64750720I243750J0D01*
G01*
X159778850Y-64750720D01*
G75*
G02*
X160022600Y-64994470I0J-243750D01*
G01*
G37*
G36*
G01*
X158147600Y-64994470D02*
X158147600Y-65906970D01*
G75*
G02*
X157903850Y-66150720I-243750J0D01*
G01*
X157416350Y-66150720D01*
G75*
G02*
X157172600Y-65906970I0J243750D01*
G01*
X157172600Y-64994470D01*
G75*
G02*
X157416350Y-64750720I243750J0D01*
G01*
X157903850Y-64750720D01*
G75*
G02*
X158147600Y-64994470I0J-243750D01*
G01*
G37*
G36*
G01*
X152356760Y-85597050D02*
X152356760Y-84684550D01*
G75*
G02*
X152600510Y-84440800I243750J0D01*
G01*
X153088010Y-84440800D01*
G75*
G02*
X153331760Y-84684550I0J-243750D01*
G01*
X153331760Y-85597050D01*
G75*
G02*
X153088010Y-85840800I-243750J0D01*
G01*
X152600510Y-85840800D01*
G75*
G02*
X152356760Y-85597050I0J243750D01*
G01*
G37*
G36*
G01*
X154231760Y-85597050D02*
X154231760Y-84684550D01*
G75*
G02*
X154475510Y-84440800I243750J0D01*
G01*
X154963010Y-84440800D01*
G75*
G02*
X155206760Y-84684550I0J-243750D01*
G01*
X155206760Y-85597050D01*
G75*
G02*
X154963010Y-85840800I-243750J0D01*
G01*
X154475510Y-85840800D01*
G75*
G02*
X154231760Y-85597050I0J243750D01*
G01*
G37*
G36*
G01*
X158147600Y-24044590D02*
X158147600Y-24957090D01*
G75*
G02*
X157903850Y-25200840I-243750J0D01*
G01*
X157416350Y-25200840D01*
G75*
G02*
X157172600Y-24957090I0J243750D01*
G01*
X157172600Y-24044590D01*
G75*
G02*
X157416350Y-23800840I243750J0D01*
G01*
X157903850Y-23800840D01*
G75*
G02*
X158147600Y-24044590I0J-243750D01*
G01*
G37*
G36*
G01*
X160022600Y-24044590D02*
X160022600Y-24957090D01*
G75*
G02*
X159778850Y-25200840I-243750J0D01*
G01*
X159291350Y-25200840D01*
G75*
G02*
X159047600Y-24957090I0J243750D01*
G01*
X159047600Y-24044590D01*
G75*
G02*
X159291350Y-23800840I243750J0D01*
G01*
X159778850Y-23800840D01*
G75*
G02*
X160022600Y-24044590I0J-243750D01*
G01*
G37*
G36*
G01*
X160022600Y-44908150D02*
X160022600Y-45820650D01*
G75*
G02*
X159778850Y-46064400I-243750J0D01*
G01*
X159291350Y-46064400D01*
G75*
G02*
X159047600Y-45820650I0J243750D01*
G01*
X159047600Y-44908150D01*
G75*
G02*
X159291350Y-44664400I243750J0D01*
G01*
X159778850Y-44664400D01*
G75*
G02*
X160022600Y-44908150I0J-243750D01*
G01*
G37*
G36*
G01*
X158147600Y-44908150D02*
X158147600Y-45820650D01*
G75*
G02*
X157903850Y-46064400I-243750J0D01*
G01*
X157416350Y-46064400D01*
G75*
G02*
X157172600Y-45820650I0J243750D01*
G01*
X157172600Y-44908150D01*
G75*
G02*
X157416350Y-44664400I243750J0D01*
G01*
X157903850Y-44664400D01*
G75*
G02*
X158147600Y-44908150I0J-243750D01*
G01*
G37*
G36*
G01*
X154770240Y-65906970D02*
X154770240Y-64994470D01*
G75*
G02*
X155013990Y-64750720I243750J0D01*
G01*
X155501490Y-64750720D01*
G75*
G02*
X155745240Y-64994470I0J-243750D01*
G01*
X155745240Y-65906970D01*
G75*
G02*
X155501490Y-66150720I-243750J0D01*
G01*
X155013990Y-66150720D01*
G75*
G02*
X154770240Y-65906970I0J243750D01*
G01*
G37*
G36*
G01*
X152895240Y-65906970D02*
X152895240Y-64994470D01*
G75*
G02*
X153138990Y-64750720I243750J0D01*
G01*
X153626490Y-64750720D01*
G75*
G02*
X153870240Y-64994470I0J-243750D01*
G01*
X153870240Y-65906970D01*
G75*
G02*
X153626490Y-66150720I-243750J0D01*
G01*
X153138990Y-66150720D01*
G75*
G02*
X152895240Y-65906970I0J243750D01*
G01*
G37*
G36*
G01*
X158147600Y-84684550D02*
X158147600Y-85597050D01*
G75*
G02*
X157903850Y-85840800I-243750J0D01*
G01*
X157416350Y-85840800D01*
G75*
G02*
X157172600Y-85597050I0J243750D01*
G01*
X157172600Y-84684550D01*
G75*
G02*
X157416350Y-84440800I243750J0D01*
G01*
X157903850Y-84440800D01*
G75*
G02*
X158147600Y-84684550I0J-243750D01*
G01*
G37*
G36*
G01*
X160022600Y-84684550D02*
X160022600Y-85597050D01*
G75*
G02*
X159778850Y-85840800I-243750J0D01*
G01*
X159291350Y-85840800D01*
G75*
G02*
X159047600Y-85597050I0J243750D01*
G01*
X159047600Y-84684550D01*
G75*
G02*
X159291350Y-84440800I243750J0D01*
G01*
X159778850Y-84440800D01*
G75*
G02*
X160022600Y-84684550I0J-243750D01*
G01*
G37*
G36*
G01*
X62631480Y-38503560D02*
X61381480Y-38503560D01*
G75*
G02*
X61131480Y-38253560I0J250000D01*
G01*
X61131480Y-37328560D01*
G75*
G02*
X61381480Y-37078560I250000J0D01*
G01*
X62631480Y-37078560D01*
G75*
G02*
X62881480Y-37328560I0J-250000D01*
G01*
X62881480Y-38253560D01*
G75*
G02*
X62631480Y-38503560I-250000J0D01*
G01*
G37*
G36*
G01*
X62631480Y-41478560D02*
X61381480Y-41478560D01*
G75*
G02*
X61131480Y-41228560I0J250000D01*
G01*
X61131480Y-40303560D01*
G75*
G02*
X61381480Y-40053560I250000J0D01*
G01*
X62631480Y-40053560D01*
G75*
G02*
X62881480Y-40303560I0J-250000D01*
G01*
X62881480Y-41228560D01*
G75*
G02*
X62631480Y-41478560I-250000J0D01*
G01*
G37*
G36*
G01*
X63332520Y-61793480D02*
X62082520Y-61793480D01*
G75*
G02*
X61832520Y-61543480I0J250000D01*
G01*
X61832520Y-60618480D01*
G75*
G02*
X62082520Y-60368480I250000J0D01*
G01*
X63332520Y-60368480D01*
G75*
G02*
X63582520Y-60618480I0J-250000D01*
G01*
X63582520Y-61543480D01*
G75*
G02*
X63332520Y-61793480I-250000J0D01*
G01*
G37*
G36*
G01*
X63332520Y-58818480D02*
X62082520Y-58818480D01*
G75*
G02*
X61832520Y-58568480I0J250000D01*
G01*
X61832520Y-57643480D01*
G75*
G02*
X62082520Y-57393480I250000J0D01*
G01*
X63332520Y-57393480D01*
G75*
G02*
X63582520Y-57643480I0J-250000D01*
G01*
X63582520Y-58568480D01*
G75*
G02*
X63332520Y-58818480I-250000J0D01*
G01*
G37*
G36*
G01*
X62865160Y-77666720D02*
X61615160Y-77666720D01*
G75*
G02*
X61365160Y-77416720I0J250000D01*
G01*
X61365160Y-76491720D01*
G75*
G02*
X61615160Y-76241720I250000J0D01*
G01*
X62865160Y-76241720D01*
G75*
G02*
X63115160Y-76491720I0J-250000D01*
G01*
X63115160Y-77416720D01*
G75*
G02*
X62865160Y-77666720I-250000J0D01*
G01*
G37*
G36*
G01*
X62865160Y-80641720D02*
X61615160Y-80641720D01*
G75*
G02*
X61365160Y-80391720I0J250000D01*
G01*
X61365160Y-79466720D01*
G75*
G02*
X61615160Y-79216720I250000J0D01*
G01*
X62865160Y-79216720D01*
G75*
G02*
X63115160Y-79466720I0J-250000D01*
G01*
X63115160Y-80391720D01*
G75*
G02*
X62865160Y-80641720I-250000J0D01*
G01*
G37*
G36*
G01*
X62865160Y-101625760D02*
X61615160Y-101625760D01*
G75*
G02*
X61365160Y-101375760I0J250000D01*
G01*
X61365160Y-100450760D01*
G75*
G02*
X61615160Y-100200760I250000J0D01*
G01*
X62865160Y-100200760D01*
G75*
G02*
X63115160Y-100450760I0J-250000D01*
G01*
X63115160Y-101375760D01*
G75*
G02*
X62865160Y-101625760I-250000J0D01*
G01*
G37*
G36*
G01*
X62865160Y-98650760D02*
X61615160Y-98650760D01*
G75*
G02*
X61365160Y-98400760I0J250000D01*
G01*
X61365160Y-97475760D01*
G75*
G02*
X61615160Y-97225760I250000J0D01*
G01*
X62865160Y-97225760D01*
G75*
G02*
X63115160Y-97475760I0J-250000D01*
G01*
X63115160Y-98400760D01*
G75*
G02*
X62865160Y-98650760I-250000J0D01*
G01*
G37*
G36*
G01*
X65983960Y-37068400D02*
X67233960Y-37068400D01*
G75*
G02*
X67483960Y-37318400I0J-250000D01*
G01*
X67483960Y-38243400D01*
G75*
G02*
X67233960Y-38493400I-250000J0D01*
G01*
X65983960Y-38493400D01*
G75*
G02*
X65733960Y-38243400I0J250000D01*
G01*
X65733960Y-37318400D01*
G75*
G02*
X65983960Y-37068400I250000J0D01*
G01*
G37*
G36*
G01*
X65983960Y-40043400D02*
X67233960Y-40043400D01*
G75*
G02*
X67483960Y-40293400I0J-250000D01*
G01*
X67483960Y-41218400D01*
G75*
G02*
X67233960Y-41468400I-250000J0D01*
G01*
X65983960Y-41468400D01*
G75*
G02*
X65733960Y-41218400I0J250000D01*
G01*
X65733960Y-40293400D01*
G75*
G02*
X65983960Y-40043400I250000J0D01*
G01*
G37*
G36*
G01*
X65983960Y-60332920D02*
X67233960Y-60332920D01*
G75*
G02*
X67483960Y-60582920I0J-250000D01*
G01*
X67483960Y-61507920D01*
G75*
G02*
X67233960Y-61757920I-250000J0D01*
G01*
X65983960Y-61757920D01*
G75*
G02*
X65733960Y-61507920I0J250000D01*
G01*
X65733960Y-60582920D01*
G75*
G02*
X65983960Y-60332920I250000J0D01*
G01*
G37*
G36*
G01*
X65983960Y-57357920D02*
X67233960Y-57357920D01*
G75*
G02*
X67483960Y-57607920I0J-250000D01*
G01*
X67483960Y-58532920D01*
G75*
G02*
X67233960Y-58782920I-250000J0D01*
G01*
X65983960Y-58782920D01*
G75*
G02*
X65733960Y-58532920I0J250000D01*
G01*
X65733960Y-57607920D01*
G75*
G02*
X65983960Y-57357920I250000J0D01*
G01*
G37*
G36*
G01*
X65516600Y-79216720D02*
X66766600Y-79216720D01*
G75*
G02*
X67016600Y-79466720I0J-250000D01*
G01*
X67016600Y-80391720D01*
G75*
G02*
X66766600Y-80641720I-250000J0D01*
G01*
X65516600Y-80641720D01*
G75*
G02*
X65266600Y-80391720I0J250000D01*
G01*
X65266600Y-79466720D01*
G75*
G02*
X65516600Y-79216720I250000J0D01*
G01*
G37*
G36*
G01*
X65516600Y-76241720D02*
X66766600Y-76241720D01*
G75*
G02*
X67016600Y-76491720I0J-250000D01*
G01*
X67016600Y-77416720D01*
G75*
G02*
X66766600Y-77666720I-250000J0D01*
G01*
X65516600Y-77666720D01*
G75*
G02*
X65266600Y-77416720I0J250000D01*
G01*
X65266600Y-76491720D01*
G75*
G02*
X65516600Y-76241720I250000J0D01*
G01*
G37*
G36*
G01*
X65516600Y-100444600D02*
X66766600Y-100444600D01*
G75*
G02*
X67016600Y-100694600I0J-250000D01*
G01*
X67016600Y-101619600D01*
G75*
G02*
X66766600Y-101869600I-250000J0D01*
G01*
X65516600Y-101869600D01*
G75*
G02*
X65266600Y-101619600I0J250000D01*
G01*
X65266600Y-100694600D01*
G75*
G02*
X65516600Y-100444600I250000J0D01*
G01*
G37*
G36*
G01*
X65516600Y-97469600D02*
X66766600Y-97469600D01*
G75*
G02*
X67016600Y-97719600I0J-250000D01*
G01*
X67016600Y-98644600D01*
G75*
G02*
X66766600Y-98894600I-250000J0D01*
G01*
X65516600Y-98894600D01*
G75*
G02*
X65266600Y-98644600I0J250000D01*
G01*
X65266600Y-97719600D01*
G75*
G02*
X65516600Y-97469600I250000J0D01*
G01*
G37*
G36*
G01*
X176819400Y-98033480D02*
X178069400Y-98033480D01*
G75*
G02*
X178319400Y-98283480I0J-250000D01*
G01*
X178319400Y-99208480D01*
G75*
G02*
X178069400Y-99458480I-250000J0D01*
G01*
X176819400Y-99458480D01*
G75*
G02*
X176569400Y-99208480I0J250000D01*
G01*
X176569400Y-98283480D01*
G75*
G02*
X176819400Y-98033480I250000J0D01*
G01*
G37*
G36*
G01*
X176819400Y-101008480D02*
X178069400Y-101008480D01*
G75*
G02*
X178319400Y-101258480I0J-250000D01*
G01*
X178319400Y-102183480D01*
G75*
G02*
X178069400Y-102433480I-250000J0D01*
G01*
X176819400Y-102433480D01*
G75*
G02*
X176569400Y-102183480I0J250000D01*
G01*
X176569400Y-101258480D01*
G75*
G02*
X176819400Y-101008480I250000J0D01*
G01*
G37*
G36*
G01*
X177652520Y-26705200D02*
X178902520Y-26705200D01*
G75*
G02*
X179152520Y-26955200I0J-250000D01*
G01*
X179152520Y-27880200D01*
G75*
G02*
X178902520Y-28130200I-250000J0D01*
G01*
X177652520Y-28130200D01*
G75*
G02*
X177402520Y-27880200I0J250000D01*
G01*
X177402520Y-26955200D01*
G75*
G02*
X177652520Y-26705200I250000J0D01*
G01*
G37*
G36*
G01*
X177652520Y-29680200D02*
X178902520Y-29680200D01*
G75*
G02*
X179152520Y-29930200I0J-250000D01*
G01*
X179152520Y-30855200D01*
G75*
G02*
X178902520Y-31105200I-250000J0D01*
G01*
X177652520Y-31105200D01*
G75*
G02*
X177402520Y-30855200I0J250000D01*
G01*
X177402520Y-29930200D01*
G75*
G02*
X177652520Y-29680200I250000J0D01*
G01*
G37*
G36*
G01*
X175991360Y-50010360D02*
X177241360Y-50010360D01*
G75*
G02*
X177491360Y-50260360I0J-250000D01*
G01*
X177491360Y-51185360D01*
G75*
G02*
X177241360Y-51435360I-250000J0D01*
G01*
X175991360Y-51435360D01*
G75*
G02*
X175741360Y-51185360I0J250000D01*
G01*
X175741360Y-50260360D01*
G75*
G02*
X175991360Y-50010360I250000J0D01*
G01*
G37*
G36*
G01*
X175991360Y-47035360D02*
X177241360Y-47035360D01*
G75*
G02*
X177491360Y-47285360I0J-250000D01*
G01*
X177491360Y-48210360D01*
G75*
G02*
X177241360Y-48460360I-250000J0D01*
G01*
X175991360Y-48460360D01*
G75*
G02*
X175741360Y-48210360I0J250000D01*
G01*
X175741360Y-47285360D01*
G75*
G02*
X175991360Y-47035360I250000J0D01*
G01*
G37*
G36*
G01*
X175595120Y-66999760D02*
X176845120Y-66999760D01*
G75*
G02*
X177095120Y-67249760I0J-250000D01*
G01*
X177095120Y-68174760D01*
G75*
G02*
X176845120Y-68424760I-250000J0D01*
G01*
X175595120Y-68424760D01*
G75*
G02*
X175345120Y-68174760I0J250000D01*
G01*
X175345120Y-67249760D01*
G75*
G02*
X175595120Y-66999760I250000J0D01*
G01*
G37*
G36*
G01*
X175595120Y-69974760D02*
X176845120Y-69974760D01*
G75*
G02*
X177095120Y-70224760I0J-250000D01*
G01*
X177095120Y-71149760D01*
G75*
G02*
X176845120Y-71399760I-250000J0D01*
G01*
X175595120Y-71399760D01*
G75*
G02*
X175345120Y-71149760I0J250000D01*
G01*
X175345120Y-70224760D01*
G75*
G02*
X175595120Y-69974760I250000J0D01*
G01*
G37*
G36*
G01*
X176011680Y-87045440D02*
X177261680Y-87045440D01*
G75*
G02*
X177511680Y-87295440I0J-250000D01*
G01*
X177511680Y-88220440D01*
G75*
G02*
X177261680Y-88470440I-250000J0D01*
G01*
X176011680Y-88470440D01*
G75*
G02*
X175761680Y-88220440I0J250000D01*
G01*
X175761680Y-87295440D01*
G75*
G02*
X176011680Y-87045440I250000J0D01*
G01*
G37*
G36*
G01*
X176011680Y-90020440D02*
X177261680Y-90020440D01*
G75*
G02*
X177511680Y-90270440I0J-250000D01*
G01*
X177511680Y-91195440D01*
G75*
G02*
X177261680Y-91445440I-250000J0D01*
G01*
X176011680Y-91445440D01*
G75*
G02*
X175761680Y-91195440I0J250000D01*
G01*
X175761680Y-90270440D01*
G75*
G02*
X176011680Y-90020440I250000J0D01*
G01*
G37*
G36*
G01*
X195884500Y-66431000D02*
X195884500Y-67681000D01*
G75*
G02*
X195634500Y-67931000I-250000J0D01*
G01*
X194709500Y-67931000D01*
G75*
G02*
X194459500Y-67681000I0J250000D01*
G01*
X194459500Y-66431000D01*
G75*
G02*
X194709500Y-66181000I250000J0D01*
G01*
X195634500Y-66181000D01*
G75*
G02*
X195884500Y-66431000I0J-250000D01*
G01*
G37*
G36*
G01*
X198859500Y-66431000D02*
X198859500Y-67681000D01*
G75*
G02*
X198609500Y-67931000I-250000J0D01*
G01*
X197684500Y-67931000D01*
G75*
G02*
X197434500Y-67681000I0J250000D01*
G01*
X197434500Y-66431000D01*
G75*
G02*
X197684500Y-66181000I250000J0D01*
G01*
X198609500Y-66181000D01*
G75*
G02*
X198859500Y-66431000I0J-250000D01*
G01*
G37*
G36*
G01*
X175509080Y-31120440D02*
X174259080Y-31120440D01*
G75*
G02*
X174009080Y-30870440I0J250000D01*
G01*
X174009080Y-29945440D01*
G75*
G02*
X174259080Y-29695440I250000J0D01*
G01*
X175509080Y-29695440D01*
G75*
G02*
X175759080Y-29945440I0J-250000D01*
G01*
X175759080Y-30870440D01*
G75*
G02*
X175509080Y-31120440I-250000J0D01*
G01*
G37*
G36*
G01*
X175509080Y-28145440D02*
X174259080Y-28145440D01*
G75*
G02*
X174009080Y-27895440I0J250000D01*
G01*
X174009080Y-26970440D01*
G75*
G02*
X174259080Y-26720440I250000J0D01*
G01*
X175509080Y-26720440D01*
G75*
G02*
X175759080Y-26970440I0J-250000D01*
G01*
X175759080Y-27895440D01*
G75*
G02*
X175509080Y-28145440I-250000J0D01*
G01*
G37*
G36*
G01*
X174167960Y-48485760D02*
X172917960Y-48485760D01*
G75*
G02*
X172667960Y-48235760I0J250000D01*
G01*
X172667960Y-47310760D01*
G75*
G02*
X172917960Y-47060760I250000J0D01*
G01*
X174167960Y-47060760D01*
G75*
G02*
X174417960Y-47310760I0J-250000D01*
G01*
X174417960Y-48235760D01*
G75*
G02*
X174167960Y-48485760I-250000J0D01*
G01*
G37*
G36*
G01*
X174167960Y-51460760D02*
X172917960Y-51460760D01*
G75*
G02*
X172667960Y-51210760I0J250000D01*
G01*
X172667960Y-50285760D01*
G75*
G02*
X172917960Y-50035760I250000J0D01*
G01*
X174167960Y-50035760D01*
G75*
G02*
X174417960Y-50285760I0J-250000D01*
G01*
X174417960Y-51210760D01*
G75*
G02*
X174167960Y-51460760I-250000J0D01*
G01*
G37*
G36*
G01*
X173944440Y-71394680D02*
X172694440Y-71394680D01*
G75*
G02*
X172444440Y-71144680I0J250000D01*
G01*
X172444440Y-70219680D01*
G75*
G02*
X172694440Y-69969680I250000J0D01*
G01*
X173944440Y-69969680D01*
G75*
G02*
X174194440Y-70219680I0J-250000D01*
G01*
X174194440Y-71144680D01*
G75*
G02*
X173944440Y-71394680I-250000J0D01*
G01*
G37*
G36*
G01*
X173944440Y-68419680D02*
X172694440Y-68419680D01*
G75*
G02*
X172444440Y-68169680I0J250000D01*
G01*
X172444440Y-67244680D01*
G75*
G02*
X172694440Y-66994680I250000J0D01*
G01*
X173944440Y-66994680D01*
G75*
G02*
X174194440Y-67244680I0J-250000D01*
G01*
X174194440Y-68169680D01*
G75*
G02*
X173944440Y-68419680I-250000J0D01*
G01*
G37*
G36*
G01*
X173929200Y-88470440D02*
X172679200Y-88470440D01*
G75*
G02*
X172429200Y-88220440I0J250000D01*
G01*
X172429200Y-87295440D01*
G75*
G02*
X172679200Y-87045440I250000J0D01*
G01*
X173929200Y-87045440D01*
G75*
G02*
X174179200Y-87295440I0J-250000D01*
G01*
X174179200Y-88220440D01*
G75*
G02*
X173929200Y-88470440I-250000J0D01*
G01*
G37*
G36*
G01*
X173929200Y-91445440D02*
X172679200Y-91445440D01*
G75*
G02*
X172429200Y-91195440I0J250000D01*
G01*
X172429200Y-90270440D01*
G75*
G02*
X172679200Y-90020440I250000J0D01*
G01*
X173929200Y-90020440D01*
G75*
G02*
X174179200Y-90270440I0J-250000D01*
G01*
X174179200Y-91195440D01*
G75*
G02*
X173929200Y-91445440I-250000J0D01*
G01*
G37*
D13*
X78889280Y-111561880D03*
X87389280Y-111561880D03*
X83139280Y-111561880D03*
D14*
X205709520Y-104686680D03*
X205709520Y-96186680D03*
X205709520Y-100436680D03*
D13*
X166751000Y-111328200D03*
X171001000Y-111328200D03*
X162501000Y-111328200D03*
M02*
