G04 #@! TF.GenerationSoftware,KiCad,Pcbnew,(5.1.10)-1*
G04 #@! TF.CreationDate,2021-09-09T12:48:54+02:00*
G04 #@! TF.ProjectId,bandfilter,62616e64-6669-46c7-9465-722e6b696361,rev?*
G04 #@! TF.SameCoordinates,Original*
G04 #@! TF.FileFunction,Soldermask,Bot*
G04 #@! TF.FilePolarity,Negative*
%FSLAX46Y46*%
G04 Gerber Fmt 4.6, Leading zero omitted, Abs format (unit mm)*
G04 Created by KiCad (PCBNEW (5.1.10)-1) date 2021-09-09 12:48:54*
%MOMM*%
%LPD*%
G01*
G04 APERTURE LIST*
%ADD10C,2.000000*%
%ADD11C,3.200000*%
%ADD12C,3.000000*%
%ADD13O,1.700000X1.700000*%
%ADD14R,1.700000X1.700000*%
%ADD15C,2.050000*%
%ADD16C,2.250000*%
%ADD17R,1.500000X5.080000*%
%ADD18R,5.080000X1.500000*%
G04 APERTURE END LIST*
D10*
X93157040Y-54052460D03*
X93157040Y-59052460D03*
D11*
X99367340Y-110236000D03*
X60256420Y-23911560D03*
X204868780Y-24142700D03*
X198269860Y-109440980D03*
D12*
X70830440Y-99588320D03*
X86830440Y-99588320D03*
X70830440Y-89588320D03*
X86830440Y-89588320D03*
X98475800Y-99753440D03*
X114475800Y-99753440D03*
X98475800Y-89753440D03*
X114475800Y-89753440D03*
D13*
X206019400Y-32232600D03*
X206019400Y-34772600D03*
X206019400Y-37312600D03*
X206019400Y-39852600D03*
X206019400Y-42392600D03*
X206019400Y-44932600D03*
D14*
X206019400Y-47472600D03*
X198511160Y-47467520D03*
D13*
X198511160Y-44927520D03*
X198511160Y-42387520D03*
X198511160Y-39847520D03*
X198511160Y-37307520D03*
X198511160Y-34767520D03*
X198511160Y-32227520D03*
D12*
X115161600Y-28904140D03*
X99161600Y-28904140D03*
X115161600Y-38904140D03*
X99161600Y-38904140D03*
X126483840Y-38904140D03*
X142483840Y-38904140D03*
X126483840Y-28904140D03*
X142483840Y-28904140D03*
D10*
X92826840Y-33268920D03*
X92826840Y-28268920D03*
X121097040Y-33421320D03*
X121097040Y-28421320D03*
X148153120Y-33350200D03*
X148153120Y-28350200D03*
X120573800Y-53888640D03*
X120573800Y-48888640D03*
X148127720Y-48898800D03*
X148127720Y-53898800D03*
X93157040Y-74660760D03*
X93157040Y-69660760D03*
X120467120Y-69655680D03*
X120467120Y-74655680D03*
X148041360Y-69691240D03*
X148041360Y-74691240D03*
D12*
X98775520Y-59555240D03*
X114775520Y-59555240D03*
X98775520Y-49555240D03*
X114775520Y-49555240D03*
X142097760Y-49555240D03*
X126097760Y-49555240D03*
X142097760Y-59555240D03*
X126097760Y-59555240D03*
X114816160Y-69542640D03*
X98816160Y-69542640D03*
X114816160Y-79542640D03*
X98816160Y-79542640D03*
X126138400Y-79542640D03*
X142138400Y-79542640D03*
X126138400Y-69542640D03*
X142138400Y-69542640D03*
X87180960Y-28816280D03*
X71180960Y-28816280D03*
X87180960Y-38816280D03*
X71180960Y-38816280D03*
X154220640Y-38904140D03*
X170220640Y-38904140D03*
X154220640Y-28904140D03*
X170220640Y-28904140D03*
X87394320Y-49568080D03*
X71394320Y-49568080D03*
X87394320Y-59568080D03*
X71394320Y-59568080D03*
X169834560Y-49555240D03*
X153834560Y-49555240D03*
X169834560Y-59555240D03*
X153834560Y-59555240D03*
X87221600Y-69542640D03*
X71221600Y-69542640D03*
X87221600Y-79542640D03*
X71221600Y-79542640D03*
X169875200Y-69542640D03*
X153875200Y-69542640D03*
X169875200Y-79542640D03*
X153875200Y-79542640D03*
D10*
X92862400Y-89088320D03*
X92862400Y-94088320D03*
X119644160Y-94088320D03*
X119644160Y-89088320D03*
X147558760Y-88900000D03*
X147558760Y-93900000D03*
D15*
X64190880Y-107482640D03*
D16*
X66730880Y-110022640D03*
X66730880Y-104942640D03*
X61650880Y-104942640D03*
X61650880Y-110022640D03*
D15*
X187761880Y-107320080D03*
D16*
X190301880Y-109860080D03*
X190301880Y-104780080D03*
X185221880Y-104780080D03*
X185221880Y-109860080D03*
X175061880Y-110022640D03*
X175061880Y-104942640D03*
X180141880Y-104942640D03*
X180141880Y-110022640D03*
D15*
X177601880Y-107482640D03*
D12*
X141798040Y-89611200D03*
X125798040Y-89611200D03*
X141798040Y-99611200D03*
X125798040Y-99611200D03*
X153799000Y-99529920D03*
X169799000Y-99529920D03*
X153799000Y-89529920D03*
X169799000Y-89529920D03*
D17*
X78889280Y-111561880D03*
X87389280Y-111561880D03*
D18*
X205709520Y-104686680D03*
X205709520Y-96186680D03*
D17*
X171001000Y-111328200D03*
X162501000Y-111328200D03*
M02*
